<svg version="1.1" xmlns="http://www.w3.org/2000/svg" viewBox="0 0 2048 2048" width="1024" height="1024">

<path transform="translate(0,0)" fill="rgb(30,42,43)" d="M 270.132 701.325 C 257.77 691.499 247.973 682.361 247.325 665.23 C 246.513 643.785 262.933 627.14 280.664 617.766 C 323.689 595.02 367.266 573.301 410.552 551.047 L 658.59 423.79 L 809.648 346.385 C 832.191 334.827 855.02 322.256 877.766 311.378 C 889.861 305.593 909.112 302.897 922.467 302.812 C 953.131 302.615 983.937 302.697 1014.64 302.687 L 1192.17 302.69 L 1261.93 302.359 C 1333.28 301.841 1348.69 303.649 1401.69 354.375 L 1670.84 598.059 L 1761.57 680.205 C 1776.58 693.872 1792.4 707.565 1806.43 722.261 C 1812.2 728.304 1813.35 738.144 1814.31 746.154 C 1791.82 760.105 1760.36 774.178 1736.2 787.588 C 1737.09 803.423 1736.61 821.679 1736.76 837.75 L 1736.78 962.473 L 1736.96 1304.99 L 1736.97 1458.9 C 1737 1470.75 1737.86 1522.12 1736.07 1529.48 C 1735.37 1555.75 1690.07 1561.69 1687.65 1525.82 C 1657.42 1544.67 1633.42 1544.37 1602.97 1559.94 C 1586.06 1568.58 1570.75 1585.85 1553.54 1595.12 C 1530.28 1607.65 1503.25 1611.16 1480 1622.95 C 1459.43 1633.38 1444.47 1651.2 1423.3 1661.98 C 1401.17 1673.25 1377.65 1676.53 1355.66 1687.53 C 1337.6 1696.57 1323.05 1712.69 1305.25 1722.74 C 1282.85 1735.12 1256.93 1739.09 1233.99 1750.17 C 1222.84 1755.57 1213 1762.88 1203.39 1770.6 C 1195.16 1777.2 1187.56 1782.14 1178.38 1787.33 C 1176.83 1810.67 1185.37 1824.76 1158.04 1832.68 C 1132.49 1826.1 1136.57 1810.78 1136.95 1788.88 C 1119.49 1779.99 1126.56 1769.92 1121.32 1764.43 C 1114.23 1761.28 1105 1764.4 1097.09 1765.9 C 1087.35 1761.79 1080.64 1759.35 1072.57 1752.58 C 1065.83 1746.92 1065.66 1732.45 1061.04 1731.86 C 1047.52 1730.14 1037.92 1736.43 1022.78 1726.88 C 1009.46 1718.47 1007.26 1710.73 1003.88 1696.78 C 989.963 1699.96 977.523 1702.29 964.611 1694.69 C 950.402 1686.34 949.011 1678.86 945 1664.77 C 929.144 1665.62 920.179 1670.17 903.644 1660.38 C 890.337 1652.5 888.573 1641.81 885.104 1628.15 C 868.135 1629.24 857.629 1633.07 840.669 1622.21 C 829.462 1615.03 828.457 1606.32 826.203 1594.45 C 810.393 1597.71 799.206 1600.58 784.165 1590.59 C 772.449 1582.81 770.869 1575.19 768.313 1562.75 C 750.871 1563.59 740.825 1568.35 722.863 1556.97 C 710.27 1548.99 709.157 1540.02 706.363 1526.6 C 696.251 1526.92 691.448 1527.77 681.238 1529.55 C 675.804 1526.7 670.273 1523.58 664.876 1520.62 C 643.109 1538.68 621.535 1556.97 600.159 1575.49 C 583.764 1548.09 570.374 1518.86 553.666 1491.21 C 560.205 1486.29 566.81 1481.45 573.479 1476.7 C 562.818 1467.93 562.553 1462.95 559.29 1449.71 C 550.747 1450.5 541.956 1451.98 533.449 1453.27 C 523.262 1449.57 511.508 1443.14 503.82 1435.39 C 502.414 1428.23 501.43 1423.55 499.273 1416.6 C 489.449 1418.18 481.096 1419.53 471.131 1420.33 C 466.666 1418.39 462.315 1416.19 458.101 1413.75 C 444.396 1405.84 443.083 1398.68 439.227 1384.54 C 422.904 1386.41 417.154 1391.55 401.995 1380.8 C 387.104 1401.43 357.516 1400.47 355.273 1374.44 C 353.529 1354.2 354.899 1328.34 354.905 1307.61 L 354.875 1170.52 L 354.844 845.461 C 354.863 783.671 355.647 720.004 354.449 658.359 C 328.135 671.23 295.227 687.034 270.132 701.325 z"/>
<path transform="translate(0,0)" fill="rgb(185,217,198)" d="M 1734.93 856.023 C 1737.58 842.812 1734.8 804.802 1736.2 787.588 C 1737.09 803.423 1736.61 821.679 1736.76 837.75 L 1736.78 962.473 L 1736.96 1304.99 L 1736.97 1458.9 C 1737 1470.75 1737.86 1522.12 1736.07 1529.48 C 1735.24 1522.98 1735.69 1505.18 1735.7 1497.77 L 1735.76 1436.94 C 1735.76 1425.61 1736.13 1410.5 1735.12 1399.48 C 1733.63 1441.21 1736.25 1483.77 1734.47 1525.55 C 1733.39 1550.99 1704.92 1557.46 1691.21 1535.83 C 1689.44 1510.61 1690.52 1474.31 1690.63 1448.52 L 1690.82 1304.27 L 1690.84 810.949 L 1696.95 807.473 C 1721.21 797.298 1733.21 837.912 1734.93 856.023 z"/>
<path transform="translate(0,0)" fill="rgb(116,6,39)" d="M 1734.93 856.023 C 1737.58 842.812 1734.8 804.802 1736.2 787.588 C 1737.09 803.423 1736.61 821.679 1736.76 837.75 L 1736.78 962.473 L 1736.96 1304.99 L 1736.97 1458.9 C 1737 1470.75 1737.86 1522.12 1736.07 1529.48 C 1735.24 1522.98 1735.69 1505.18 1735.7 1497.77 L 1735.76 1436.94 C 1735.76 1425.61 1736.13 1410.5 1735.12 1399.48 C 1734.51 1393.76 1734.85 1379.64 1734.86 1373.41 L 1734.95 1324.84 L 1734.9 1169.75 L 1734.89 959.175 L 1734.75 896.486 C 1734.68 884.204 1734.14 868.091 1734.93 856.023 z"/>
<path transform="translate(0,0)" fill="rgb(3,2,1)" d="M 1401.69 354.375 L 1670.84 598.059 L 1761.57 680.205 C 1776.58 693.872 1792.4 707.565 1806.43 722.261 C 1812.2 728.304 1813.35 738.144 1814.31 746.154 C 1791.82 760.105 1760.36 774.178 1736.2 787.588 C 1734.8 804.802 1737.58 842.812 1734.93 856.023 C 1733.21 837.912 1721.21 797.298 1696.95 807.473 L 1696.73 805.566 L 1698.9 803.785 C 1714.4 797.984 1738.11 783.831 1753.04 775.956 C 1772.14 765.88 1793.67 755.788 1812.12 745.005 C 1811.03 737.125 1809.95 729.043 1804.26 723.164 C 1788.94 707.355 1771.35 691.636 1754.95 676.979 C 1731.58 656.118 1708.38 635.076 1685.34 613.855 L 1400.96 355.956 L 1401.69 354.375 z"/>
<path transform="translate(0,0)" fill="rgb(247,245,238)" d="M 1309.38 1010.91 C 1332.04 1018.99 1352.07 1025.09 1372.76 1037.92 C 1386.05 1046.15 1395.94 1054.93 1408.24 1063.25 C 1434.54 1079.07 1453.99 1081.73 1480.06 1094.43 C 1497.55 1102.95 1518.06 1120.61 1536.63 1131.71 C 1559.29 1142.15 1582.31 1148.49 1603.96 1159.93 C 1617.85 1167.27 1632.38 1179.46 1645.77 1188.17 C 1660.07 1197.47 1672.77 1203.31 1688.26 1210.14 L 1688.27 1271.31 C 1671.94 1264.2 1659.28 1255.38 1644.77 1245.23 L 1642.98 1246.79 C 1659.74 1258.15 1669.91 1265.46 1688.22 1274.13 L 1688.25 1334.2 C 1679.3 1329.21 1669.76 1324.09 1661.01 1318.85 C 1651.74 1312.23 1632.01 1298.36 1622.97 1293.03 C 1590.36 1274.51 1568.48 1274.22 1537.93 1255.87 C 1537.46 1255.63 1536.99 1255.38 1536.52 1255.14 L 1534.78 1253.97 L 1533.47 1253.26 L 1531.93 1251.75 C 1514.6 1240.94 1499.04 1225.69 1478.23 1217.23 C 1448.31 1205.06 1430.38 1204.18 1401.99 1186.01 C 1385.82 1175.28 1373.67 1162.83 1355.24 1153.55 C 1338.18 1144.97 1324.56 1141.72 1306.83 1135.28 C 1290.15 1129.21 1274.92 1118.04 1260.69 1107.67 C 1236.06 1089.55 1220.92 1084.15 1192.83 1074 C 1188.65 1072.35 1183.35 1070.8 1179 1069.4 L 1178.74 1040.07 C 1178.73 1037.15 1178.53 1036.78 1179.46 1034.08 L 1180.75 1034.28 L 1184.38 1039.25 C 1191.05 1050.37 1193.45 1057.81 1194.01 1070.84 C 1199.55 1069.71 1246.46 1043.36 1255.88 1038.84 C 1264.56 1042.24 1271.78 1045.43 1279.58 1050.54 L 1282 1049.31 C 1274.61 1044.45 1266.59 1040.86 1258.61 1037.04 C 1275.39 1028.04 1292.31 1019.33 1309.38 1010.91 z"/>
<path transform="translate(0,0)" fill="rgb(247,245,238)" d="M 1309.38 1010.91 C 1332.04 1018.99 1352.07 1025.09 1372.76 1037.92 C 1386.05 1046.15 1395.94 1054.93 1408.24 1063.25 C 1434.54 1079.07 1453.99 1081.73 1480.06 1094.43 C 1497.55 1102.95 1518.06 1120.61 1536.63 1131.71 C 1559.29 1142.15 1582.31 1148.49 1603.96 1159.93 C 1617.85 1167.27 1632.38 1179.46 1645.77 1188.17 C 1660.07 1197.47 1672.77 1203.31 1688.26 1210.14 L 1688.27 1271.31 C 1671.94 1264.2 1659.28 1255.38 1644.77 1245.23 C 1642 1243.23 1640.09 1241.77 1637.04 1240.16 C 1611.33 1222.97 1591.1 1219.73 1564.26 1207.75 C 1549.18 1201.01 1531.41 1185.93 1516.98 1176.04 C 1495.81 1162.75 1472.41 1157.18 1449.94 1146.9 C 1424.05 1135.07 1405.31 1111.85 1378.18 1102.36 C 1360.04 1096.02 1343.66 1090.34 1326.68 1081.21 C 1310.81 1071.47 1298.42 1059.56 1283.37 1050.02 L 1282 1049.31 C 1274.61 1044.45 1266.59 1040.86 1258.61 1037.04 C 1275.39 1028.04 1292.31 1019.33 1309.38 1010.91 z"/>
<path transform="translate(0,0)" fill="rgb(30,42,43)" d="M 1283.37 1050.02 C 1298.42 1059.56 1310.81 1071.47 1326.68 1081.21 C 1343.66 1090.34 1360.04 1096.02 1378.18 1102.36 C 1405.31 1111.85 1424.05 1135.07 1449.94 1146.9 C 1472.41 1157.18 1495.81 1162.75 1516.98 1176.04 C 1531.41 1185.93 1549.18 1201.01 1564.26 1207.75 C 1591.1 1219.73 1611.33 1222.97 1637.04 1240.16 L 1634.84 1241.35 C 1607.12 1223.97 1588.65 1221.32 1560.1 1208.13 C 1547.36 1202.24 1527.65 1186.05 1514.75 1177.29 C 1494.51 1164.69 1471.12 1158.9 1449.48 1149.16 C 1423.33 1137.55 1404.83 1114.19 1377.63 1104.57 C 1359.17 1098.04 1342.23 1092.2 1324.98 1082.83 C 1314.54 1076.33 1305.95 1069.65 1296.37 1062.1 C 1295.58 1061.54 1295.58 1061.56 1294.93 1060.86 C 1290.89 1057.71 1286.29 1054.67 1282.05 1051.74 L 1283.37 1050.02 z"/>
<path transform="translate(0,0)" fill="rgb(31,95,91)" d="M 1637.04 1240.16 C 1640.09 1241.77 1642 1243.23 1644.77 1245.23 L 1642.98 1246.79 C 1640.24 1244.95 1637.56 1243.24 1634.84 1241.35 L 1637.04 1240.16 z"/>
<path transform="translate(0,0)" fill="rgb(31,95,91)" d="M 1282 1049.31 L 1283.37 1050.02 L 1282.05 1051.74 L 1279.58 1050.54 L 1282 1049.31 z"/>
<path transform="translate(0,0)" fill="rgb(247,245,238)" d="M 1646.09 1436.28 C 1653.54 1440.97 1663.97 1448.14 1670.7 1453.55 L 1673.09 1451.94 L 1674.39 1453.2 L 1675.81 1454.01 C 1679.02 1455.75 1680.86 1457.13 1683.74 1459.27 L 1682.02 1460.76 C 1691.34 1467 1687.92 1472.8 1687.89 1483.4 C 1672.28 1500.54 1650.64 1511.89 1628.55 1518.18 C 1611.55 1523.02 1597.61 1525.89 1582.1 1534.54 C 1560.11 1546.81 1543.33 1565.44 1520.73 1576.49 C 1494.91 1588.88 1471.31 1589.13 1446.53 1603.25 C 1427.47 1614.12 1412.38 1631.77 1393.22 1641.42 C 1371 1651.72 1349.53 1655.25 1327.23 1666.15 C 1308.93 1675.1 1290.65 1696.76 1274.12 1703.61 C 1233.51 1720.44 1214.06 1718.56 1178.68 1748.34 L 1178.95 1681.59 L 1180.46 1680.65 C 1197.98 1669.73 1211.03 1656.2 1230.23 1647.56 C 1250.45 1638.47 1272.47 1636.23 1291.67 1625.43 C 1310.53 1614.83 1324.63 1598.54 1344.58 1589.12 C 1362.84 1580.51 1380.36 1578.63 1398.52 1569.86 C 1415.19 1561.8 1429.11 1545.63 1444.59 1538.16 C 1466.21 1527.74 1489.02 1526.99 1510.93 1514.72 C 1526.18 1505.31 1539.21 1491.85 1555.21 1482.89 C 1571.2 1473.71 1590.42 1471.56 1607 1464 C 1621.29 1457.49 1632.61 1444.29 1646.09 1436.28 z"/>
<path transform="translate(0,0)" fill="rgb(31,95,91)" d="M 1674.39 1453.2 L 1675.81 1454.01 C 1679.02 1455.75 1680.86 1457.13 1683.74 1459.27 L 1682.02 1460.76 C 1679.06 1458.9 1676.62 1457.34 1673.84 1455.25 L 1673.07 1454.73 L 1674.39 1453.2 z"/>
<path transform="translate(0,0)" fill="rgb(31,95,91)" d="M 1673.09 1451.94 L 1674.39 1453.2 L 1673.07 1454.73 L 1670.7 1453.55 L 1673.09 1451.94 z"/>
<path transform="translate(0,0)" fill="rgb(185,217,198)" d="M 356.897 634.074 C 371.174 633.916 385.724 634.095 400.024 634.129 L 400.121 1157.97 L 400.196 1305.29 L 400.277 1350.73 C 400.286 1359.24 400.425 1368.33 399.799 1376.81 C 399.49 1380.98 396.006 1384.46 393.274 1387.69 C 376.824 1398.99 357.428 1391.58 356.932 1370.82 C 356.285 1343.76 356.615 1316.6 356.631 1289.53 L 356.498 1132.18 L 356.897 634.074 z"/>
<path transform="translate(0,0)" fill="rgb(247,245,238)" d="M 1503.19 909.236 C 1534.95 936.981 1555.66 935.358 1591.15 953.482 C 1605.4 960.753 1618.52 972.082 1631.64 980.799 C 1646.72 990.821 1670.63 1002.92 1688.12 1008.89 L 1688.31 1076.32 C 1667.07 1064.09 1655.5 1056.14 1635.51 1041.72 L 1634.52 1041.19 L 1633.04 1042.76 L 1633.84 1043.19 C 1654.55 1058.35 1666.21 1066.07 1688.29 1079.05 L 1688.32 1139.34 C 1671.12 1132.32 1653.15 1125.59 1637.47 1115.59 C 1623.64 1106.76 1610.39 1094.51 1595.91 1086.95 C 1574.35 1075.68 1551.62 1071.91 1530.17 1059.73 C 1512.32 1049.6 1497.6 1034.66 1479.66 1025.47 C 1465.65 1018.29 1448.65 1013.81 1433.67 1008.32 C 1411.84 1000.34 1396.91 989.025 1379.37 974.211 C 1396.41 964.334 1417.53 953.452 1435.56 945.028 C 1438.64 943.589 1439.89 944.874 1442.39 946.198 C 1442.37 945.441 1442.36 944.683 1442.34 943.926 L 1441.72 941.703 C 1446.9 937.956 1457.78 932.708 1463.81 929.578 L 1503.19 909.236 z"/>
<path transform="translate(0,0)" fill="rgb(247,245,238)" d="M 1503.19 909.236 C 1534.95 936.981 1555.66 935.358 1591.15 953.482 C 1605.4 960.753 1618.52 972.082 1631.64 980.799 C 1646.72 990.821 1670.63 1002.92 1688.12 1008.89 L 1688.31 1076.32 C 1667.07 1064.09 1655.5 1056.14 1635.51 1041.72 L 1634.52 1041.19 L 1632.78 1039.97 L 1630.81 1041.32 L 1630.06 1040.77 C 1606.69 1025.28 1581.1 1022.01 1554.8 1007.41 L 1552.86 1006.25 L 1552.04 1005.75 C 1537.55 996.907 1525.44 986.078 1510.98 977.017 C 1489.12 964.592 1470.05 962.462 1446.95 949.788 C 1444.85 948.423 1443.96 948.062 1442.39 946.198 C 1442.37 945.441 1442.36 944.683 1442.34 943.926 L 1441.72 941.703 C 1446.9 937.956 1457.78 932.708 1463.81 929.578 L 1503.19 909.236 z"/>
<path transform="translate(0,0)" fill="rgb(30,42,43)" d="M 1448.79 948.207 C 1469.57 960.117 1489.07 962.516 1511.47 974.744 C 1526.01 983.474 1539.04 994.896 1553.54 1004.22 L 1554.81 1004.94 L 1556.41 1005.95 C 1579.85 1017.89 1613.58 1026.25 1631.53 1039.21 L 1632.78 1039.97 L 1630.81 1041.32 L 1630.06 1040.77 C 1606.69 1025.28 1581.1 1022.01 1554.8 1007.41 L 1552.86 1006.25 L 1552.04 1005.75 C 1537.55 996.907 1525.44 986.078 1510.98 977.017 C 1489.12 964.592 1470.05 962.462 1446.95 949.788 L 1448.79 948.207 z"/>
<path transform="translate(0,0)" fill="rgb(31,95,91)" d="M 1442.34 943.926 C 1444.94 945.256 1446.42 946.536 1448.79 948.207 L 1446.95 949.788 C 1444.85 948.423 1443.96 948.062 1442.39 946.198 C 1442.37 945.441 1442.36 944.683 1442.34 943.926 z"/>
<path transform="translate(0,0)" fill="rgb(31,95,91)" d="M 1632.78 1039.97 L 1634.52 1041.19 L 1633.04 1042.76 C 1632.29 1042.28 1631.55 1041.8 1630.81 1041.32 L 1632.78 1039.97 z"/>
<path transform="translate(0,0)" fill="rgb(185,217,198)" d="M 1139 995.474 C 1145.99 1000.13 1169.66 1023.3 1176.22 1029.61 L 1176.46 1575.36 L 1176.25 1731.48 C 1176.24 1745.9 1177.88 1812.74 1173.37 1822.37 C 1158.08 1837.88 1140.01 1828.27 1138.88 1807.7 C 1138.42 1799.29 1138.94 1790.27 1138.96 1781.77 L 1138.96 1727.89 L 1138.89 1552.11 L 1139 995.474 z"/>
<path transform="translate(0,0)" fill="rgb(185,217,198)" d="M 563.338 633.88 C 591.917 634.277 620.499 634.394 649.081 634.231 C 693.978 634.265 737 631.392 772.862 663.574 C 782.197 671.951 791.458 680.409 800.715 688.871 L 857.261 740.023 L 975.945 847.94 C 995.982 866.086 1016.49 883.466 1036.22 901.963 C 994.881 884.181 951.601 858.956 911.743 837.896 C 832.284 796.227 753.136 753.968 674.305 711.124 C 643.701 694.515 613.013 678.063 582.24 661.769 C 573.324 657.054 538.727 639.368 532.16 634.117 C 542.542 634.146 552.967 634.271 563.338 633.88 z"/>
<path transform="translate(0,0)" fill="rgb(247,245,238)" d="M 894.348 831.209 L 920.19 845.045 L 920.256 867.05 C 893.224 894.997 857.96 894.294 825.774 911.669 C 808.786 920.839 790.292 940.618 773.01 948.018 C 742.794 960.955 718.043 958.621 691.522 980.91 C 683.628 978.197 675.702 975.578 667.746 973.052 L 668.31 974.957 C 670.165 979.599 671.91 983.311 674.258 987.76 L 672.675 989.317 L 672.516 991.473 L 670.781 992.407 L 670.018 991.763 C 668.141 990.625 668.059 990.328 665.999 990.059 L 666.942 999.891 C 637.764 1028.32 611.251 1026.36 576.471 1041.98 C 555.752 1051.28 539.077 1070.27 519.6 1081.6 C 500.016 1092.99 478.152 1097.34 457.105 1105.07 C 435.664 1112.94 419.867 1126.33 402.507 1140.64 L 402.656 1082.41 C 420.792 1068.91 434.793 1054.23 456.709 1045.66 C 477.097 1037.7 499.837 1033.91 518.975 1023.14 C 541.389 1010.53 555.262 993.146 579.621 982.568 C 602.071 972.818 626.469 968.533 647.965 957.85 C 667.968 947.909 681.947 930.078 703.241 920.459 C 726.653 909.883 751.836 907.837 774.538 896.317 C 791.735 887.591 807.97 869.221 825.294 860.273 C 849.781 847.624 870.571 846.818 894.348 831.209 z"/>
<path transform="translate(0,0)" fill="rgb(3,2,1)" d="M 665.999 990.059 C 666.17 984.466 662.824 973.298 667.746 973.052 L 668.31 974.957 C 670.165 979.599 671.91 983.311 674.258 987.76 L 672.675 989.317 L 672.516 991.473 L 670.781 992.407 L 670.018 991.763 C 668.141 990.625 668.059 990.328 665.999 990.059 z"/>
<path transform="translate(0,0)" fill="rgb(247,245,238)" d="M 1179.02 1071.29 C 1215.65 1085.73 1225.41 1085 1258.9 1109.22 C 1275.05 1121.2 1287.83 1130.61 1307.05 1137.82 C 1322.23 1143.52 1338.92 1147.66 1353.24 1155.02 C 1369.27 1163.25 1385.24 1176.25 1399.7 1187.3 C 1427.03 1204.05 1439.66 1206.16 1469.05 1215.93 C 1484.67 1221.12 1517.29 1241.8 1529.76 1253.57 L 1531.93 1251.75 L 1533.47 1253.26 L 1534.78 1253.97 L 1536.52 1255.14 C 1536.99 1255.38 1537.46 1255.63 1537.93 1255.87 C 1568.48 1274.22 1590.36 1274.51 1622.97 1293.03 C 1632.01 1298.36 1651.74 1312.23 1661.01 1318.85 L 1659.5 1320.37 C 1668.77 1325.97 1678.78 1331.35 1688.27 1336.64 L 1688.23 1393.45 C 1673.81 1387.68 1655.37 1379.67 1642.48 1371.56 C 1628.42 1362.72 1616.51 1353.09 1601.64 1345 L 1604.06 1335.57 C 1562.4 1315.49 1520.39 1291.33 1476.9 1275.29 C 1469.68 1272.63 1456.38 1272.25 1448.42 1271.87 C 1435.94 1263.65 1420.91 1249.89 1408.39 1243.27 C 1387.96 1232.45 1364.07 1225.4 1342.58 1215.54 L 1341.93 1215.22 L 1339.49 1216.64 C 1336.15 1214.38 1330.14 1211.31 1326.4 1209.28 C 1325.85 1208.81 1325.88 1208.78 1325.21 1208.52 C 1318.17 1203.58 1311.91 1198.76 1305.01 1193.81 C 1298.2 1188.75 1279.7 1176.25 1274.73 1171.72 L 1275.66 1170.91 L 1275.13 1168.5 C 1276.41 1166.49 1279.53 1162.05 1278.15 1160.02 C 1272.6 1151.82 1250.66 1137.43 1241.94 1134.09 C 1238.63 1137.99 1235.3 1141.85 1231.93 1145.7 C 1223.6 1142.24 1221.29 1140.8 1213.43 1135.93 C 1212.63 1114.76 1198.86 1106.49 1178.99 1104.67 L 1179.02 1071.29 z"/>
<path transform="translate(0,0)" fill="rgb(30,42,43)" d="M 1536.52 1255.14 C 1536.99 1255.38 1537.46 1255.63 1537.93 1255.87 C 1568.48 1274.22 1590.36 1274.51 1622.97 1293.03 L 1620.73 1294.3 C 1608.77 1286.61 1593.94 1280.71 1580.26 1276.94 C 1564.17 1272.5 1550.9 1266.1 1536.66 1257.75 L 1535 1256.79 L 1536.52 1255.14 z"/>
<path transform="translate(0,0)" fill="rgb(31,95,91)" d="M 1622.97 1293.03 C 1632.01 1298.36 1651.74 1312.23 1661.01 1318.85 L 1659.5 1320.37 C 1646.66 1312.58 1633.4 1302.8 1620.73 1294.3 L 1622.97 1293.03 z"/>
<path transform="translate(0,0)" fill="rgb(30,42,43)" d="M 1306.51 1192.19 C 1319.96 1202.48 1327.13 1207.07 1341.93 1215.22 L 1339.49 1216.64 C 1336.15 1214.38 1330.14 1211.31 1326.4 1209.28 C 1325.85 1208.81 1325.88 1208.78 1325.21 1208.52 C 1318.17 1203.58 1311.91 1198.76 1305.01 1193.81 L 1306.51 1192.19 z"/>
<path transform="translate(0,0)" fill="rgb(31,95,91)" d="M 1275.66 1170.91 C 1281.1 1173.05 1301.17 1188.05 1306.51 1192.19 L 1305.01 1193.81 C 1298.2 1188.75 1279.7 1176.25 1274.73 1171.72 L 1275.66 1170.91 z"/>
<path transform="translate(0,0)" fill="rgb(31,95,91)" d="M 1533.47 1253.26 L 1534.78 1253.97 L 1536.52 1255.14 L 1535 1256.79 L 1532.83 1255.33 L 1532.06 1254.73 L 1533.47 1253.26 z"/>
<path transform="translate(0,0)" fill="rgb(31,95,91)" d="M 1531.93 1251.75 L 1533.47 1253.26 L 1532.06 1254.73 L 1529.76 1253.57 L 1531.93 1251.75 z"/>
<path transform="translate(0,0)" fill="rgb(247,245,238)" d="M 1179.08 1424.6 C 1213.03 1431.27 1255.1 1437 1289.44 1442.09 C 1339.59 1449.72 1389.79 1456.95 1440.05 1463.78 C 1428.02 1483.81 1409.02 1510.28 1395.48 1530.15 C 1385.35 1544.49 1375.47 1559.01 1365.85 1573.7 C 1322.14 1569.4 1278.8 1561.91 1236.18 1551.29 C 1217.55 1546.75 1197.11 1540.21 1179.01 1536.24 L 1179.08 1424.6 z"/>
<path transform="translate(0,0)" fill="rgb(247,245,238)" d="M 828.612 796.961 C 844.377 803.548 875.84 821.667 892.259 830.482 C 883.302 835.39 875.472 839.411 865.743 842.524 C 851.361 847.127 837.466 851.57 824.058 858.658 C 804.095 869.213 789.391 887.526 768.712 896.679 C 745.636 906.833 722.377 908.622 699.955 919.69 C 682.106 928.501 669.302 942.82 652.351 952.771 C 627.053 967.622 598.785 970.19 572.857 983.372 C 551.378 994.292 536.144 1011.68 514.916 1022.8 C 496.929 1032.23 478.038 1035.48 459.237 1042.24 C 437.179 1050.17 420.432 1066.14 402.106 1079.76 C 402.852 1061.03 402.598 1041.59 402.595 1022.79 C 418.048 1012.08 438.772 993.129 454.838 986.261 C 479.137 975.873 495.868 973.797 520.833 961.567 C 521.486 960.928 521.326 960.998 522.159 960.709 L 523.331 960.031 C 542.221 948.9 555.031 933.029 575.346 923.719 C 599.248 912.765 624.598 911.307 647.685 898.593 C 668.557 887.098 681.647 869.971 703.783 859.823 C 727.128 849.12 750.573 848.549 773.083 836.241 C 793.439 825.111 808.698 808.764 828.612 796.961 z"/>
<path transform="translate(0,0)" fill="rgb(247,245,238)" d="M 841.641 1320.96 C 856.154 1307.91 873.492 1292.82 886.722 1278.83 C 891.811 1282.84 894.643 1285.16 900.269 1288.4 C 902.75 1286.59 905.497 1284.69 907.803 1282.69 C 934.969 1301.1 961.786 1320.09 989.626 1337.45 C 1036.63 1366.81 1085.71 1392.7 1136.47 1414.93 L 1136.49 1517.41 C 1106.96 1505.63 1077.5 1487.84 1049.75 1472.44 C 1044.98 1469.79 1040.3 1466.76 1035.41 1464.37 L 1033.36 1463.02 L 1032.04 1462.29 C 1007 1446.62 982.268 1430.46 957.858 1413.83 C 925.158 1391.21 869.241 1349.53 841.641 1320.96 z"/>
<path transform="translate(0,0)" fill="rgb(247,245,238)" d="M 444.153 925.707 C 471.66 911.712 492.803 911.073 519.191 898.381 C 540.912 887.934 557.975 866.313 581.403 856.715 C 603.433 847.689 621.874 846.638 643.585 836.094 C 664.912 825.737 685.266 803.673 705.161 794.56 C 730.121 783.127 748.807 782.126 774.739 767.894 C 792.244 776.824 809.607 786.031 826.821 795.511 C 806.125 808.837 785.815 828.741 764.643 838.08 C 743.787 847.28 719.498 848.876 698.168 860.245 C 677.924 871.035 665.302 886.885 645.385 897.456 C 622.647 909.524 598.094 911.145 574.878 921.622 C 554.598 930.775 539.893 948.279 521.061 959.037 C 499.801 971.183 475.671 974.201 453.394 984.454 C 433.867 993.44 418.979 1009.86 402.215 1020.35 C 402.923 999.086 402.677 977.094 402.7 955.767 C 416.883 946.368 428.272 935.645 442.813 926.518 C 443.437 926.001 443.408 926.01 444.153 925.707 z"/>
<path transform="translate(0,0)" fill="rgb(247,245,238)" d="M 1575.25 1425.76 C 1577.57 1419.68 1579.76 1413.01 1581.93 1406.83 C 1599.08 1412.13 1624.99 1419.67 1638.5 1431.55 L 1641.05 1430.05 L 1642.42 1431.05 L 1641.94 1432.81 L 1642.96 1434.98 C 1630.48 1446.16 1614.18 1459.31 1598.46 1464.84 C 1583.34 1470.16 1568.57 1473.58 1554.23 1481.22 C 1537.69 1490.03 1524.88 1503.38 1509.18 1513.32 C 1485.65 1524.89 1466.49 1525.93 1443.62 1536.47 C 1428.1 1543.63 1413.69 1560.72 1397.58 1568.2 C 1378.45 1577.09 1362.97 1577.87 1343.2 1587.36 C 1321.65 1597.7 1309.34 1613.14 1290.22 1623.93 C 1273.01 1633.63 1247.3 1637.45 1228.14 1646.28 C 1208.46 1655.36 1196 1668.86 1178.87 1678.86 L 1178.93 1614.41 C 1219.24 1606.42 1236.44 1575.76 1272.49 1563.25 C 1278.04 1561.33 1311.26 1570.07 1319.3 1570.38 C 1334.36 1572.53 1350.15 1574.47 1365.35 1576.28 C 1366.35 1576.14 1366.39 1576.09 1367.35 1576.16 C 1372.39 1566.79 1381.58 1554.25 1387.89 1545.07 C 1399.1 1528.55 1410.52 1512.16 1422.15 1495.93 C 1452.11 1486.33 1459.38 1471.46 1484.06 1457.58 C 1502.63 1447.13 1525.04 1445.06 1546.86 1433.6 C 1547.5 1432.98 1547.36 1433.06 1548.17 1432.74 C 1555.3 1428.82 1560.04 1424.61 1566.26 1419.41 L 1575.25 1425.76 z"/>
<path transform="translate(0,0)" fill="rgb(31,95,91)" d="M 1641.05 1430.05 L 1642.42 1431.05 L 1641.94 1432.81 C 1640.77 1432.4 1639.65 1432.02 1638.5 1431.55 L 1641.05 1430.05 z"/>
<path transform="translate(0,0)" fill="rgb(247,245,238)" d="M 1377.22 975.434 C 1396.78 991.006 1410.75 1002.57 1434.82 1010.98 C 1449.25 1016.02 1467.35 1021.04 1480.42 1028.24 C 1496.71 1037.22 1510.79 1050.73 1527.15 1060.49 C 1549.01 1073.53 1571.71 1077 1593.84 1088.3 C 1609.49 1096.3 1623.33 1109.28 1638.31 1118.71 C 1654.19 1128.7 1671.69 1134.16 1688.25 1141.91 C 1688.25 1163.55 1688.47 1185.71 1688.2 1207.31 C 1653.62 1192.65 1636.68 1178.68 1606.42 1158.65 C 1588.65 1146.89 1556.35 1139.29 1535.24 1128.49 C 1517.69 1117.62 1498.74 1101.14 1480.69 1092.43 C 1455.75 1080.39 1434.73 1075.91 1409.92 1061.79 C 1390.67 1048.14 1377.04 1036.09 1354.98 1025.83 C 1340.26 1018.99 1326.06 1015.48 1311.87 1009.52 C 1330.21 998.855 1357.69 985.088 1377.22 975.434 z"/>
<path transform="translate(0,0)" fill="rgb(247,245,238)" d="M 716.982 1154.87 C 719.77 1157.09 742.483 1198.66 746.243 1205.33 C 730.594 1220.6 709.061 1235.59 687.969 1241.57 C 670.726 1246.45 654.08 1250.29 638.011 1258.58 C 619.561 1268.09 605.649 1283.48 587.878 1293.94 C 568.22 1305.11 543.636 1308.01 522.823 1317.78 C 500.934 1328.06 486.578 1344.35 466.369 1356.72 C 452.495 1365.21 437.396 1366.91 422.874 1373.01 C 422.611 1373.14 422.348 1373.27 422.086 1373.4 C 419.11 1377.45 417.816 1380.55 415.655 1385.04 C 410.374 1382.89 407.334 1381.1 402.465 1378.31 C 403.302 1360.61 402.833 1339.82 402.862 1321.9 C 437.038 1309.53 450.925 1294.55 480.735 1276.27 C 494.959 1267.56 521.679 1263.47 538.254 1255.62 C 560.682 1244.99 574.286 1228.96 595.713 1217.29 C 617.333 1205.83 639.929 1203.96 660.999 1193.15 C 682.557 1182.1 694.189 1166.03 716.982 1154.87 z"/>
<path transform="translate(0,0)" fill="rgb(247,245,238)" d="M 528.16 830.72 C 540.625 823.078 551.213 813.164 562.856 804.398 C 588.201 785.317 621.393 786.374 648.44 770.914 C 669.2 759.047 684.519 742.004 705.847 730.733 C 728.051 742.338 750.068 754.299 771.888 766.613 C 762.533 771.457 754.811 775.179 744.774 778.394 C 731.32 782.702 717.01 786.309 704.347 792.558 C 682.717 803.233 666.107 822.293 644.585 833.243 C 621.046 845.041 600.889 845.591 577.52 856.241 C 556.45 865.843 541.131 884.06 521.293 894.938 C 499.098 907.107 474.375 909.387 450.95 919.835 C 431.18 928.653 419.395 942.831 402.51 952.952 C 402.513 933.843 403.017 912.341 402.4 893.432 C 420.101 881.081 438.55 864.297 457.98 856.331 C 483.081 846.039 502.483 845.703 526.829 831.556 C 527.489 830.938 527.332 831.007 528.16 830.72 z"/>
<path transform="translate(0,0)" fill="rgb(247,245,238)" d="M 747.111 1207.92 C 751.616 1211.91 773.983 1245.81 779.293 1253.18 C 748.279 1284.5 722.469 1281.07 684.901 1298.69 C 668.401 1306.43 652.741 1324.53 636.124 1332.5 C 611.724 1344.21 585.178 1347.38 561.675 1362.24 C 545.953 1372.18 533.735 1386.07 516.706 1394.1 C 500.041 1401.96 484.66 1398.57 475.269 1415.15 L 474.54 1416.46 C 471.692 1418.11 472.672 1417.61 468.447 1416.69 C 431.328 1396.54 455.214 1396.95 432.47 1371.99 C 446.268 1368.6 463.144 1362.29 474.665 1353.97 C 491.279 1341.97 505.222 1328.23 524.159 1319.6 C 544.297 1310.41 568.467 1307.38 587.597 1296.46 C 608.384 1284.6 621.791 1267.88 644.568 1257.71 C 665.996 1248.15 689.269 1246 709.665 1235.26 C 721.317 1229.12 736.895 1216.6 747.111 1207.92 z"/>
<path transform="translate(0,0)" fill="rgb(232,115,90)" d="M 879.23 1256.12 L 891.153 1268.49 C 880.56 1283.57 868.399 1293.11 855.136 1305.59 C 792.87 1364.17 727.804 1419.53 664.221 1476.66 C 659.727 1480.69 650.305 1488.15 647.737 1493.38 C 651.504 1492.58 723.633 1427.61 732.357 1419.43 C 721.68 1477.29 711.725 1478.61 667.26 1515.29 C 646.335 1532.55 621.259 1553.47 600.911 1571.47 C 585.426 1546.02 572.623 1517.25 556.958 1492.2 C 581.694 1473.05 606.846 1454.44 632.397 1436.39 C 668.611 1410.51 674.909 1402.83 720.02 1398.71 C 708.938 1408.67 636.448 1470.27 633.518 1476.34 L 634.2 1476.68 C 635.975 1475.21 637.92 1473.69 639.603 1472.15 C 639.972 1471.28 640.292 1471.14 641.167 1470.79 C 703.25 1418.13 764.215 1364.17 824.022 1308.94 C 838.462 1295.53 868.857 1269.94 879.23 1256.12 z"/>
<path transform="translate(0,0)" fill="rgb(247,245,238)" d="M 493.205 1404.29 C 502.123 1401.76 512.655 1398.84 520.77 1394.24 C 539.646 1383.54 551.873 1369.45 571.685 1359.07 C 593.913 1347.01 620.306 1344.57 642.025 1331.66 C 656.239 1323.67 669.697 1308.06 684.25 1301.33 C 721.541 1284.09 749.814 1285.28 780.712 1254.82 L 789.523 1266.1 C 790.147 1266.36 790.1 1266.59 790.419 1267.29 C 795.937 1273.84 801.553 1280.7 807.386 1286.93 C 808.074 1287.44 807.963 1287.3 808.371 1288.05 C 811.256 1291.69 815.837 1296.34 819.088 1299.84 C 787.869 1319.7 770.431 1319.29 737.794 1333.99 C 723.451 1340.45 707.996 1358.02 693.619 1366.19 C 672.97 1377.91 650.273 1380.98 628.942 1390.78 C 610.819 1399.11 597.052 1414.58 579.955 1424.55 C 568.015 1431.51 553.712 1433.25 541.492 1438.94 C 538.376 1440.39 534.879 1447.23 533.083 1450.49 C 523.013 1446.39 514.614 1442.3 506.435 1435.11 C 501.815 1418.64 504.825 1419.24 493.205 1404.29 z"/>
<path transform="translate(0,0)" fill="rgb(232,115,90)" d="M 1266.68 1175.74 C 1289.5 1193.73 1517.11 1337.32 1527.58 1339.38 C 1522.47 1333.58 1494.37 1317.65 1485.64 1312.36 C 1465.63 1300.25 1445.68 1288.04 1425.8 1275.72 C 1442.32 1273.04 1470.73 1274.07 1485.98 1281 C 1524.29 1298.4 1564.36 1317.15 1601.22 1337.29 C 1594.95 1357.68 1588.56 1378.03 1582.03 1398.34 C 1579.28 1405.79 1576.71 1414.12 1574.19 1421.71 C 1565.81 1416.14 1550.36 1408.49 1541.26 1403.55 C 1516.38 1390.04 1491.03 1377.12 1466.36 1363.22 C 1439.3 1347.97 1427.93 1329.85 1420.13 1300.08 C 1433.61 1307.05 1506.8 1355.83 1513.78 1356.79 C 1509.65 1350.62 1436.86 1307.24 1424.82 1299.72 L 1253.4 1190.74 C 1257.91 1185.81 1262.34 1180.81 1266.68 1175.74 z"/>
<path transform="translate(0,0)" fill="rgb(247,245,238)" d="M 695.571 1104.79 C 698.726 1108.29 713.047 1144.27 716.987 1152.63 C 695.891 1161.37 682.27 1179.87 662.608 1190.02 C 639.549 1201.92 616.602 1203.53 592.859 1216.36 C 573.343 1226.91 560.092 1242.39 541.297 1252 C 521.211 1262.27 494.372 1265.41 474.597 1277.2 C 453.964 1289.5 442.266 1302.85 419.626 1312.96 C 414.238 1315.35 408.302 1317.41 402.746 1319.46 L 402.861 1267.19 C 421.092 1254.79 436.499 1238.25 456.941 1228.84 C 477.485 1219.4 501.126 1216.31 521.214 1205.9 C 539.507 1196.41 552.587 1180.52 570.963 1169.94 C 594.97 1156.13 619.463 1153.53 643.791 1142.01 C 661.512 1133.61 677.58 1116.93 694.133 1105.75 L 695.571 1104.79 z"/>
<path transform="translate(0,0)" fill="rgb(247,245,238)" d="M 645.663 698.692 C 650.479 700.056 696.363 725.637 702.98 729.363 C 681.149 742.801 661.8 762.523 640.744 772.475 C 617.997 783.227 593.98 783.617 570.111 797.365 C 552.676 807.408 534.793 826.745 518.4 833.864 C 485.759 848.04 468.385 845.473 435.971 865.973 C 424.851 873.649 412.959 883.142 402.187 891.405 L 402.345 830.114 C 418.305 819.383 434.927 804.607 451.843 796.081 C 473.295 785.269 498.454 782.385 519.697 769.99 C 536.662 760.091 549.532 745.667 566.968 736.733 C 583.988 728.051 602.904 725.066 619.962 716.798 C 629.528 712.161 637.466 705.381 645.663 698.692 z"/>
<path transform="translate(0,0)" fill="rgb(247,245,238)" d="M 1179.02 1205.55 C 1264.79 1262.94 1330.25 1328.88 1392.13 1410.27 C 1389.47 1411.38 1385.84 1412.57 1383.05 1413.57 C 1374.72 1416.92 1360.62 1419.98 1354.2 1423.62 C 1345.73 1422.06 1336.72 1420.92 1328.06 1419.41 C 1317.19 1408.92 1302.13 1396.26 1290.57 1386.17 C 1254.8 1354.64 1217.55 1324.82 1178.95 1296.81 C 1178.63 1266.39 1178.66 1235.97 1179.02 1205.55 z"/>
<path transform="translate(0,0)" fill="rgb(247,245,238)" d="M 679.162 1054.79 C 680.966 1055.81 693.465 1097.22 695.457 1102.48 C 677.267 1113.57 663.759 1129.89 643.988 1139.54 C 619.062 1151.71 593.798 1154.12 569.367 1168.37 C 552.287 1178.33 539.388 1193.54 522.461 1202.81 C 505.852 1211.9 486.685 1215.91 468.802 1221.85 C 446.852 1229.13 431.976 1241.71 414.216 1255.86 C 410.753 1258.66 406.183 1261.65 402.458 1264.23 C 401.746 1245.35 402.347 1224.8 402.555 1205.78 C 421.619 1189.08 439.449 1173.85 463.902 1165.84 C 483.949 1159.28 502.344 1155.21 520.908 1144.69 C 540.226 1133.84 555.266 1116.03 575.437 1106.52 C 600.542 1094.69 628.778 1092.34 652.252 1076.77 C 662.21 1070.16 670.277 1062.73 679.162 1054.79 z"/>
<path transform="translate(0,0)" fill="rgb(247,245,238)" d="M 667.679 1002.84 C 671.43 1018.95 675.129 1035.55 679.555 1051.44 C 669.469 1060.52 659.171 1070.16 647.514 1077.16 C 624.686 1090.85 598.022 1093.4 573.964 1104.93 C 553.089 1114.93 538.879 1132.07 519.031 1143.18 C 501.94 1152.74 483.039 1157.3 464.426 1163.37 C 437.624 1172.09 423.954 1184.94 402.492 1202.53 L 402.74 1143.92 C 414.028 1133.48 426.63 1123.49 439.84 1115.58 C 440.455 1115.06 440.444 1115.07 441.176 1114.75 C 466.583 1101.51 489.709 1099.26 515.206 1086.43 C 536.057 1075.93 556.274 1053.38 576.541 1044.28 C 613.914 1027.51 634.791 1031.47 667.679 1002.84 z"/>
<path transform="translate(0,0)" fill="rgb(247,245,238)" d="M 698.642 1512.99 C 739.185 1504.52 743.452 1489.2 776.507 1469.8 C 792.357 1460.5 819.997 1455.43 837.456 1446.14 C 853.374 1437.68 864.32 1426.09 879.376 1416.27 C 895.373 1405.84 912.023 1403.67 928.822 1397.24 L 929.825 1396.85 L 955.822 1415.26 C 963.92 1420.8 972.164 1426.58 980.375 1431.91 C 974.326 1434.34 968.404 1436.77 962.529 1439.61 C 941.381 1449.84 924.782 1466.04 904.821 1478.29 C 884.454 1488.38 863.441 1490.82 843.963 1500.15 C 815.824 1513.63 798.805 1539.83 765.927 1545.28 C 753.248 1547.38 749.179 1552.54 743.38 1563.42 C 732.862 1560.13 722.036 1554.2 713.917 1546.69 C 707.922 1529.69 713.231 1526.4 698.642 1512.99 z"/>
<path transform="translate(0,0)" fill="rgb(247,245,238)" d="M 1584.14 1535.68 C 1622.1 1517.68 1654.07 1520.69 1688 1487.61 L 1688.06 1522.02 C 1659.91 1541.45 1637.83 1541.81 1607.69 1554.95 C 1587.32 1563.83 1571.46 1583.16 1551.92 1593.47 C 1528.71 1605.73 1503.72 1608.92 1480.21 1620.46 C 1459.81 1630.48 1446.03 1647.08 1426.67 1657.75 C 1402.83 1670.89 1377.72 1673.72 1353.38 1686.53 C 1334.67 1696.37 1320.65 1711.95 1303.18 1721.55 C 1281.87 1733.26 1254.68 1737.48 1232.25 1748.65 C 1210.93 1759.27 1199.71 1773.99 1178.85 1784.35 L 1178.77 1750.77 C 1189.78 1741.87 1197.99 1734.81 1210.89 1728.55 C 1232.79 1717.92 1257.22 1715.66 1278.49 1703.74 C 1296.2 1693.81 1309.45 1677.98 1327.72 1668.21 C 1348.86 1656.92 1372.28 1654.4 1393.31 1643.74 C 1414.62 1632.93 1428.75 1615.9 1449.88 1604 C 1473.21 1590.85 1496.07 1590.78 1519.97 1579.49 C 1543.16 1568.52 1561.01 1548.9 1582.79 1536.49 C 1583.47 1535.92 1583.33 1535.97 1584.14 1535.68 z"/>
<path transform="translate(0,0)" fill="rgb(247,245,238)" d="M 1100 1503.37 C 1104.86 1504.5 1129.39 1517.1 1136.47 1520.42 C 1136.31 1528.58 1136.38 1536.99 1136.34 1545.17 C 1113.11 1554.49 1101.45 1569.27 1080.68 1581.74 C 1059.78 1593.98 1034.96 1595.66 1013.52 1606.8 C 998.071 1614.79 985.901 1627.2 971.167 1636.42 C 957.715 1644.84 945.891 1647.94 930.541 1651.04 C 926.016 1655.14 923.731 1659.06 920.311 1664.08 L 918.554 1664.33 C 879.483 1648.93 900.46 1641.02 878.903 1615.78 C 917.241 1604.42 920.188 1593.53 952.506 1572.99 C 970.365 1561.64 999.585 1558.82 1016.68 1549.68 C 1050.6 1531.55 1058.48 1511.14 1100 1503.37 z"/>
<path transform="translate(0,0)" fill="rgb(247,245,238)" d="M 955.474 1106.21 C 1014.04 1133.03 1079.72 1164.46 1136.26 1195.67 L 1136.12 1277.44 L 1129.07 1273.82 L 1031.44 1226.05 C 1018.82 1219.81 989.715 1206.12 979.386 1199.21 C 986.784 1183.97 975.075 1177.35 962.186 1173.27 C 957.82 1174.48 952.234 1175.41 947.703 1176.3 C 950.563 1153.1 952.24 1129.12 955.474 1106.21 z"/>
<path transform="translate(0,0)" fill="rgb(247,245,238)" d="M 982.829 1433.66 C 995.514 1440.87 1017.43 1455.29 1029.62 1463.6 L 1032.04 1462.29 L 1033.36 1463.02 L 1031.95 1464.87 L 1034.84 1466.74 C 1032.82 1469.29 1023.35 1472.76 1019.92 1473.97 C 998.372 1481.63 984.002 1499.59 964.521 1510.67 C 944.258 1522.2 920.632 1525.04 899.748 1534.75 C 876.439 1545.6 857.704 1569.05 832.534 1576.96 C 815.251 1582.39 810.611 1577.21 803.071 1596.48 C 791.599 1592.15 783.398 1588.34 774.763 1579.27 C 773.155 1573.77 771.317 1562.93 768.361 1559.47 L 766.859 1559.89 C 764.414 1557.17 762.936 1555.64 760.989 1552.5 L 761.878 1551.55 C 761.65 1550.45 761.741 1551.19 762 1549.3 C 766.93 1547.49 772.277 1546.12 777.338 1544.51 C 807.046 1535.07 824.998 1507.21 854.835 1497.95 C 873.52 1492.15 889.712 1488.02 907.44 1479.45 C 937.66 1460.22 946.041 1446.06 982.829 1433.66 z"/>
<path transform="translate(0,0)" fill="rgb(31,95,91)" d="M 761.878 1551.55 C 764.619 1554.24 766.04 1556.47 768.361 1559.47 L 766.859 1559.89 C 764.414 1557.17 762.936 1555.64 760.989 1552.5 L 761.878 1551.55 z"/>
<path transform="translate(0,0)" fill="rgb(31,95,91)" d="M 1032.04 1462.29 L 1033.36 1463.02 L 1031.95 1464.87 C 1031.18 1464.44 1030.4 1464.01 1029.62 1463.6 L 1032.04 1462.29 z"/>
<path transform="translate(0,0)" fill="rgb(247,245,238)" d="M 1038.3 1468.98 C 1045.18 1470.66 1087.27 1496.14 1097.84 1501.4 C 1054.96 1512.95 1054.86 1524.33 1019.13 1545.95 C 999.34 1556.58 976.962 1558.42 956.709 1568.37 C 939.143 1577.11 925.674 1591.01 909.025 1601.44 C 895.869 1609.68 882.823 1610.33 869.744 1615.58 C 866.225 1619.87 863.484 1623.96 860.354 1628.51 C 817.982 1611.1 842.213 1610.61 819.743 1582.07 C 858.03 1573.49 862.952 1559.24 894.519 1539.99 C 915.046 1528.45 938.66 1526.01 959.726 1515.48 C 975.611 1507.54 987.926 1495.99 1002.35 1485.88 C 1013.65 1477.95 1025.44 1473.58 1038.3 1468.98 z"/>
<path transform="translate(0,0)" fill="rgb(247,245,238)" d="M 670.018 991.763 L 670.781 992.407 C 700.753 1054.35 738.399 1112.29 782.833 1164.83 C 792.046 1175.8 805.098 1191.33 815.509 1201.06 C 816.14 1201.34 816.126 1201.57 816.499 1202.23 C 822.274 1208.2 827.865 1214.03 833.93 1219.72 C 835.048 1219.92 835.066 1220 835.312 1221.06 C 843.644 1229.72 853.67 1237.86 861.649 1246.54 C 868.269 1253.75 857.693 1253.59 868.473 1265.4 C 854.057 1277.95 839.9 1290.33 826.257 1303.74 C 801.306 1279.52 771.008 1240.1 752.597 1211.18 C 717.146 1155.5 691.584 1095.93 676.8 1031.61 C 674.514 1021.67 667.905 1001.43 670.018 991.763 z"/>
<path transform="translate(0,0)" fill="rgb(185,217,198)" d="M 977.754 1201.94 C 989.98 1206.68 1023 1224.65 1036.57 1231.28 C 1058.93 1242.05 1081.23 1252.97 1103.46 1264.02 C 1112.14 1268.31 1127.4 1275.06 1134.93 1280.14 C 1135.77 1282.83 1135.33 1286.2 1135.2 1289.11 C 1131.05 1294.03 1079.91 1311.02 1070.14 1314.43 C 1059.09 1317.69 1044.66 1323.53 1034.01 1327.91 C 1016.58 1318.74 942.213 1274.02 932.182 1260.8 C 934.955 1252.18 936.259 1250.77 929.733 1243.95 L 928.853 1243.04 C 944.612 1226.47 960.016 1215.96 977.754 1201.94 z"/>
<path transform="translate(0,0)" fill="rgb(247,245,238)" d="M 757.906 1028.05 C 770.352 1032.22 786.059 1038.74 798.997 1043.45 C 847.604 1060.85 895.581 1079.97 942.839 1100.76 C 927.606 1108.92 912.489 1117.29 897.493 1125.88 C 871.941 1140.07 846.357 1153.4 820.697 1167.35 C 817.86 1163.7 814.33 1159.67 811.18 1156.27 C 791.538 1135.07 773.824 1112.5 755.876 1089.86 C 756.351 1069.03 757.744 1049.39 757.906 1028.05 z"/>
<path transform="translate(0,0)" fill="rgb(247,245,238)" d="M 589.329 669.744 C 594.742 669.043 635.88 692.827 643.871 697.219 C 614.396 722.295 596.395 721.027 562.585 736.692 C 545.48 744.617 529.014 765.34 510.39 772.551 C 483.098 783.118 460.425 787.271 435.345 803.543 C 423.794 811.447 414.743 819.511 402.118 827.522 C 402.46 805.382 402.591 783.24 402.509 761.097 C 413.639 754.424 423.765 748.212 435.981 743.638 C 451.174 737.951 468.945 733.826 483.585 726.864 C 500.667 718.739 515.555 701.429 532.247 692.317 C 549.957 682.649 571.418 678.833 589.329 669.744 z"/>
<path transform="translate(0,0)" fill="rgb(247,245,238)" d="M 923.265 967.27 C 931.74 972.681 939.379 977.261 948.714 981.111 C 961.145 986.237 974.121 989.74 986.319 995.399 C 1006.57 1004.79 1022.56 1021.13 1042.09 1031.69 C 1060.52 1041.53 1075.26 1045.08 1094.43 1052.44 C 1109.06 1058.05 1123.86 1068.74 1136.37 1078.1 L 1136.41 1139.95 C 1130.41 1135.83 1121.14 1128.61 1115.59 1125.3 C 1092.44 1109 1065.7 1103.78 1041.09 1092.32 C 1029.52 1086.92 1007.14 1070 995.728 1061.76 C 968.819 1043.74 949.525 1039.29 923.126 1026.02 L 923.265 967.27 z"/>
<path transform="translate(0,0)" fill="rgb(185,217,198)" d="M 668.31 974.957 C 688.924 983.753 715.061 990.243 736.641 996.96 C 771.742 1007.97 806.611 1019.71 841.226 1032.17 C 884.138 1047.67 932.874 1069.42 974.31 1088.33 C 1029.3 1112.96 1083.4 1139.53 1136.51 1167.99 L 1136.27 1187.26 C 1078.8 1155.76 1020.22 1126.35 960.63 1099.09 C 914.601 1078.82 868.012 1059.86 820.919 1042.21 C 789.825 1030.24 758.993 1019.54 726.982 1010.43 C 716.711 1007.51 705.797 1004.23 696.13 999.772 C 723.914 1054.43 768.956 1113.38 809.935 1158.53 C 815.214 1164.35 830.177 1181.19 835.985 1185.49 C 839.097 1187.58 841.512 1190.47 843.798 1193.41 C 847.927 1197.39 853.695 1203.27 857.942 1206.82 C 858.979 1207.25 858.995 1207.14 859.433 1208.13 L 865.884 1213.8 C 867.147 1213.93 867.042 1213.89 867.329 1215.05 C 873.201 1220.06 880.728 1225.62 886.905 1230.44 C 882.466 1234.05 877.422 1239.13 873.189 1243.17 C 861.208 1232.21 848.44 1221.52 836.865 1210.18 C 784.563 1158.69 739.134 1100.67 701.706 1037.54 C 692.266 1021.71 683.296 1004.07 674.258 987.76 C 671.91 983.311 670.165 979.599 668.31 974.957 z"/>
<path transform="translate(0,0)" fill="rgb(103,107,106)" d="M 835.985 1185.49 C 839.097 1187.58 841.512 1190.47 843.798 1193.41 C 840.736 1190.88 838.353 1188.67 835.985 1185.49 z"/>
<path transform="translate(0,0)" fill="rgb(247,245,238)" d="M 923.039 903.072 C 935.165 908.194 951.243 914.625 962.157 921.552 C 978.791 932.11 992.454 943.316 1010.4 952.357 C 1029.23 961.837 1053.56 967.522 1071.22 978.339 C 1095.36 993.115 1109.75 1008.15 1136.77 1019.16 C 1135.72 1034.57 1136.46 1058.39 1136.52 1074.37 C 1131.99 1073.35 1115.84 1060.13 1109.47 1056.88 C 1088.32 1046.08 1066.71 1042.14 1045.76 1031.36 C 1025.58 1020.98 1008.3 1003.3 988.071 993.919 C 962.423 982.022 946.521 981.407 923.063 964.021 C 922.526 943.91 922.903 923.231 923.039 903.072 z"/>
<path transform="translate(0,0)" fill="rgb(247,245,238)" d="M 881.219 1359.82 C 883.996 1360.73 923.221 1392.2 927.704 1395.73 C 905.869 1401.22 886.546 1407.47 868.619 1421.56 C 856.565 1431.03 847.871 1438.45 834.23 1445.37 C 816.344 1454.43 789.336 1459.08 773.142 1469.24 C 739.854 1490.14 738.447 1501.23 699.275 1510.58 C 688.89 1514.03 687.986 1517.78 681.745 1527.31 C 676.374 1524.41 672.052 1521.72 666.905 1518.47 C 702.035 1489.42 720.246 1483.79 731.642 1438.03 C 744.296 1432.68 752.22 1429.22 763.42 1421.32 C 775.378 1412.89 790.909 1398.77 803.712 1392.96 C 834.616 1378.94 852.115 1380.85 881.219 1359.82 z"/>
<path transform="translate(0,0)" fill="rgb(247,245,238)" d="M 942.087 1657.7 L 938.758 1653.05 C 939.679 1652.12 963.742 1643.23 970.054 1639.65 C 988.446 1629.23 1000.16 1614.8 1019.34 1606.24 C 1037.93 1597.96 1059.48 1595.39 1077.32 1586.12 C 1098.38 1575.19 1113.85 1555.95 1136.65 1547.45 L 1136.62 1585.8 C 1136.63 1595.6 1136.37 1606.8 1136.82 1616.49 C 1116.42 1624.71 1096.34 1628.88 1076.67 1637.32 C 1060.11 1644.41 1044.39 1660.07 1028.92 1670.2 C 1008.87 1683.32 988.984 1676.5 978.28 1697.8 C 938.435 1681.64 959.326 1673.25 942.087 1657.7 z"/>
<path transform="translate(0,0)" fill="rgb(247,245,238)" d="M 828.123 912.656 C 859.359 896.927 894.028 895.861 920.122 870.557 C 920.252 886.407 920.762 904.08 920.281 919.786 C 884.211 954.846 873.887 942.965 834.521 963.851 C 810.444 976.625 803.525 996.046 768.741 1005.01 C 743.875 996.719 718.848 988.915 693.674 981.608 C 718.523 960.766 746.234 962.886 774.004 949.74 C 792.715 940.882 809.056 924.572 826.803 913.503 C 827.459 912.916 827.324 912.977 828.123 912.656 z"/>
<path transform="translate(0,0)" fill="rgb(247,245,238)" d="M 922.903 846.53 C 928.744 849.024 940.652 855.863 946.647 859.073 C 961.849 867.231 977.102 875.293 992.405 883.26 C 1006.77 890.737 1031.93 902.023 1044.42 910.09 C 1050.9 914.272 1074.31 936.738 1080.88 942.77 C 1099.36 959.636 1117.98 976.349 1136.73 992.909 C 1136.8 1000.77 1136.65 1008.83 1136.59 1016.71 C 1111.05 1006.21 1096.14 990.65 1073.33 977.059 C 1053.22 965.078 1027.48 959.167 1006.13 947.721 C 992.261 940.967 980.548 930.142 967.544 922.101 C 953.831 913.621 937.692 907.088 922.873 900.557 C 922.723 882.549 922.732 864.539 922.903 846.53 z"/>
<path transform="translate(0,0)" fill="rgb(185,217,198)" d="M 1179.09 1174.85 C 1197.88 1185.93 1209.67 1195.46 1226.96 1208.93 C 1227.81 1209.22 1228.07 1209.34 1228.41 1210.18 C 1237.73 1217.63 1248.61 1225.91 1257.58 1233.57 L 1259.55 1233.24 L 1260.65 1236.43 L 1263.89 1238.67 C 1264.95 1239.19 1264.97 1239.09 1265.43 1240.1 L 1276.93 1249.82 C 1277.98 1250.25 1277.99 1250.15 1278.45 1251.11 L 1285.95 1257.73 C 1287.19 1258.33 1287.08 1258.28 1287.8 1259.56 L 1289.1 1260.63 C 1291 1261.81 1291.25 1262.02 1292.4 1263.97 C 1306.31 1277.38 1319.98 1291.02 1333.4 1304.91 C 1334.11 1305.45 1333.97 1305.27 1334.4 1306 C 1371.84 1347.66 1407.3 1390.44 1437.72 1437.55 C 1440.96 1442.56 1443.46 1446.13 1445.09 1451.96 L 1444.18 1452.92 C 1435.47 1454.11 1375.52 1444 1363.01 1442.33 C 1326.65 1437.46 1288.8 1432.05 1252.36 1426.82 C 1228.2 1423.35 1203.32 1418.3 1179.1 1415.52 L 1179.1 1400.51 C 1202.59 1402.4 1234.36 1408.16 1258.44 1411.67 C 1311.3 1419.01 1364.07 1427.07 1416.72 1435.82 C 1369.34 1363.65 1311.11 1299.23 1244.08 1244.82 C 1223.98 1228.29 1200 1210.85 1179.03 1195.02 L 1179.09 1174.85 z"/>
<path transform="translate(0,0)" fill="rgb(103,107,106)" d="M 1289.1 1260.63 C 1291 1261.81 1291.25 1262.02 1292.4 1263.97 C 1290.73 1263.11 1290.22 1262.15 1289.1 1260.63 z"/>
<path transform="translate(0,0)" fill="rgb(247,245,238)" d="M 525.255 634.887 C 529.07 634.827 581.646 663.998 588.727 667.808 C 570.008 676.651 550.555 680.421 532.219 690.095 C 518.239 697.472 507.321 708.424 494.708 717.643 C 480.481 728.043 462.184 732.981 445.494 738.11 C 428.267 742.772 417.286 749.871 402.229 758.877 L 402.48 698.513 C 415.934 690.007 433.06 673.672 446.983 667.473 C 478.441 653.468 495.229 654.257 525.255 634.887 z"/>
<path transform="translate(0,0)" fill="rgb(247,245,238)" d="M 1557.56 880.859 C 1559.11 881.11 1558.98 880.933 1560.26 881.731 C 1579.07 893.481 1599.61 895.511 1619.22 906.359 C 1633.86 914.454 1646.2 923.878 1660.07 933.103 C 1669.3 939.239 1678.39 943.997 1688.22 948.948 L 1688.26 1006.84 C 1677.12 1002.02 1665.4 997.217 1654.63 991.708 C 1629.59 979.482 1614.85 963.806 1593.71 952.399 C 1557.18 932.689 1539.2 936.82 1505.16 908.194 C 1518.63 900.07 1542.84 888.445 1557.56 880.859 z"/>
<path transform="translate(0,0)" fill="rgb(247,245,238)" d="M 820.418 1302.03 C 821.118 1302.24 822.602 1303.5 823.291 1304.02 L 823.34 1305.63 C 819.692 1310.53 803.624 1324.6 798.513 1329.35 C 774.29 1351.85 748.569 1372.9 724.232 1395.33 C 710.131 1397.06 695.712 1398.22 682.213 1402.92 C 656.324 1411.92 600.299 1456.54 575.367 1474.48 C 570.804 1471.52 570.163 1471.02 566.725 1466.82 C 565.136 1463.34 561.851 1450.97 560.433 1446.36 L 550.888 1437.87 C 592.163 1426.47 591.478 1414.98 626.188 1394.82 C 644.489 1384.2 676.7 1379.63 696.463 1366.98 C 710.354 1358.93 723.378 1342.63 737.91 1336.22 C 767.57 1323.14 791.872 1319.07 820.418 1302.03 z"/>
<path transform="translate(0,0)" fill="rgb(247,245,238)" d="M 1135.9 1619.07 C 1137.41 1621.58 1136.72 1662.91 1136.76 1669.56 C 1116.3 1679.47 1103.96 1693.14 1084.77 1704.43 C 1074.38 1710.55 1060.54 1712.3 1049.5 1716.91 C 1043.49 1719.42 1042.07 1725.14 1039.87 1730.92 C 1029.92 1728.18 1021.78 1723.34 1013.73 1717.06 C 1003.99 1702.73 1011.26 1696.39 996.408 1684.84 C 1008.16 1681.38 1020.3 1678.02 1030.65 1671.31 C 1046.07 1661.31 1058.02 1648.97 1074.86 1640.72 C 1094.98 1630.87 1114.83 1627.54 1135.9 1619.07 z"/>
<path transform="translate(0,0)" fill="rgb(247,245,238)" d="M 946.12 1102.06 L 950.98 1104.31 C 953.781 1108.67 946.947 1165.2 945.591 1174.74 C 925.493 1183.18 887.403 1208.98 869.947 1214.29 C 863.45 1208.77 856.897 1202.56 850.589 1196.78 L 822.843 1169.34 C 841.144 1158.51 860.06 1148.79 878.795 1138.65 C 900.922 1126.68 923.694 1113.25 946.12 1102.06 z"/>
<path transform="translate(0,0)" fill="rgb(185,217,198)" d="M 1179.2 1299.45 C 1194.41 1312.26 1214.11 1325.95 1230.22 1338.64 C 1253.31 1357.08 1275.91 1376.12 1298.01 1395.75 C 1299.01 1396.23 1299.02 1396.13 1299.45 1397.1 L 1305.95 1402.9 C 1306.8 1403.21 1307.07 1403.33 1307.42 1404.16 L 1312.85 1408.85 C 1314.12 1408.91 1314.02 1408.86 1314.28 1410.03 L 1324.45 1419.4 C 1291.32 1413.96 1258.08 1409.61 1224.93 1404.32 C 1209.71 1401.9 1194.41 1399.47 1179.1 1397.75 L 1179.2 1299.45 z"/>
<path transform="translate(0,0)" fill="rgb(247,245,238)" d="M 837.15 964.7 C 870.765 947.325 889.972 953.559 920.262 922.941 C 920.323 944.07 921.01 965.565 920.917 986.532 C 913.353 991.45 902.369 998.715 894.179 1001.81 C 871.55 1010.35 855.734 1013.86 834.622 1027.11 C 814.081 1019.94 793.486 1012.93 772.837 1006.08 C 806.584 994.459 810.734 979.932 835.819 965.526 C 836.435 965.007 836.414 965.014 837.15 964.7 z"/>
<path transform="translate(0,0)" fill="rgb(247,245,238)" d="M 1600.74 1347.32 C 1615.94 1354.19 1626.86 1364.62 1640.7 1373.11 C 1654.87 1381.8 1672.79 1389.34 1688.24 1396.05 C 1688.24 1405.53 1688.84 1453.81 1687.63 1460.39 C 1684.98 1460.54 1686.29 1460.69 1683.74 1459.27 C 1680.86 1457.13 1679.02 1455.75 1675.81 1454.01 L 1674.39 1453.2 L 1673.09 1451.94 C 1663.13 1445.22 1652.58 1437 1642.42 1431.05 L 1641.05 1430.05 C 1619.57 1416.32 1607.19 1412.09 1582.28 1405.11 C 1588.85 1386.81 1595.2 1366.03 1600.74 1347.32 z"/>
<path transform="translate(0,0)" fill="rgb(247,245,238)" d="M 1509.05 1389 C 1526.93 1398.99 1545.31 1408.43 1563.34 1418.27 C 1541.51 1441.14 1514.12 1440.86 1487.34 1453.62 C 1475.29 1459.35 1459.79 1471.89 1448.96 1480.17 C 1439.11 1486.97 1435.52 1489.13 1424.08 1492.38 L 1450.21 1453.76 C 1445.79 1444.2 1436.93 1432.1 1430.79 1423.15 C 1459.37 1407.81 1475.65 1414 1509.05 1389 z"/>
<path transform="translate(0,0)" fill="rgb(247,245,238)" d="M 1620.57 847.826 C 1624.21 847.968 1640.68 861.352 1645.9 864.562 C 1659.38 872.742 1673.54 879.738 1688.23 885.473 L 1688.26 946.46 C 1675.87 940.478 1664.74 933.602 1653.26 926.14 C 1639.73 916.274 1625.52 906.012 1609.95 899.682 C 1592.48 892.579 1576.79 889.446 1560.63 879.032 L 1620.57 847.826 z"/>
<path transform="translate(0,0)" fill="rgb(247,245,238)" d="M 1179.05 1145.87 C 1191.2 1152.65 1201.55 1158.45 1213.14 1166.09 C 1210.43 1168.6 1207.23 1171.42 1204.67 1174.01 C 1216.05 1184.89 1229.7 1192.79 1241.64 1202.56 C 1244.9 1199.47 1248.78 1195.97 1251.82 1192.75 L 1417.51 1298.17 C 1418.41 1301.93 1421.34 1311.79 1420.16 1314.54 L 1417.9 1313.93 C 1416.16 1312.3 1399.3 1302.32 1396.29 1300.51 C 1393.79 1298.3 1381.36 1290.82 1378.04 1288.93 C 1359.48 1278.02 1343.07 1273.54 1323.54 1265.16 C 1310.33 1259.49 1299.44 1251.96 1287.75 1243.82 C 1283.01 1240.34 1278.91 1237.83 1273.91 1234.75 C 1266.11 1230.35 1244.38 1219.14 1238.41 1214.7 C 1217.39 1199.09 1201.96 1185.48 1178.93 1171.92 L 1179.05 1145.87 z"/>
<path transform="translate(0,0)" fill="rgb(185,217,198)" d="M 928.264 1261.95 C 972.989 1298.92 1080.49 1361.81 1136.24 1382.42 L 1136.16 1403.86 C 1080.31 1379.96 1002.19 1336.57 951.423 1301.57 L 943.548 1296.3 L 941.897 1294.45 C 934.395 1289.86 922.382 1280.54 915.391 1274.83 L 928.264 1261.95 z"/>
<path transform="translate(0,0)" fill="rgb(247,245,238)" d="M 840.026 1322.9 C 853.974 1335.9 864.795 1345.23 879.456 1357.43 C 855.733 1378.43 829.506 1377.9 802.423 1391.09 C 788.565 1397.84 772.003 1412.59 758.618 1422.24 C 749.338 1427.83 742.503 1431.31 732.341 1434.88 C 733.456 1428.82 734.803 1423.25 734.397 1417.1 C 768.487 1388.65 808.011 1353.21 840.026 1322.9 z"/>
<path transform="translate(0,0)" fill="rgb(185,217,198)" d="M 1134.75 1292.99 C 1137.62 1295.21 1136.31 1369.24 1136.33 1379.9 C 1112.7 1370.35 1094.72 1360.46 1072.24 1349.4 L 1071.5 1349.04 C 1059.61 1343.01 1047.94 1336.57 1036.51 1329.73 C 1055.89 1321.09 1077.34 1314.18 1097.5 1307.28 C 1110.57 1302.81 1122.25 1297.48 1134.75 1292.99 z"/>
<path transform="translate(0,0)" fill="rgb(247,245,238)" d="M 923.18 1028.61 C 944.131 1037.05 976.05 1051.02 993.844 1063.24 C 1008.26 1073.6 1029.39 1089.66 1044.79 1096.36 C 1069.83 1107.26 1090.52 1110.98 1114.05 1126.77 C 1120.84 1131.09 1129.71 1138.15 1136.34 1143.11 L 1136.21 1156.51 C 1119.24 1148.76 1102.41 1137.98 1085.34 1129.96 C 1032.69 1105.23 977.796 1076.24 922.901 1057.25 L 923.18 1028.61 z"/>
<path transform="translate(0,0)" fill="rgb(247,245,238)" d="M 1088.16 1704.71 C 1093 1702.02 1101.77 1695.76 1106.04 1692.15 C 1116.46 1683.36 1124.98 1678.24 1136.61 1671.44 C 1136.65 1694.36 1136.13 1717.26 1136.3 1740.19 C 1116.83 1747.84 1106.46 1744.02 1097.07 1763.47 C 1052.81 1744.05 1078.88 1742.11 1059.54 1721.03 C 1059.04 1720.63 1057.7 1719.95 1057.33 1719.74 C 1056.73 1718.85 1056.35 1718.55 1056.42 1717.56 C 1055.33 1719.12 1084.06 1706.93 1086.83 1705.57 C 1087.48 1704.93 1087.33 1705 1088.16 1704.71 z"/>
<path transform="translate(0,0)" fill="rgb(247,245,238)" d="M 1387.49 1313.56 C 1391.62 1310.35 1395.73 1307.89 1399.99 1304.95 C 1405.92 1308.64 1410.29 1311.83 1416.56 1315.15 C 1423.52 1319.57 1425.51 1321.98 1428.79 1329.99 C 1433.62 1341.77 1442.63 1347.32 1450.06 1356.14 C 1433.13 1369.97 1419.21 1372.24 1398.82 1377.57 L 1397.88 1377.83 C 1386.05 1361.31 1371.95 1346.15 1359.15 1330.32 C 1367.26 1326.48 1378.86 1319.61 1385.98 1314.07 L 1387.49 1313.56 z"/>
<path transform="translate(0,0)" fill="rgb(247,245,238)" d="M 1451.86 1357.77 C 1455.97 1358.79 1499.37 1383.69 1506.47 1387.43 C 1489.12 1402.92 1468.35 1407.29 1446.38 1413.91 C 1439.3 1416.16 1435.91 1418.01 1429.31 1421.41 C 1422.36 1408.89 1408.44 1391.29 1399.68 1379.75 C 1420.67 1374.56 1434.69 1371.11 1451.86 1357.77 z"/>
<path transform="translate(0,0)" fill="rgb(247,245,238)" d="M 1189.34 1541.47 C 1205.09 1545.16 1220.72 1549.91 1236.53 1553.72 L 1240.55 1554.71 L 1246.98 1556.26 C 1254.7 1558.14 1261.98 1559.56 1269.79 1560.99 C 1253.95 1568.81 1247.19 1573.94 1233.16 1583.81 C 1214.97 1598.64 1201.8 1606.37 1179.02 1612.78 L 1179.05 1547.44 C 1182.64 1545.28 1185.63 1543.5 1189.34 1541.47 z"/>
<path transform="translate(0,0)" fill="rgb(247,245,238)" d="M 425.525 633.939 C 455.015 635.224 492.158 634.122 522.077 634.039 C 499.402 651.373 471.429 653.092 446.282 665.39 C 429.906 673.398 417.546 686.637 402.11 695.804 L 402.149 634.26 L 425.525 633.939 z"/>
<path transform="translate(0,0)" fill="rgb(247,245,238)" d="M 1257.28 1228.24 C 1262.24 1230.7 1267.7 1233.16 1272.26 1236.21 C 1276.51 1239.05 1281.83 1242.4 1285.87 1245.36 C 1298.04 1253.76 1309.22 1261.59 1322.91 1267.51 C 1341.43 1275.51 1358.33 1279.87 1375.9 1290.2 L 1378.04 1288.93 C 1381.36 1290.82 1393.79 1298.3 1396.29 1300.51 L 1396 1302.56 L 1395.88 1304.35 C 1394.46 1305.48 1387.08 1310.84 1386.54 1311.4 L 1384.43 1312.58 C 1374.99 1319.02 1367.76 1324.18 1357.14 1328.4 C 1324.91 1290.9 1298.57 1265.39 1260.81 1233.11 C 1259.67 1231.46 1258.49 1229.84 1257.28 1228.24 z"/>
<path transform="translate(0,0)" fill="rgb(31,95,91)" d="M 1378.04 1288.93 C 1381.36 1290.82 1393.79 1298.3 1396.29 1300.51 L 1396 1302.56 C 1389.37 1298.35 1382.42 1294.39 1375.9 1290.2 L 1378.04 1288.93 z"/>
<path transform="translate(0,0)" fill="rgb(247,245,238)" d="M 919.319 989.928 C 922.33 991.405 920.517 1048.58 920.251 1055.78 C 901.558 1048.93 880.377 1043.67 860.617 1036.95 C 854.003 1034.35 847.195 1031.92 840.718 1029.33 L 837.082 1027.87 C 869.153 1009.1 890.065 1011.04 919.319 989.928 z"/>
<path transform="translate(0,0)" fill="rgb(247,245,238)" d="M 1679.46 816.841 C 1682.51 817.054 1685.49 818.989 1688.18 820.537 L 1688.2 882.841 L 1687.71 882.677 C 1676.4 878.959 1662.19 871.56 1652.06 865.5 C 1643.03 859.973 1632.33 852.883 1624 846.209 C 1641.25 836.397 1661.43 826.761 1679.46 816.841 z"/>
<path transform="translate(0,0)" fill="rgb(3,2,1)" d="M 1207.94 1173.79 C 1213.55 1167.75 1235.68 1144.96 1242.44 1137.03 C 1242.96 1136.43 1245.95 1138.46 1247.15 1139.4 C 1251.64 1142.06 1256.41 1145.3 1260.69 1148.34 C 1278.55 1161.02 1281.76 1157.31 1267.37 1172.21 C 1266.49 1173.09 1265.99 1173.59 1265.06 1174.38 C 1263.14 1176.85 1251.17 1190.32 1248.92 1192.27 C 1246.27 1195.15 1244.64 1196.72 1241.66 1199.31 C 1231.89 1192.05 1216.62 1181.63 1207.94 1173.79 z"/>
<path transform="translate(0,0)" fill="rgb(239,237,228)" d="M 1207.94 1173.79 C 1213.55 1167.75 1235.68 1144.96 1242.44 1137.03 C 1242.96 1136.43 1245.95 1138.46 1247.15 1139.4 C 1246.17 1142.41 1247.52 1142.06 1246 1145.04 C 1241.62 1143.53 1220.41 1170.95 1217.59 1174.81 L 1239.77 1189.58 C 1243.85 1190.32 1245.83 1189.76 1248.92 1192.27 C 1246.27 1195.15 1244.64 1196.72 1241.66 1199.31 C 1231.89 1192.05 1216.62 1181.63 1207.94 1173.79 z"/>
<path transform="translate(0,0)" fill="rgb(185,217,198)" d="M 1247.15 1139.4 C 1251.64 1142.06 1256.41 1145.3 1260.69 1148.34 C 1278.55 1161.02 1281.76 1157.31 1267.37 1172.21 C 1265.61 1170.5 1263.77 1168.91 1262.08 1167.12 C 1262.55 1166.71 1267.01 1163.19 1266.44 1162.43 C 1261.4 1155.72 1251.63 1151.45 1246 1145.04 C 1247.52 1142.06 1246.17 1142.41 1247.15 1139.4 z"/>
<path transform="translate(0,0)" fill="rgb(185,217,198)" d="M 1259.2 1169.38 C 1260.34 1168.39 1260.81 1168.05 1262.08 1167.12 C 1263.77 1168.91 1265.61 1170.5 1267.37 1172.21 C 1266.49 1173.09 1265.99 1173.59 1265.06 1174.38 C 1263.14 1176.85 1251.17 1190.32 1248.92 1192.27 C 1245.83 1189.76 1243.85 1190.32 1239.77 1189.58 C 1246.03 1182.91 1252.82 1175.87 1259.2 1169.38 z"/>
<path transform="translate(0,0)" fill="rgb(124,166,174)" d="M 1259.2 1169.38 C 1260.34 1168.39 1260.81 1168.05 1262.08 1167.12 C 1263.77 1168.91 1265.61 1170.5 1267.37 1172.21 C 1266.49 1173.09 1265.99 1173.59 1265.06 1174.38 C 1263.09 1172.59 1261.19 1171.11 1259.2 1169.38 z"/>
<path transform="translate(0,0)" fill="rgb(232,115,90)" d="M 1244.58 1146.83 C 1249.93 1150.65 1259.18 1157.9 1264.22 1162.09 C 1254.25 1170.2 1248.5 1176.53 1239.75 1185.65 C 1236.12 1185.24 1224.61 1176.71 1220.89 1174.15 C 1228.35 1164.68 1236.26 1155.56 1244.58 1146.83 z"/>
<path transform="translate(0,0)" fill="rgb(232,115,90)" d="M 956.617 1177.34 C 958.889 1176.95 961.198 1176.8 963.502 1176.92 C 971.253 1177.38 980.573 1184.55 978.984 1193.53 C 977.707 1200.74 966.876 1206.89 961.352 1211.37 C 956.237 1215.52 950.412 1219.85 945.068 1224.15 C 940.096 1228.07 935.373 1232.31 930.923 1236.82 C 923.331 1245.05 925.184 1238.17 916.139 1232.77 C 914.554 1231.82 911.856 1229.28 910.361 1228 C 918.585 1221.62 925.73 1214.43 933.829 1207.89 C 930.45 1184.44 933.815 1180.94 956.617 1177.34 z"/>
<path transform="translate(0,0)" fill="rgb(247,245,238)" d="M 1423.16 1274.08 C 1390.85 1254.23 1358.36 1231.38 1325.57 1211.6 C 1317.93 1206.99 1274.71 1179.08 1269.74 1174.5 L 1269.81 1172.92 C 1272.91 1171.07 1271.31 1171.39 1274.73 1171.72 C 1279.7 1176.25 1298.2 1188.75 1305.01 1193.81 C 1311.91 1198.76 1318.17 1203.58 1325.21 1208.52 C 1325.88 1208.78 1325.85 1208.81 1326.4 1209.28 C 1330.14 1211.31 1336.15 1214.38 1339.49 1216.64 L 1341.93 1215.22 L 1342.58 1215.54 L 1342.19 1217.64 C 1365.37 1227.69 1391.99 1236.45 1413.09 1248.69 C 1421.27 1253.43 1434.68 1265.4 1444.2 1271.79 C 1435.09 1272.03 1432.23 1272.39 1423.16 1274.08 z"/>
<path transform="translate(0,0)" fill="rgb(103,107,106)" d="M 1341.93 1215.22 L 1342.58 1215.54 L 1342.19 1217.64 C 1340.86 1218.33 1340.69 1217.68 1339.49 1216.64 L 1341.93 1215.22 z"/>
<path transform="translate(0,0)" fill="rgb(185,217,198)" d="M 757.066 1023.01 C 762.133 1022.76 774.457 1027.65 779.819 1029.55 C 889.896 1068.26 996.916 1115.17 1099.98 1169.88 C 1106.68 1173.44 1134.18 1186.59 1136.77 1192.02 C 1130.62 1190.66 1078.66 1162.71 1068.21 1157.34 C 1044.27 1145.23 1020.17 1133.42 995.924 1121.92 C 940.832 1095.63 886.513 1073.64 829.529 1051.93 C 817.25 1047.25 762.018 1029.35 757.066 1023.01 z"/>
<path transform="translate(0,0)" fill="rgb(232,115,90)" d="M 1179.75 1107.33 C 1180.67 1107.41 1181.59 1107.51 1182.51 1107.61 C 1195.33 1109.09 1201.93 1113.96 1209.69 1123.91 C 1210.02 1128.23 1210.12 1132.53 1210.48 1136.76 C 1217.88 1141.92 1221.48 1144.21 1229.52 1148.25 C 1227.18 1150.88 1224.83 1153.32 1222.4 1155.86 C 1219.93 1158.57 1217.4 1161.22 1214.8 1163.81 L 1213.2 1162.91 C 1202.85 1157.22 1190.24 1149.01 1179.11 1142.76 C 1179.15 1136.31 1178.7 1112.16 1179.75 1107.33 z"/>
<path transform="translate(0,0)" fill="rgb(185,217,198)" d="M 1178.62 1417.95 C 1185.63 1417.98 1202.53 1421.13 1210.09 1422.38 C 1226.97 1425.23 1243.89 1427.91 1260.83 1430.4 C 1319.79 1439.05 1379.22 1447.13 1438.28 1455.22 C 1442.23 1455.76 1442.4 1455.19 1444.05 1457.43 L 1442.81 1462.03 C 1411.01 1456.35 1373.02 1451.8 1340.74 1447.2 C 1298.75 1441.28 1256.84 1434.87 1215 1427.97 C 1205.48 1426.47 1189.69 1424.57 1180.13 1422.26 C 1179.05 1422 1178.99 1419.68 1178.62 1417.95 z"/>
<path transform="translate(0,0)" fill="rgb(185,217,198)" d="M 949.769 1303.26 C 984.436 1326.41 1020.19 1347.89 1056.9 1367.63 C 1070.28 1374.72 1083.79 1381.56 1097.42 1388.17 C 1107.43 1393.01 1127.13 1401.18 1134.9 1408.09 L 1134.94 1409.46 C 1128.46 1409.19 1117.81 1404.01 1111.64 1401.12 C 1044.93 1369.86 981.606 1331.51 921.438 1289.08 C 918.251 1286.83 911.738 1283.26 910.459 1279.82 L 911.332 1278.31 C 915.524 1277.27 913.457 1277.12 917.69 1279.34 C 917.871 1279.39 918.051 1279.44 918.232 1279.5 C 918.469 1279.86 918.356 1279.64 918.556 1280.18 L 924.912 1284.87 C 925.968 1285.26 925.982 1285.16 926.44 1286.13 L 940.68 1296.55 L 941.897 1294.45 L 943.548 1296.3 L 941.932 1297.79 C 944.287 1299.42 947.586 1301.56 949.769 1303.26 z"/>
<path transform="translate(0,0)" fill="rgb(31,95,91)" d="M 941.897 1294.45 L 943.548 1296.3 L 941.932 1297.79 C 941.514 1297.38 941.097 1296.97 940.68 1296.55 L 941.897 1294.45 z"/>
<path transform="translate(0,0)" fill="rgb(185,217,198)" d="M 747.017 1020.91 C 748.993 1020.87 754.515 1021.38 754.655 1022.44 C 756.418 1035.65 754.233 1074.81 753.095 1086.11 C 748.902 1080.74 744.963 1075.18 741.292 1069.45 C 735.031 1059.34 724.421 1042.76 717.776 1033.53 C 727.476 1029.58 737.652 1024.37 747.017 1020.91 z"/>
<path transform="translate(0,0)" fill="rgb(185,217,198)" d="M 906.221 1053.52 C 924.22 1059.02 942.05 1066.05 959.36 1073.43 C 979.714 1082.1 1133.06 1152.21 1136.9 1161.47 C 1137.05 1161.83 1136.98 1162.24 1137.02 1162.63 L 1135.11 1163.99 C 1079.37 1137.44 1025.33 1106.57 968.02 1082.82 C 949.052 1074.97 927.286 1062.44 908.108 1056.36 L 906.221 1053.52 z"/>
<path transform="translate(0,0)" fill="rgb(185,217,198)" d="M 932.713 1184.05 C 931.133 1195.11 929.564 1194.29 930.667 1206.83 C 923.81 1213.31 916.33 1220.32 908.772 1225.89 C 906.753 1224.54 904.665 1222.97 902.496 1221.93 L 898.985 1220.29 C 894.881 1223.02 890.164 1228.88 886.191 1226.45 L 884.79 1225.62 L 872.655 1216.4 C 882.163 1212.29 891.346 1206.83 900.406 1201.75 C 910.973 1195.82 922.417 1190.34 932.713 1184.05 z"/>
<path transform="translate(0,0)" fill="rgb(185,217,198)" d="M 672.675 989.317 C 677.449 995.958 682.837 1007.95 686.846 1015.61 C 703.943 1048.26 724.579 1079.48 746.621 1108.96 C 747.205 1109.32 747.167 1109.53 747.488 1110.18 L 751.627 1115.94 C 752.207 1116.31 752.172 1116.52 752.493 1117.17 L 756.597 1122.97 C 757.195 1123.32 757.162 1123.53 757.505 1124.18 L 762.585 1130.99 C 763.19 1131.33 763.142 1131.53 763.47 1132.2 L 768.659 1138.9 C 769.263 1139.37 769.185 1139.38 769.627 1140.01 L 772.71 1143.85 C 773.72 1144.68 773.652 1144.71 774.363 1145.84 L 778.648 1150.91 C 779.269 1151.39 779.151 1151.36 779.586 1152.03 C 804.595 1180.63 830.126 1208.55 858.676 1233.58 C 861.763 1236.29 870.105 1242.76 870.894 1246.45 L 869.748 1247.23 C 862.059 1244.15 847.823 1229.73 841.212 1223.55 C 840.351 1223.23 840.577 1223.48 840.263 1222.7 C 792.368 1176.15 750.264 1124 714.864 1067.37 C 704.357 1050.65 694.406 1034.09 685.515 1016.45 C 682.729 1010.93 675.939 994.891 672.516 991.473 L 672.675 989.317 z"/>
<path transform="translate(0,0)" fill="rgb(185,217,198)" d="M 899.192 1222.97 C 909.162 1229.31 917.746 1237.6 927.01 1244.86 C 930.245 1247.4 935.75 1251.22 931.387 1255.35 C 921.24 1265.6 910.866 1275.61 900.681 1285.82 C 898.08 1284.32 888.75 1278.71 889.255 1276.97 C 891.493 1269.26 894.429 1272.33 897.043 1274.94 C 897.987 1275.9 898.96 1276.84 899.96 1277.74 C 907.966 1268.52 916.021 1261.44 923.808 1252.43 C 915.706 1245.19 907.095 1238.53 898.041 1232.52 C 894.466 1235.88 879.774 1251.54 876.568 1250.7 C 875.57 1248.9 874.685 1247.24 873.573 1245.51 C 880.443 1240.4 889.37 1230.28 899.192 1222.97 z"/>
<path transform="translate(0,0)" fill="rgb(232,115,90)" d="M 898.759 1235.77 C 906.853 1240.75 913.803 1246.3 920.895 1252.62 C 914.658 1259.09 907.508 1265.85 901.048 1272.35 C 897.872 1274.2 883.574 1256.88 880.308 1253.52 C 886.72 1246.96 891.712 1241.72 898.759 1235.77 z"/>
<path transform="translate(0,0)" fill="rgb(247,245,238)" d="M 1135.1 1743.1 C 1137.48 1745.03 1136.98 1784.38 1135.86 1785.54 C 1133.13 1786.3 1128.71 1778.95 1127.77 1777.14 C 1123.79 1764.6 1124.51 1759.14 1113.79 1749.93 C 1121.01 1747.71 1127.94 1745.5 1135.1 1743.1 z"/>
<path transform="translate(0,0)" fill="rgb(185,217,198)" d="M 701.541 1005.46 C 712.873 1008.04 734.08 1015.06 745.493 1018.62 C 742.955 1019.8 740.19 1021.05 737.72 1022.32 L 716.325 1031.48 C 711.019 1022.89 706.038 1014.51 701.541 1005.46 z"/>
<path transform="translate(0,0)" fill="rgb(185,217,198)" d="M 1396.85 1412.27 C 1399.26 1414.73 1409.18 1429.26 1411.24 1432.48 C 1401.4 1430.75 1391.57 1429.49 1381.75 1427.66 C 1374.64 1426.48 1367.32 1424.75 1360.23 1423.29 C 1370.96 1420.18 1387.17 1414.16 1396.85 1412.27 z"/>
<path transform="translate(0,0)" fill="rgb(151,155,152)" d="M 1292.02 1293.55 L 1295.59 1293.2 C 1325.17 1321.78 1352.71 1352.42 1377.98 1384.88 C 1383.21 1391.68 1391.69 1402.17 1395.54 1409.28 C 1391.64 1407.49 1368 1374.06 1361.97 1367.24 C 1341.01 1343.51 1316.82 1315.15 1292.98 1294.38 L 1292.02 1293.55 z"/>
<path transform="translate(0,0)" fill="rgb(185,217,198)" d="M 1225.05 1235.58 C 1218.75 1230.6 1180.88 1204.47 1179.13 1200.94 L 1179.18 1199.86 C 1179.54 1199.55 1180.11 1199.29 1180.37 1199.47 C 1195.71 1210.11 1234.45 1238.9 1246.16 1249.55 C 1244.76 1249.46 1243.37 1249.35 1241.97 1249.23 C 1239.09 1247.27 1238.76 1246.81 1236.31 1244.27 C 1234.06 1243.34 1234.11 1243.15 1232.32 1241.31 C 1231.35 1241.11 1231.2 1240.95 1230.78 1240.06 L 1227.21 1237.27 C 1225.64 1236.59 1225.67 1236.82 1225.05 1235.58 z"/>
<path transform="translate(0,0)" fill="rgb(185,217,198)" d="M 486.2 1405.82 C 493.878 1405.86 492.973 1407.31 497.859 1413.75 L 498.411 1414.46 C 495.6 1414.98 492.775 1415.43 489.939 1415.79 C 474.197 1418.61 473.287 1415.7 486.2 1405.82 z"/>
<path transform="translate(0,0)" fill="rgb(239,237,228)" d="M 993.654 1685.78 L 994.926 1686.61 C 1009.04 1695.75 998.376 1695.23 989.234 1696.99 C 987.134 1697.11 985.082 1697.61 982.983 1697.65 C 982.051 1697.67 981.781 1696.19 982.067 1695.55 C 984.241 1690.64 989.067 1688.05 993.654 1685.78 z"/>
<path transform="translate(0,0)" fill="rgb(239,237,228)" d="M 1059.01 1724.17 C 1059.33 1724.52 1061.85 1726.92 1061.54 1727.6 C 1060.9 1728.03 1044.27 1730.58 1043.59 1730.22 C 1042.53 1727.71 1047.23 1714.6 1056.02 1720.82 L 1057.33 1719.74 C 1057.7 1719.95 1059.04 1720.63 1059.54 1721.03 L 1059.01 1724.17 z"/>
<path transform="translate(0,0)" fill="rgb(31,95,91)" d="M 1057.33 1719.74 C 1057.7 1719.95 1059.04 1720.63 1059.54 1721.03 L 1059.01 1724.17 C 1057.8 1722.91 1057.12 1722.17 1056.02 1720.82 L 1057.33 1719.74 z"/>
<path transform="translate(0,0)" fill="rgb(185,217,198)" d="M 545.323 1438.52 C 551.798 1439.4 553.599 1442.62 559.026 1447.43 C 555.259 1448.02 551.151 1448.31 547.237 1448.83 C 545.353 1448.93 537.699 1450.58 537.003 1449.05 C 537.354 1445.25 542.729 1440.78 545.323 1438.52 z"/>
<path transform="translate(0,0)" fill="rgb(185,217,198)" d="M 426.096 1373.6 C 429.837 1373.74 435.773 1375.5 437.152 1381.54 C 437.421 1382.72 429.948 1383.68 428.235 1384.06 C 414.986 1385.77 416.155 1382.62 426.096 1373.6 z"/>
<path transform="translate(0,0)" fill="rgb(185,217,198)" d="M 745.311 1562.64 C 749.386 1556.84 753.182 1547.78 760.989 1552.5 C 762.936 1555.64 764.414 1557.17 766.859 1559.89 C 760.706 1561.24 751.584 1562.43 745.311 1562.64 z"/>
<path transform="translate(0,0)" fill="rgb(239,237,228)" d="M 921.117 1665.02 C 923.933 1661.82 932.47 1649.79 937.033 1654.53 C 939.264 1656.16 939.617 1656.42 942.087 1657.7 L 942.037 1659.73 C 942.216 1660.78 942.406 1661.44 942.344 1662.45 C 938.585 1663.38 925.205 1664.7 921.117 1665.02 z"/>
<path transform="translate(0,0)" fill="rgb(151,155,152)" d="M 937.033 1654.53 C 939.264 1656.16 939.617 1656.42 942.087 1657.7 L 942.037 1659.73 C 939.026 1657.34 939.056 1657.65 937.033 1654.53 z"/>
<path transform="translate(0,0)" fill="rgb(185,217,198)" d="M 816.541 1582.58 C 820.586 1586.06 821.858 1588.13 825.161 1592.2 C 821.694 1592.98 818.226 1593.75 814.745 1594.45 C 813.129 1594.69 806.784 1596.42 806.449 1594.83 C 805.392 1589.82 814.009 1584.03 816.541 1582.58 z"/>
<path transform="translate(0,0)" fill="rgb(185,217,198)" d="M 695.591 1513.75 C 700.403 1517.44 702.768 1520.17 706.903 1524.52 C 702.251 1524.48 699.506 1524.65 694.759 1525.16 C 692.175 1525.23 688.046 1525.95 685.081 1526.2 L 686.132 1524.63 C 688.494 1521.03 690.651 1517.6 694.102 1514.95 L 695.591 1513.75 z"/>
<path transform="translate(0,0)" fill="rgb(185,217,198)" d="M 872.766 1616.85 C 876.591 1616.82 882.57 1618.83 882.774 1625.44 C 882.79 1625.95 875.7 1626.78 874.243 1627.02 C 870.958 1627.11 866.565 1627.97 863.109 1628.42 C 866.728 1623.64 868.597 1621.21 872.766 1616.85 z"/>
<path transform="translate(0,0)" fill="rgb(185,217,198)" d="M 1109.61 1751.62 C 1110.17 1751.74 1111.5 1751.96 1112 1752.28 C 1124.94 1760.31 1117.84 1760.21 1109.77 1761.13 C 1093.78 1764.86 1100.73 1758.65 1109.61 1751.62 z"/>
<path transform="translate(0,0)" fill="rgb(239,237,228)" d="M 871.697 1247.09 L 873.573 1245.51 C 874.685 1247.24 875.57 1248.9 876.568 1250.7 L 876.104 1252.46 C 877.877 1256.32 873.558 1259.58 870.938 1263.15 C 868.268 1260.93 866.275 1258.9 863.838 1256.47 C 866.779 1252.71 868.354 1250.45 871.697 1247.09 z"/>
<path transform="translate(0,0)" fill="rgb(121,123,121)" d="M 871.697 1247.09 L 873.573 1245.51 C 874.685 1247.24 875.57 1248.9 876.568 1250.7 L 876.104 1252.46 C 874.316 1250.29 873.887 1248.95 871.697 1247.09 z"/>
<path transform="translate(0,0)" fill="rgb(121,123,121)" d="M 1264.21 1264.63 C 1272.46 1270.25 1288.06 1285.86 1295.59 1293.2 L 1292.02 1293.55 C 1290.91 1292.8 1263.95 1267.81 1263.18 1266.82 L 1264.21 1264.63 z"/>
<path transform="translate(0,0)" fill="rgb(151,155,152)" d="M 1246.16 1249.55 C 1247.95 1250.55 1255.43 1256.95 1257.57 1258.69 L 1255.92 1260.67 L 1255.43 1260.36 C 1251.48 1257.91 1245.67 1252.37 1241.97 1249.23 C 1243.37 1249.35 1244.76 1249.46 1246.16 1249.55 z"/>
<path transform="translate(0,0)" fill="rgb(239,237,228)" d="M 1178.32 1538.96 C 1180.97 1539.04 1185.65 1538.57 1185.47 1542.06 C 1179.53 1544.64 1179.57 1545.56 1178.32 1538.96 z"/>
<path transform="translate(0,0)" fill="rgb(121,123,121)" d="M 1257.57 1258.69 C 1258.56 1259.6 1259.36 1260.33 1260.25 1261.34 L 1264.21 1264.63 L 1263.18 1266.82 C 1261.79 1265.65 1260.59 1264.62 1259.11 1263.57 C 1257.44 1262.49 1257.09 1262.31 1255.92 1260.67 L 1257.57 1258.69 z"/>
<path transform="translate(0,0)" fill="rgb(185,217,198)" d="M 1259.11 1263.57 C 1259.48 1262.82 1259.86 1262.08 1260.25 1261.34 L 1264.21 1264.63 L 1263.18 1266.82 C 1261.79 1265.65 1260.59 1264.62 1259.11 1263.57 z"/>
<path transform="translate(0,0)" fill="rgb(151,155,152)" d="M 908.108 1056.36 C 905.861 1055.41 898.009 1053.19 896.329 1051.55 C 896.221 1051.44 896.319 1051.35 896.419 1051.21 C 898.13 1050.55 901.958 1052.18 903.588 1052.7 L 906.221 1053.52 L 908.108 1056.36 z"/>
<path transform="translate(0,0)" fill="rgb(185,217,198)" d="M 1259.55 1233.24 C 1258.31 1231.8 1251.82 1226.74 1252.69 1226 C 1254.17 1226.18 1256.2 1227.16 1257.28 1228.24 C 1258.49 1229.84 1259.67 1231.46 1260.81 1233.11 L 1259.55 1233.24 z"/>
<path transform="translate(0,0)" fill="rgb(239,237,228)" d="M 1685.93 814.525 C 1689.21 812.184 1688.03 815.362 1688.03 818.687 C 1685.36 816.938 1682.99 816.61 1685.93 814.525 z"/>
<path transform="translate(0,0)" fill="rgb(3,2,1)" d="M 1386.54 1311.4 L 1387.49 1313.56 L 1385.98 1314.07 L 1384.43 1312.58 L 1386.54 1311.4 z"/>
</svg>