<svg version="1.1" xmlns="http://www.w3.org/2000/svg" viewBox="0 0 2048 2048" width="1024" height="1024">

<path transform="translate(0,0)" fill="rgb(30,42,43)" d="M 401.854 666.006 C 401.78 625.61 423.949 602.869 445.43 570.72 C 467.649 537.188 490.058 503.782 512.656 470.504 L 584.345 363.925 C 597.356 344.666 612.769 319.961 627.917 302.941 C 654.474 273.102 695.811 255.58 735.498 255.119 C 755.032 254.892 775.375 254.879 794.973 254.893 C 828.296 255.413 862.844 252.104 895.066 262.181 C 914.928 268.392 932.28 280.39 949.959 291.091 L 987.576 313.373 L 1161.17 417.582 L 1323.3 514.486 C 1347.28 528.829 1387.13 550.89 1409.12 566.691 C 1433.73 584.377 1471.91 621.765 1495.5 643.494 L 1592.61 732.094 C 1607.71 745.787 1623.26 759.39 1637.92 773.571 C 1654.33 789.451 1655.01 812.595 1639.11 829.516 C 1632.82 836.154 1624.15 840.028 1615.01 840.288 C 1608.09 840.496 1596.79 837.58 1590.48 834.502 C 1550.03 814.753 1511.18 791.589 1471.27 770.755 C 1462.45 766.153 1453.5 761.167 1445.05 755.977 L 1444.78 1156.44 L 1445.06 1316.33 C 1445.06 1343.3 1445.64 1373.62 1444.74 1400.44 C 1489.64 1397.31 1540.49 1421.62 1541.6 1472.3 C 1541.66 1484.56 1541.35 1496.75 1541.42 1509.03 C 1541.48 1520.01 1541.63 1531.01 1541.25 1542 C 1540.66 1558.73 1534.27 1575.79 1522.47 1587.84 C 1518.05 1592.36 1514.31 1595.59 1508.83 1598.8 C 1483.11 1613.84 1456.72 1627.69 1430.47 1641.76 L 1316.73 1703.38 L 1234.64 1748.24 C 1217.49 1757.71 1190.57 1773.79 1172.36 1780.56 C 1128.66 1796.82 1056.71 1794.71 1021.11 1760.61 C 1005.68 1745.83 1002.11 1730.43 1001.85 1710.25 C 987.063 1702.76 965.103 1688.6 949.943 1679.75 L 836.341 1613.58 L 691.579 1529.72 C 667.011 1515.36 626.124 1494.04 606.901 1475.67 C 585.873 1455.55 571.261 1429.66 564.9 1401.26 C 557.238 1368.47 560.672 1313.25 560.207 1277.39 C 559.148 1195.79 561.924 1113.03 560.39 1031.45 C 552.18 1038.47 545.045 1043.15 534.284 1045.59 C 520.994 1048.55 507.071 1045.92 495.769 1038.33 C 475.814 1025.14 471.206 1002.47 477.088 980.112 C 477.802 977.401 482.959 970.188 484.751 967.531 C 486.469 914.751 484.433 858.284 484.958 805.041 C 483.398 799.623 450.921 783.812 443.668 778.777 C 400.575 748.86 400.256 715.301 401.854 666.006 z"/>
<path transform="translate(0,0)" fill="rgb(31,95,91)" d="M 660.913 279.586 C 674.352 286.011 692.75 297.727 705.997 305.698 L 779.168 349.727 L 1006.02 485.001 L 1143.32 566.447 C 1154.08 572.807 1199.35 598.895 1206.05 604.732 C 1172.62 631.636 1136.92 690.395 1111.53 727.635 L 998.351 896.565 C 985.77 915.329 971.585 939.045 957.614 956.21 C 934.56 984.535 881.436 988.708 850.923 971.464 C 827.497 958.224 804.651 944.144 781.67 930.453 C 738.751 905.393 695.985 880.073 653.373 854.496 L 517.35 774.508 C 494.351 761.07 471.342 747.735 448.435 734.139 C 424.132 719.714 407.882 696.275 404.415 667.911 C 404.203 660.804 404.256 649.76 406.401 642.689 C 417.188 608.581 443.959 579.118 463.187 548.943 C 482.819 518.135 503.758 487.526 524.146 457.195 C 544.669 426.402 565.362 395.722 586.224 365.158 C 596.777 349.625 610.061 328.903 621.521 314.687 C 632.557 300.829 645.879 288.958 660.913 279.586 z"/>
<path transform="translate(0,0)" fill="rgb(239,237,228)" d="M 562.982 849.639 C 569.884 852.463 581.408 859.72 588.373 863.819 L 635.421 891.669 L 823.967 1002.82 C 836.22 1009.95 873.104 1034.07 884.152 1037.68 C 934.341 1056.88 970.338 1038.93 1001.93 999.228 C 1000.54 1064 1001.68 1132.27 1001.53 1197.44 L 1001.68 1706.45 C 980.347 1695.18 957.505 1680.76 936.335 1668.56 L 782.421 1579.06 L 687.222 1524.03 C 662.854 1509.95 625.745 1491.01 606.629 1471.74 C 586.409 1451.34 572.475 1425.56 566.483 1397.46 C 561.362 1374.13 562.462 1351.72 562.568 1328.01 L 562.698 1263.82 L 562.991 1029.04 C 574.224 1012.58 577.527 985.454 563.398 969.611 C 563.776 929.62 563.638 889.626 562.982 849.639 z"/>
<path transform="translate(0,0)" fill="rgb(30,42,43)" d="M 928.729 1356 L 928.927 1396.12 C 929.03 1418.55 931.139 1437.19 919.468 1457.29 C 912.014 1470.12 899.666 1479.37 885.258 1482.92 C 878.871 1484.46 866.418 1485.23 860.206 1482.93 C 834.919 1473.57 806.539 1454.49 782.842 1440.71 C 762.05 1428.62 738.627 1415.68 718.8 1403.24 C 675.896 1376.27 645.76 1333.05 635.276 1283.47 C 629.696 1258.28 630.893 1236.33 630.922 1210.84 L 630.995 1142.6 C 630.952 1119.33 629.992 1094.04 631.626 1071.1 C 633.362 1046.73 653.804 1019.09 678.52 1014.99 C 699.068 1011.59 712.034 1019.21 727.977 1029.83 C 752.651 1043.57 777.158 1058.57 801.59 1072.84 C 818.007 1082.43 837.18 1092.38 852.606 1103.02 C 886.638 1126.28 911.499 1160.68 922.913 1200.29 C 932.308 1232.91 928.592 1268.8 929.038 1302.82 C 929.227 1317.21 929.546 1341.96 928.729 1356 z"/>
<path transform="translate(0,0)" fill="rgb(185,217,198)" d="M 925.861 1420.17 C 926.585 1423.24 925.928 1429.64 925.36 1432.92 C 918.842 1470.63 882.603 1493.9 846.431 1474.33 C 810.284 1454.78 775.375 1431.67 739.324 1412.18 C 692.562 1386.9 660.41 1353.33 643.399 1301.82 C 639.074 1288.71 636.229 1275.15 634.918 1261.41 C 631.909 1229.86 634.842 1186.91 633.941 1154.24 C 634.523 1127.32 632.738 1099.53 634.489 1072.72 C 635.998 1049.63 652.418 1024.9 675.276 1018.57 C 697.435 1012.43 709.086 1022.07 726.582 1031.97 C 732.87 1043.24 722.895 1248.48 730.08 1284.29 C 731.972 1293.3 736.208 1301.66 742.361 1308.5 C 751.052 1318.31 787.676 1338.43 801.183 1346.43 L 879.343 1392.48 C 894.67 1401.39 910.554 1411.64 925.861 1420.17 z"/>
<path transform="translate(0,0)" fill="rgb(239,237,228)" d="M 1440.56 757.029 L 1442.04 756.989 L 1442.51 1230.55 L 1442.27 1345.58 C 1442.21 1354.74 1441.38 1392.87 1442.51 1399.88 C 1434.92 1402.36 1429.36 1402.76 1420.72 1406.28 C 1409.79 1410.74 1400.91 1415.26 1390.34 1420.29 C 1371.13 1429.36 1352.04 1438.69 1333.09 1448.29 C 1333.04 1385.91 1332.69 1323.11 1333.76 1260.73 C 1333.77 1260.06 1340.24 1253.51 1339.56 1248.95 C 1338.78 1243.7 1334.77 1241.42 1334.71 1237.69 C 1437.97 1183.52 1409.26 986.103 1295.13 979.85 C 1295.29 956.989 1299.16 930.111 1278.37 914.706 C 1269.13 907.861 1245.6 891.001 1235.68 904.262 C 1229.83 912.081 1230.59 925.734 1239.37 930.604 C 1248.71 937.503 1261.91 925.047 1267.3 931.87 C 1275.58 942.349 1273.66 970.516 1273.48 982.619 C 1223.15 994.847 1192.86 1046.61 1180.37 1093.24 C 1139.32 1111.92 1088.62 1130.83 1078.46 1179.86 C 1076.07 1191.4 1076.87 1207.68 1076.89 1219.63 L 1076.93 1276.34 L 1076.86 1466.45 C 1076.86 1499.03 1078 1540.9 1076.17 1572.74 C 1040.67 1590.68 1019.75 1592.89 1004.07 1631.07 C 1005.5 1611.14 1004.69 1584.31 1004.57 1563.97 L 1004.19 1455.94 L 1004.56 1139 C 1004.67 1091.48 1003.92 1042.75 1004.97 995.402 L 1305.43 830.403 C 1349.09 806.427 1397.73 781.808 1440.56 757.029 z"/>
<path transform="translate(0,0)" fill="rgb(239,237,228)" d="M 1444.03 1403.34 C 1470.77 1400.05 1504.03 1410.36 1522.4 1430.52 C 1533.96 1442.99 1539.99 1459.59 1539.12 1476.57 C 1537.99 1493.43 1530.27 1509.17 1517.62 1520.38 C 1504.36 1532.19 1449.67 1559.68 1431.34 1569.46 L 1296.44 1642.06 L 1218.41 1684.48 C 1176.75 1707.19 1154.14 1721.3 1103.87 1718.38 C 1064.47 1716.5 1013.77 1701.81 1005.61 1656.5 C 1001.3 1632.6 1015.68 1606.46 1037.02 1595.47 C 1061.39 1582.91 1086.33 1571 1111.11 1559.04 L 1239.67 1496.7 L 1363.81 1436.22 C 1388.24 1424.43 1417.76 1407.19 1444.03 1403.34 z"/>
<path transform="translate(0,0)" fill="rgb(31,95,91)" d="M 730.619 257.447 C 741.423 256.617 771.354 256.95 782.75 257.214 C 815.139 257.964 857.514 254.105 888.137 262.521 C 913.297 269.436 944.635 290.051 967.613 303.737 C 998.459 322.089 1029.2 340.61 1059.84 359.301 L 1378.15 549.84 C 1336.17 544.829 1312.35 545.024 1272.75 561.406 C 1248.09 572.412 1228.91 585.34 1208.32 602.608 C 1160.62 575.455 1109.28 543.335 1061.64 514.856 L 824.476 373.722 L 725.62 314.618 C 707.467 303.653 681.402 286.824 662.964 277.557 C 688.158 263.636 702.679 260.116 730.619 257.447 z"/>
<path transform="translate(0,0)" fill="rgb(232,115,90)" d="M 1178.65 1097.05 C 1179.45 1098.11 1177.3 1123.95 1177.22 1128.09 C 1175.68 1208.34 1243.84 1293.59 1330.37 1261.98 C 1331.65 1323.1 1330.44 1387.84 1330.36 1449.28 C 1283.59 1472.72 1236.54 1495.63 1189.24 1517.99 C 1153.52 1535.99 1115.37 1553.64 1079.24 1571.36 C 1078.06 1492.18 1079.09 1412.8 1079.26 1333.61 C 1079.33 1304.96 1076.59 1193.54 1083.41 1173.15 C 1098.09 1129.3 1140.89 1115.7 1178.65 1097.05 z"/>
<path transform="translate(0,0)" fill="rgb(30,42,43)" d="M 1125.06 1334.41 C 1140.65 1331.78 1155.51 1342.01 1158.61 1357.51 C 1161.71 1373.01 1151.93 1388.17 1136.53 1391.73 C 1126.15 1394.14 1115.28 1390.7 1108.16 1382.77 C 1101.05 1374.84 1098.81 1363.66 1102.33 1353.6 C 1105.84 1343.54 1114.55 1336.19 1125.06 1334.41 z"/>
<path transform="translate(0,0)" fill="rgb(31,95,91)" d="M 1208.01 606.179 C 1252.01 568.547 1297.76 545.209 1357.04 549.82 C 1397.36 552.956 1422.16 578.63 1450.52 604.731 L 1493.54 644.485 C 1507.8 658.286 1524.21 672.467 1539.08 685.96 L 1596.6 738.827 C 1610.73 751.697 1625.04 763.923 1638.38 777.643 C 1651.06 790.691 1651.21 810.904 1639.75 824.838 C 1633.75 832.266 1624.89 836.806 1615.35 837.333 C 1596.11 838.435 1585.5 825.624 1572.41 813.661 C 1557.24 799.548 1542.18 785.316 1527.23 770.967 C 1498.71 743.818 1470.01 716.929 1440.64 690.79 C 1392.07 647.566 1378 614.306 1306.62 619.218 C 1305.16 619.526 1303.36 619.964 1301.91 620.159 C 1267.99 623.537 1227.4 654.428 1211.24 683.84 C 1203.69 694.391 1195.55 705.406 1188.45 716.177 L 1055.36 914.221 C 1043.63 931.784 1031.98 949.405 1020.42 967.084 C 999.669 998.688 979.661 1031.96 939.443 1040.81 C 925.734 1043.82 912.321 1042.36 898.807 1039.22 C 895.644 1038.49 887.325 1036.47 884.584 1036.35 L 883.574 1034.44 C 884.125 1032 892.784 1029.4 896.184 1028.03 C 917.053 1019.6 927.535 1008.97 939.879 990.435 C 994.752 906.497 1050.37 823.051 1106.73 740.105 C 1137.2 695.506 1168.5 641.336 1208.01 606.179 z"/>
<path transform="translate(0,0)" fill="rgb(239,237,228)" d="M 1301.51 622.543 C 1312.48 621.122 1319.23 620.77 1330.34 620.988 C 1356.55 651.466 1381.2 682.55 1406.84 713.412 C 1415.14 723.408 1432.49 745.771 1441.21 753.55 C 1427.31 760.102 1405.23 773.013 1391.19 780.644 L 1292.95 833.973 C 1197.49 885.68 1102.34 937.954 1007.51 990.791 C 1021.56 967.36 1043.23 937.012 1058.7 913.993 L 1143.87 786.951 C 1157.08 767.463 1174.57 743.339 1186.52 723.607 L 1188.53 724.96 C 1179.55 750.52 1177.7 784.383 1201.14 803.219 C 1242.28 830.353 1288.49 785.084 1299.03 746.872 C 1307.12 717.53 1302.07 678.612 1268.39 669.504 C 1250.07 665.166 1225.87 676.844 1212.89 689.564 L 1211.65 687.56 L 1213.1 685.048 C 1238.06 650.809 1259.45 632.473 1301.51 622.543 z"/>
<path transform="translate(0,0)" fill="rgb(185,217,198)" d="M 1538.87 1494.81 C 1538.96 1504.3 1538.61 1515.65 1539.11 1524.87 C 1540.78 1556.15 1533.02 1582.12 1504.44 1598.56 C 1480.27 1612.46 1455.66 1625.49 1430.97 1638.67 L 1326.19 1695.45 L 1244.56 1739.93 C 1200.94 1764.22 1167.98 1787.48 1115.85 1787.4 C 1067.86 1787.32 1002.53 1771.64 1004.23 1711.17 C 1004.73 1699.96 1004.93 1686.5 1004.72 1675.12 L 1004.88 1669.66 L 1005.75 1669.22 L 1008.5 1674.66 C 1038.64 1725.11 1113.29 1728.75 1164.01 1714.25 C 1181.5 1709.26 1203.17 1695.88 1219.62 1687.05 L 1312.05 1636.95 L 1426.59 1575.35 C 1452.62 1561.53 1478.95 1547.95 1504.52 1533.24 C 1521.48 1523.49 1530.87 1512.66 1538.87 1494.81 z"/>
<path transform="translate(0,0)" fill="rgb(239,237,228)" d="M 486.695 805.759 C 487.413 805.605 488.131 805.452 488.849 805.298 C 511.399 817.868 533.673 831.485 555.97 844.549 C 558.813 846.214 559.889 847.004 560.913 849.255 C 559.304 880.473 561.965 913.617 560.855 945.214 C 559.819 974.705 568.056 1004.21 527.791 1009.35 C 513.119 1011.22 490.756 1000.98 488.055 985.122 C 484.573 926.016 489.789 864.805 486.695 805.759 z"/>
<path transform="translate(0,0)" fill="rgb(232,115,90)" d="M 1294.96 982.876 C 1364.64 987.294 1398.71 1062.11 1395.61 1124.6 C 1393.76 1179.8 1354.88 1250.13 1290.54 1241.81 C 1193.71 1229.29 1173.34 1086.94 1241.8 1028.79 C 1247.46 1024.7 1266.41 1013.55 1272.83 1014.71 L 1273.24 1016.94 C 1272.14 1018.53 1259.66 1024.56 1256.1 1027.29 C 1207.39 1064.59 1201.72 1148.02 1236.84 1195.98 C 1260.13 1227.79 1300.87 1239.08 1333.37 1213.51 C 1358.89 1193.43 1372.47 1164.94 1376.83 1132.99 C 1381.28 1096.39 1374.44 1052.11 1351.8 1022.06 C 1340.64 1007.63 1321.73 995.297 1303.46 992.173 C 1299.73 991.535 1300.71 992.251 1296.71 990.686 C 1294.25 987.52 1295.09 987.893 1294.96 982.876 z"/>
<path transform="translate(0,0)" fill="rgb(232,115,90)" d="M 1281.17 1051.31 C 1312.2 1049.81 1333.91 1068.21 1330.51 1099.13 C 1329.74 1106.15 1331.18 1114.98 1329.9 1122.31 C 1325.68 1146.7 1315.37 1161.94 1289.43 1161.04 C 1253.17 1153.14 1228.47 1104.1 1246.06 1068.59 C 1249.24 1062.17 1273.7 1052.49 1281.17 1051.31 z"/>
<path transform="translate(0,0)" fill="rgb(232,115,90)" d="M 1271.26 986.027 C 1272.79 986.322 1271.93 985.978 1273.51 987.675 C 1273.47 988.726 1273.43 989.778 1273.4 990.829 C 1264.36 998.789 1249.76 1003.1 1241.12 1011.71 C 1182.41 1070.24 1181.19 1191.23 1258.14 1235.5 C 1280.63 1248.44 1307.04 1246.58 1330.93 1239.34 C 1339.07 1251.91 1337.87 1257.21 1323.27 1261.96 C 1258.08 1280.51 1205.03 1234.08 1186.99 1173.99 C 1174.24 1132.43 1178.95 1087.48 1200.03 1049.47 C 1214.81 1022.41 1241.03 995.043 1271.26 986.027 z"/>
<path transform="translate(0,0)" fill="rgb(232,115,90)" d="M 1295.28 1019.2 C 1305.26 1020.12 1315.15 1022.17 1322.91 1028.5 C 1361.7 1060.18 1364.98 1107.52 1335.4 1146.74 C 1317.08 1174.11 1278.44 1191.43 1249.78 1166.18 C 1209.63 1130.81 1213.12 1079.94 1244.24 1041.68 C 1253.75 1030.69 1260.3 1026.78 1273.54 1020.79 L 1274 1036.54 C 1258.5 1045.08 1248.09 1051.68 1241.45 1069.34 C 1234.43 1088.84 1236.97 1108.36 1245.71 1126.68 C 1267.36 1172.03 1318.31 1181.51 1333.38 1125.39 C 1343.06 1089.33 1334.4 1044.23 1294.88 1033.27 C 1294.85 1028.29 1295.02 1024.15 1295.28 1019.2 z"/>
<path transform="translate(0,0)" fill="rgb(232,115,90)" d="M 1294.2 1013.23 C 1398.75 1022.03 1400.11 1195.69 1306.49 1223.24 C 1289.32 1228.29 1271.97 1221.5 1257.68 1212.55 C 1250.92 1207.89 1244.77 1201.46 1239.12 1195.56 C 1264.96 1210.29 1289.19 1212.85 1315.04 1196.9 C 1361.41 1168.28 1373.38 1096.51 1346.13 1051.14 C 1332.73 1028.82 1319.49 1021.94 1295.61 1016.06 L 1294.2 1013.23 z"/>
<path transform="translate(0,0)" fill="rgb(232,115,90)" d="M 1355.47 1110.7 C 1355.59 1107.7 1356.46 1105.39 1357.46 1102.63 L 1358.11 1100.8 C 1358.09 1107.68 1358.35 1113.56 1357.27 1120.38 C 1353.15 1147.33 1341.97 1173.16 1319.49 1190.4 C 1294.03 1209.91 1254.16 1211.78 1233.53 1184.03 C 1224.4 1171.75 1218.31 1148.24 1217.68 1132.79 C 1216.13 1129.63 1217.15 1120.7 1217.13 1116.92 C 1217.13 1116.44 1217.64 1114.85 1218.56 1115.34 C 1219.49 1116.88 1219.28 1116.92 1219.48 1118.93 C 1229.76 1158.5 1261.45 1196.89 1308.02 1174.76 C 1332.25 1163.25 1347.57 1135.64 1355.47 1110.7 z"/>
<path transform="translate(0,0)" fill="rgb(143,73,60)" d="M 1355.47 1110.7 C 1355.59 1107.7 1356.46 1105.39 1357.46 1102.63 L 1358.11 1100.8 C 1358.09 1107.68 1358.35 1113.56 1357.27 1120.38 C 1357.16 1119.21 1357.08 1118.05 1357.02 1116.88 C 1356.86 1113.37 1357.1 1113.71 1355.47 1110.7 z"/>
<path transform="translate(0,0)" fill="rgb(143,73,60)" d="M 1217.68 1132.79 C 1216.13 1129.63 1217.15 1120.7 1217.13 1116.92 C 1217.13 1116.44 1217.64 1114.85 1218.56 1115.34 C 1219.49 1116.88 1219.28 1116.92 1219.48 1118.93 C 1216.23 1124.48 1218.5 1125.98 1217.68 1132.79 z"/>
<path transform="translate(0,0)" fill="rgb(185,217,198)" d="M 1268.09 671.807 C 1326.48 692.283 1295.3 786.908 1248.98 803.472 C 1231.53 809.714 1220.12 811.409 1203.69 801.542 C 1207.19 799.361 1219.17 795.325 1223.92 793.38 C 1261.75 777.909 1286.79 730.416 1275.61 690.691 C 1274.05 685.127 1270.59 679.121 1268.59 673.293 L 1268.09 671.807 z"/>
<path transform="translate(0,0)" fill="rgb(232,115,90)" d="M 1246.58 909.153 C 1249.46 908.738 1253.04 908.622 1255.99 908.652 C 1265.33 908.764 1274.21 912.735 1280.53 919.622 C 1297.22 937.846 1291.78 972.794 1292.05 996.027 C 1292.24 1012.72 1292.6 1032.48 1291.76 1048.98 L 1277.99 1048.95 C 1274.56 1026.75 1276.97 1000.13 1276.3 977.525 C 1275.56 952.947 1281.9 939.037 1259.95 923.11 C 1248.54 922.836 1241.76 923.191 1246.58 909.153 z"/>
<path transform="translate(0,0)" fill="rgb(185,217,198)" d="M 478.177 1003.69 C 480.978 1005.92 482.528 1008.92 485.224 1011.42 C 498.865 1024.17 518.953 1028.53 536.994 1024.82 C 546.154 1022.94 554.469 1019.15 561.476 1012.96 C 565.278 1009.6 567.057 1006 569.897 1001.93 C 569.06 1006.45 568.345 1012.01 567.027 1016.32 L 566.486 1018.22 L 566.031 1019.02 C 558.82 1031.8 546.994 1040.91 532.5 1042.95 C 503.492 1047.04 482.029 1032.06 478.177 1003.69 z"/>
<path transform="translate(0,0)" fill="rgb(185,217,198)" d="M 483.867 972.388 C 484.828 984.672 484.216 990.555 493.271 999.719 C 515.15 1021.86 561.859 1014.08 563.368 978.827 C 563.909 970.968 565.608 975.789 567.868 979.737 C 578.036 1003.99 549.643 1023.15 527.999 1023.36 C 508.714 1023.55 485.728 1016.87 478.942 996.513 C 475.352 985.744 478.793 981.415 483.867 972.388 z"/>
<path transform="translate(0,0)" fill="rgb(232,115,90)" d="M 1295.02 993.476 C 1325.97 998.238 1349.7 1014.61 1362.13 1044.33 C 1365.47 1052.31 1369.99 1064.61 1370.96 1073.2 C 1369.22 1071.15 1368.85 1069.77 1367.69 1067.24 C 1352.57 1034.41 1331.54 1015.27 1294.98 1010.52 L 1295.02 993.476 z"/>
<path transform="translate(0,0)" fill="rgb(232,115,90)" d="M 1273.08 996.027 C 1273.23 1000.95 1273.27 1005.92 1273.48 1010.82 C 1253.44 1017.4 1238.32 1024.42 1225.06 1041.95 L 1222.42 1039.87 C 1239.84 1015.56 1245.01 1009.01 1273.08 996.027 z"/>
<path transform="translate(0,0)" fill="rgb(232,115,90)" d="M 1242.94 902.159 C 1247.13 901.769 1262.44 902.857 1253.54 905.918 C 1249.73 905.466 1242.61 906.196 1242.13 912.054 C 1241.03 925.473 1246.95 924.617 1256.52 925.554 C 1256.32 930.012 1247.86 930.822 1245.48 929.992 C 1228.92 924.202 1232.79 909.955 1242.94 902.159 z"/>
<path transform="translate(0,0)" fill="rgb(247,245,238)" d="M 1272.89 1040.84 C 1275.01 1042.99 1275.5 1048.77 1274.44 1049.36 C 1268.62 1052.57 1255.76 1058.36 1250.39 1061.12 C 1249.92 1061.31 1249.63 1061.53 1249.19 1061.41 C 1249.17 1061.38 1249.15 1061.35 1249.14 1061.31 C 1249.06 1060.78 1249.68 1059.94 1249.97 1059.57 C 1256.76 1051.15 1263.75 1046.37 1272.89 1040.84 z"/>
<path transform="translate(0,0)" fill="rgb(239,237,228)" d="M 1294.6 1036.04 L 1295.97 1036.44 C 1299.92 1037.54 1313.18 1041.89 1312.64 1047.03 C 1305.62 1048.6 1301.84 1048.81 1294.83 1049.2 L 1294.6 1036.04 z"/>
<path transform="translate(0,0)" fill="rgb(239,237,228)" d="M 1302.54 1051.49 C 1308.64 1050.64 1311.33 1050.16 1317.4 1049.72 C 1324.22 1057.06 1325.25 1059.74 1329.44 1068.33 L 1328.06 1068.9 C 1318.84 1058.02 1315.91 1056.68 1302.54 1051.49 z"/>
<path transform="translate(0,0)" fill="rgb(127,103,114)" d="M 1329.44 1068.33 C 1331.2 1071.67 1332.44 1075.26 1333.13 1078.97 C 1333.91 1083.08 1335.17 1086.79 1335.06 1091 C 1334.9 1096.86 1335.58 1102.76 1334.22 1108.53 C 1334.09 1109.11 1334.02 1114.11 1332.78 1113.91 C 1331.26 1112.29 1332.09 1090.21 1332 1086.49 C 1331.83 1078.89 1330.75 1076 1328.06 1068.9 L 1329.44 1068.33 z"/>
<path transform="translate(0,0)" fill="rgb(143,73,60)" d="M 1220.56 1043.28 L 1222.93 1045.13 C 1218.36 1052.19 1215.48 1058.73 1211.45 1065.92 C 1211.28 1066.23 1210.46 1065.96 1210.54 1065.61 C 1211.95 1059.51 1217.47 1048.43 1220.56 1043.28 z"/>
<path transform="translate(0,0)" fill="rgb(185,217,198)" d="M 1190.58 718.424 C 1190.76 721.339 1189.98 722.081 1188.53 724.96 L 1186.52 723.607 C 1188.27 721.111 1188.52 720.68 1190.58 718.424 z"/>
<path transform="translate(0,0)" fill="rgb(191,76,56)" d="M 1220.56 1043.28 L 1222.42 1039.87 L 1225.06 1041.95 L 1222.93 1045.13 L 1220.56 1043.28 z"/>
<path transform="translate(0,0)" fill="rgb(185,217,198)" d="M 1212.89 689.564 C 1212.12 690.41 1209.98 693.24 1208.68 693.189 L 1208.57 693.029 C 1208.43 691.587 1210.92 688.532 1211.65 687.56 L 1212.89 689.564 z"/>
</svg>