<svg version="1.1" xmlns="http://www.w3.org/2000/svg" viewBox="0 0 2048 2048" width="1024" height="1024">

<path transform="translate(0,0)" fill="rgb(30,42,43)" d="M 937.807 133.631 C 977.993 121.927 1013.2 118.193 1055.02 124.162 C 1118.16 134.822 1177.68 168.787 1214.96 221.434 C 1216.25 223.269 1217.53 225.12 1218.77 226.987 C 1224.63 235.824 1227.44 243.413 1237.04 245.676 C 1244.14 247.199 1250.2 248.623 1257.19 250.567 C 1265.57 252.659 1274.45 254.718 1282.68 257.193 C 1330.16 271.17 1401.59 299.934 1428.23 342.792 C 1434.02 351.212 1438.55 358.96 1441.5 368.877 C 1468.32 446.947 1372.32 504.614 1311 526.334 C 1318.55 534.228 1322.91 540.272 1328.79 549.512 C 1339.36 564.789 1355.33 592.336 1361.05 609.912 C 1385.73 659.628 1384.74 721.837 1384.13 775.889 C 1383.87 799.402 1384.66 824.283 1383.87 847.639 C 1384.14 866.273 1384.9 896.224 1383.81 914.445 C 1384.48 970.239 1383.66 1026.15 1383.96 1081.95 C 1384.01 1090.75 1384.04 1099.66 1383.81 1108.44 C 1384.09 1127.15 1384.2 1144.81 1382.56 1163.47 C 1377.41 1221.66 1320.93 1278.59 1261.3 1278.98 C 1261.46 1306.29 1262.8 1354.64 1261.12 1381.04 C 1261.36 1388.13 1262.05 1416.43 1261.06 1422.42 C 1266.66 1426.61 1271.93 1431.72 1272.2 1439.11 C 1274 1489.82 1272.39 1542 1272.9 1592.7 C 1284.86 1594.73 1296.36 1596.55 1307.93 1600.38 C 1331.57 1609.59 1351.11 1623 1364.89 1644.8 C 1373.41 1655.59 1379.73 1672.11 1383.1 1685.38 C 1383.75 1689.18 1384.86 1694.13 1384.77 1697.83 C 1385.72 1707.17 1386.18 1717.68 1387.38 1726.68 C 1388.1 1733.28 1388.72 1739.51 1389.01 1746.15 C 1391.41 1802.22 1347.3 1852.65 1291.72 1858.52 C 1281.73 1860.9 1264.41 1857.67 1254.74 1855.01 L 1246.39 1852.32 L 1243.37 1851.15 C 1234.83 1847.33 1226.57 1842.9 1218.67 1837.89 L 1210.2 1832.91 C 1199.06 1826.28 1187.95 1819.59 1176.87 1812.84 C 1171.7 1809.66 1165.82 1805.66 1160.22 1803.61 L 1160.12 1804.57 C 1162.8 1813 1163.99 1832.91 1161.52 1840.79 C 1155.21 1899.16 1106.13 1947.44 1045.65 1940.75 C 1043.16 1940.46 1040.68 1940.11 1038.21 1939.7 C 1014.98 1934.37 984.219 1915.12 963.723 1901.82 C 959.273 1899.59 952.741 1895.43 948.275 1892.75 C 934.96 1885.56 917.716 1874.57 904.577 1866.63 L 826.789 1819.35 C 823.311 1817.85 818.966 1814.59 815.751 1812.98 C 780.376 1795.33 785.942 1778.32 786.226 1743.5 C 786.366 1726.24 786.3 1706.38 786.336 1688.43 L 786.471 1572.53 C 786.509 1562.06 785.872 1524 788.188 1515.8 C 790.497 1510.65 792.366 1508.6 795.759 1504.17 L 795.93 1487.69 C 795.342 1482.55 795.566 1473.44 796.13 1468.33 C 793.137 1467.66 785.265 1468.85 781.908 1469.38 C 761.453 1472.6 746.059 1471.27 726.993 1462.68 C 685.07 1448.8 662.201 1409.04 658.026 1367.02 C 658.827 1318.59 657.443 1269.19 658.161 1220.52 C 657.391 1205.98 657.973 1185.28 657.983 1170.39 L 658.076 1075.73 C 657.92 1063.41 657.949 1051.09 658.163 1038.77 C 656.904 1009.31 657.67 967.549 658.152 937.893 C 662.063 874.282 679.529 809.844 712.391 754.946 C 713.708 752.072 718.879 743.776 720.718 740.672 C 730.917 724.67 753.166 691.665 767.507 679.525 L 768.091 678.867 C 774.024 670.678 784.53 661.344 792.162 654.371 L 799.784 647.982 C 800.69 646.833 807.98 640.405 809.515 639.01 L 801.453 627.228 C 799.488 622.407 792.17 610.199 789.315 604.486 C 783.613 593.078 780.299 584.899 775.899 573.084 C 772.476 563.11 768.047 550.115 766.182 539.942 C 752.064 535.168 738.066 530.793 724.258 525.177 C 700.855 516.735 656.13 494.352 638.751 478.009 L 633.587 473.936 C 605.689 448.536 584.686 419.978 592.402 379.868 C 598.652 347.383 623.412 321.746 649.911 303.719 C 652.953 301.428 656.787 298.97 659.987 296.794 C 664.199 294.164 667.293 292.49 671.731 290.248 L 679.055 286.137 L 688.728 281.321 C 697.558 277.09 708.468 272.253 717.618 269.055 C 726.151 264.953 744.177 259.851 753.626 257.016 C 769.177 252.715 784.858 248.9 800.647 245.577 C 820.681 213.114 837.58 192.063 868.585 168.948 C 872.236 165.974 873.93 164.94 878.009 162.494 C 880.362 160.601 883.99 158.642 886.697 157.063 C 889.131 154.646 905.105 147.135 908.938 145.411 C 911.566 144.059 914.562 142.738 917.27 141.48 C 923.382 138.548 931.305 135.952 937.807 133.631 z"/>
<path transform="translate(0,0)" fill="rgb(247,245,238)" d="M 979.697 1565.43 C 981.593 1564.68 983.463 1563.86 985.301 1562.98 C 1002.74 1554.5 1016.66 1541.84 1023.93 1523.62 C 1025.46 1519.79 1026.05 1515.84 1027.46 1511.87 L 1028.11 1510.09 C 1030.4 1513.02 1034.44 1517.92 1034.55 1521.82 C 1035.74 1563.32 1034.63 1604.99 1034.96 1646.53 C 1035.04 1655.55 1035.1 1664.8 1034.74 1673.79 C 993.485 1679.2 971.301 1687.96 943.555 1722.17 C 941.056 1725.25 939.225 1728.17 938.236 1732.02 L 938.883 1734.19 L 940.319 1734.75 C 945.68 1728.92 948.773 1722.48 954.845 1715.77 C 975.356 1692.93 1004.33 1679.5 1035.01 1678.59 C 1066.2 1677.55 1096.54 1688.83 1119.49 1709.97 C 1140.01 1729.03 1154.45 1757.99 1155.21 1786.23 C 1155.9 1815.02 1145.02 1842.88 1125 1863.59 C 1106.62 1882.61 1082.07 1893.12 1055.53 1892.63 C 1030.12 1892.16 1012.24 1880.59 991.133 1867.92 C 977.681 1859.84 964.071 1851.63 950.573 1843.45 L 860.135 1788.96 C 838.086 1775.5 812.599 1759.18 790.275 1746.72 C 790.292 1742.58 790.125 1738.61 789.967 1734.48 C 791.162 1676.8 789.344 1618.63 790.041 1560.92 C 790.202 1547.52 789.145 1531.59 791.007 1518.49 L 794.723 1512.13 C 810.533 1577.44 903.154 1587.32 957.199 1573.51 C 963.488 1571.9 974.22 1568.73 979.697 1565.43 z"/>
<path transform="translate(0,0)" fill="rgb(247,245,238)" d="M 1259.63 1434.78 L 1262.26 1427.9 C 1269.71 1438.2 1268.63 1444.46 1268.93 1457.13 C 1267.76 1480.92 1268.76 1508.99 1268.43 1533.14 C 1268.28 1544.93 1267.75 1574.18 1268.8 1584.62 C 1268.48 1588.18 1268.98 1590.62 1267.1 1592.75 C 1231.08 1594.96 1204.64 1603.04 1179.25 1630.83 C 1174.21 1636.35 1165.17 1646.93 1165.25 1654.49 C 1170.04 1652.69 1178.9 1638.38 1183.07 1633.63 C 1204.53 1609.13 1236.34 1597.16 1268.08 1596.99 C 1283.04 1597.87 1292.26 1599.96 1306.78 1604.36 C 1330.39 1615.12 1343.24 1624.02 1359.44 1644.68 C 1369.14 1659.18 1373.33 1667.92 1378.41 1684.7 C 1380.87 1697.82 1381.22 1704.22 1380.83 1717.57 C 1379.61 1721.14 1378.2 1731.14 1377.21 1735.48 C 1364.75 1790.2 1303 1828.32 1249.42 1805.51 C 1235.98 1799.79 1222.05 1789.94 1209.42 1782.41 C 1191.6 1771.06 1167.02 1759.27 1151.05 1746.14 C 1148.54 1744.08 1136.6 1720.39 1128.54 1712.43 C 1102.34 1686.5 1075.6 1675.21 1039.5 1673.85 C 1039 1632.33 1039.74 1590.74 1039.46 1549.22 C 1039.37 1537.03 1041.28 1519.7 1033.82 1509.77 C 1031.97 1507.17 1029.65 1505.45 1027.22 1503.37 C 1026.95 1481.14 1026.94 1458.9 1027.21 1436.66 L 1028.04 1433.04 L 1028.91 1434.77 C 1034.15 1447.26 1038.09 1457.84 1049.1 1466.88 C 1092.53 1502.56 1160.97 1505.57 1211.45 1484.39 C 1212.81 1483.81 1213.92 1483.16 1215.14 1482.38 C 1215.84 1478.34 1223.33 1475.12 1226.72 1472.71 C 1236.52 1466.04 1244.13 1457.87 1251.3 1448.56 C 1255.7 1442.83 1254.15 1439.66 1259.63 1434.78 z"/>
<path transform="translate(0,0)" fill="rgb(30,42,43)" d="M 1215.14 1482.38 C 1215.84 1478.34 1223.33 1475.12 1226.72 1472.71 C 1236.52 1466.04 1244.13 1457.87 1251.3 1448.56 C 1255.7 1442.83 1254.15 1439.66 1259.63 1434.78 C 1254.03 1456.44 1235.45 1474.03 1215.14 1482.38 z"/>
<path transform="translate(0,0)" fill="rgb(239,237,228)" d="M 848.885 1075.35 L 848.749 1291.01 C 848.794 1298.09 847.665 1335.85 849.306 1340.75 L 852.61 1343.89 C 867.321 1355.82 886.582 1364.63 878.977 1386.16 C 855.463 1418.15 839.785 1381.45 823.26 1378.66 L 822.546 1380.69 C 825.68 1386.34 846.387 1400.59 853.967 1403.11 C 844.998 1429.16 834.584 1439.62 811.84 1455.38 C 784.896 1467.26 766.758 1468.79 738.365 1462.12 C 703.361 1449.87 677.611 1428.17 666.613 1391.8 C 664.445 1384.62 663.913 1376.63 662.29 1369.27 C 661.423 1341.51 662.074 1311.35 662.097 1283.31 L 661.869 1111.58 C 662.488 1104.45 662.102 1087.62 662.12 1079.82 C 670.011 1092.5 674.633 1100.27 686.547 1109.75 C 726.56 1141.56 810.74 1137.59 839.728 1091.19 C 843.807 1086.27 846.191 1081.11 848.885 1075.35 z"/>
<path transform="translate(0,0)" fill="rgb(31,95,91)" d="M 1235.45 1148.32 C 1240.84 1142.9 1247.1 1131.81 1255.02 1133.88 C 1259.34 1138.1 1259.57 1142.24 1261.02 1148.26 C 1261.4 1165.87 1262.9 1202.68 1261.54 1219.21 C 1260.7 1221.25 1260.22 1225.11 1260.86 1227.28 C 1261.52 1238.51 1261.68 1263.08 1260.77 1274.23 C 1256.92 1279.62 1258.82 1367.5 1260.85 1379.5 L 1261.12 1381.04 C 1261.36 1388.13 1262.05 1416.43 1261.06 1422.42 C 1260.96 1426.62 1260.3 1424.94 1262.26 1427.9 L 1259.63 1434.78 C 1254.15 1439.66 1255.7 1442.83 1251.3 1448.56 C 1244.13 1457.87 1236.52 1466.04 1226.72 1472.71 C 1223.33 1475.12 1215.84 1478.34 1215.14 1482.38 C 1213.92 1483.16 1212.81 1483.81 1211.45 1484.39 C 1160.97 1505.57 1092.53 1502.56 1049.1 1466.88 C 1038.09 1457.84 1034.15 1447.26 1028.91 1434.77 C 1031.73 1432.97 1032.54 1431.82 1032.71 1428.41 C 1033.32 1415.8 1033.09 1402.92 1033.08 1390.3 L 1032.97 1306.64 C 1032.93 1294.48 1032.19 1271.06 1033.38 1259.6 C 1035.26 1257.07 1036.24 1257.5 1039.95 1256.3 C 1051.83 1257.35 1091.82 1245.51 1103.89 1240.3 C 1154.94 1226.19 1200.58 1186.84 1235.45 1148.32 z"/>
<path transform="translate(0,0)" fill="rgb(31,95,91)" d="M 852.877 1223.68 C 858.458 1224.62 864.257 1227.64 869.454 1230.02 C 891.081 1239.9 913.745 1249.68 937.424 1253.18 C 962.003 1257.49 994.252 1261.78 1018.7 1257.17 L 1021.84 1258.62 C 1023.59 1263.75 1022.38 1283.59 1022.31 1290.05 L 1022.13 1357.34 C 1022.03 1375.53 1019.98 1425.71 1025.44 1440.88 C 1021.39 1472.96 1032.99 1523.73 1004.08 1547.86 C 999.211 1551.92 981.47 1561.81 979.697 1565.43 C 974.22 1568.73 963.488 1571.9 957.199 1573.51 C 903.154 1587.32 810.533 1577.44 794.723 1512.13 C 800.286 1506.25 797.845 1494.85 795.93 1487.69 C 795.342 1482.55 795.566 1473.44 796.13 1468.33 C 799.003 1467.71 813.943 1459.2 817.055 1457.2 C 839.784 1438.74 848.073 1431.25 858.838 1403.07 C 869.448 1400.28 877.722 1398.65 878.977 1386.16 C 886.582 1364.63 867.321 1355.82 852.61 1343.89 C 851.608 1333.43 852.75 1319.37 852.689 1308.42 C 852.533 1280.36 853.548 1251.7 852.877 1223.68 z"/>
<path transform="translate(0,0)" fill="rgb(239,237,228)" d="M 1379.41 826.02 C 1379.83 828.761 1380.13 830.414 1380.27 833.211 C 1379.63 846.35 1379.83 862.3 1380.15 875.525 C 1379.85 914.843 1379.74 954.162 1379.83 993.482 C 1379.82 1006.59 1378.84 1040.56 1379.84 1052.49 L 1379.75 1053.83 C 1375.48 1123.79 1395.56 1189.64 1335.61 1242.98 C 1316.3 1260.15 1291.49 1273.32 1263.95 1275.02 C 1262.89 1275.08 1261.77 1274.6 1260.77 1274.23 C 1261.68 1263.08 1261.52 1238.51 1260.86 1227.28 C 1260.22 1225.11 1260.7 1221.25 1261.54 1219.21 C 1262.9 1202.68 1261.4 1165.87 1261.02 1148.26 L 1261.61 1119.08 C 1301.14 1062.64 1324.39 996.414 1328.82 927.65 C 1329.95 911.126 1328.83 893.151 1329.33 876.273 C 1333.96 874.744 1335.48 874.065 1339.78 871.753 C 1356 862.419 1368.75 847.901 1376.92 831.13 L 1379.41 826.02 z"/>
<path transform="translate(0,0)" fill="rgb(30,42,43)" d="M 1261.54 1219.21 L 1261.83 1221.18 C 1262.6 1226.28 1275.12 1219.9 1277.76 1218.65 C 1292.46 1211.64 1299.13 1193.75 1292.05 1179 C 1286.16 1166.72 1275.82 1166.94 1268.43 1158.15 C 1268.42 1157.97 1268.41 1157.79 1268.4 1157.61 C 1271.86 1154.19 1288.24 1165.28 1290.75 1168.6 C 1312.51 1197.4 1292.94 1225.17 1260.86 1227.28 C 1260.22 1225.11 1260.7 1221.25 1261.54 1219.21 z"/>
<path transform="translate(0,0)" fill="rgb(239,237,228)" d="M 773.511 681.226 C 787.224 671.305 806.801 663.971 821.067 654.705 C 863.883 702.252 895.175 723.314 955.604 744.53 C 957.306 748.346 959.527 753.897 961.672 757.28 C 966.245 768.721 970.974 780.098 975.859 791.409 C 988.124 821.364 997.864 852.292 1004.98 883.869 L 1147.7 813.66 C 1168.44 803.438 1191.57 790.998 1212.6 781.893 C 1221.42 818.357 1227.48 855.432 1230.74 892.805 C 1258.26 879.942 1283.86 866.83 1310.96 853.811 C 1314.85 851.973 1318.14 850.109 1321.86 848.011 L 1324.14 848.611 C 1325.68 854.462 1324.62 877.42 1324.87 885.145 C 1327.12 954.355 1312.54 1024.63 1277.27 1085.12 C 1263.89 1108.32 1248.18 1130.11 1230.39 1150.14 C 1193.66 1188.84 1153.02 1220.14 1101.66 1237.39 C 1076.3 1246.5 1061.54 1249.29 1035.42 1253.33 C 1029.98 1253.51 1024.87 1254.17 1019.46 1254.79 C 986.184 1256.17 967.645 1255.21 935.096 1248.96 C 900.737 1241.37 883.793 1233.34 853.385 1218.17 C 852.556 1214.51 852.961 1182.27 852.986 1176.34 L 853.287 1092.59 C 853.283 1077.91 853.662 1058.73 852.657 1044.27 C 873.816 1039.1 902.63 1020.7 915.286 1002.88 C 943.326 976.093 953.728 916.106 939.527 880.268 C 933.581 853.707 916.239 808.411 903.502 784.236 C 899.746 774.334 882.654 749.095 875.771 741.758 C 870.117 733.625 861.526 725.584 854.206 718.968 C 827.517 696.188 806.686 689.453 773.511 681.226 z"/>
<path transform="translate(0,0)" fill="rgb(247,245,238)" d="M 797.767 252.119 C 796.13 255.206 794.573 258.335 793.097 261.502 C 780.818 288.331 766.221 338.778 776.898 367.9 C 787.99 398.151 821.784 418.722 850.385 430.823 C 946.883 471.652 1074.21 471.613 1172 435.04 C 1203.77 423.16 1241.65 401.554 1256.03 369.315 C 1267.64 343.282 1254.85 300.47 1245.29 275.253 C 1242.07 266.769 1237.55 258.838 1234.23 250.666 L 1236 249.411 C 1241.9 251.186 1247.27 252.398 1253.26 253.764 C 1260.89 255.607 1272.59 259.059 1279.72 260.41 L 1280.53 260.74 C 1292.13 265.348 1305.52 268.51 1317.31 273.127 C 1359.53 289.656 1394.1 308.788 1423.34 343.933 C 1430.2 354.434 1433.62 360.154 1438.28 371.749 C 1460.34 452.659 1367.27 498.468 1306.26 523.289 C 1240.74 546.721 1179.54 557.81 1110.34 563.8 C 1094.46 565.069 1078.56 565.994 1062.65 566.573 C 1058.38 566.735 1041.57 566.974 1038.19 567.631 C 922.859 568.8 838.425 558.361 729.654 522.5 C 727.56 521.186 701.936 510.546 697.527 508.559 C 675.285 498.531 661.153 489.271 641.795 474.912 L 637.861 471.526 C 589.426 431.267 577.545 379.027 624.612 331.04 C 635.143 320.303 644.884 312.964 656.927 304.134 C 660.021 302.536 664.037 299.648 667.038 297.645 C 668.824 296.977 673.219 294.463 675.121 293.434 L 682.953 289.329 L 694.08 283.662 C 702.795 280.65 718.002 273.648 727.484 269.866 C 735.692 267.261 745.753 264.354 753.639 261.264 C 762.614 258.864 791.498 250.03 797.767 252.119 z"/>
<path transform="translate(0,0)" fill="rgb(247,245,238)" d="M 942.297 136.763 C 973.88 126.053 1005.75 123.963 1038.75 126.077 C 1105.08 135.163 1161.74 162.566 1204.76 215.714 C 1210.19 222.419 1214.96 230.447 1220.37 237.233 C 1239.83 271.445 1262.92 319.831 1253.94 360.922 C 1248.76 384.62 1217.78 408.33 1197.64 418.642 C 1103.87 464.538 984.262 467.526 885.015 438.868 C 850.566 428.921 801.702 406.072 784.438 373.257 C 767.19 340.47 786.45 287.426 800.678 256.109 C 818.502 222.616 839.782 196.288 870.261 173.572 L 881.288 165.842 L 887.575 161.812 C 897.376 156.373 907.304 151.167 917.35 146.197 L 924.336 143.223 C 930.96 140.469 935.437 138.885 942.297 136.763 z"/>
<path transform="translate(0,0)" fill="rgb(232,115,90)" d="M 767.047 686.05 C 773.089 686.066 780.541 687.8 786.577 689.212 C 817.149 696.36 833.656 707.177 856.801 727.003 C 861.621 732.407 866.702 737.723 871.438 743.14 C 884.726 759.971 891.865 772.021 902.124 790.834 C 912.45 813.041 919.436 830.051 926.767 853.179 C 941.806 898.652 950.723 928.495 928.006 975.266 C 921.782 988.082 914.275 997.196 904.96 1007.96 C 885.516 1024.2 877.737 1029.52 853.947 1039.48 C 851.837 1033.19 853.597 1025.7 852.927 1019.66 C 851.092 1003.09 856.503 953.995 851.911 941.38 L 850.043 940.939 C 847.955 950.419 848.635 963.276 848.747 973.176 C 848.911 989.635 848.987 1006.09 848.974 1022.55 C 849.006 1055.99 850.738 1062.75 834.362 1091.91 C 831.702 1093.59 823.97 1102.27 819.885 1105.4 C 777.456 1137.85 696.701 1133.41 669.584 1082.15 C 659.191 1062.5 662.589 1039.5 661.951 1015.57 C 662.813 991.407 661.925 964.498 662.376 939.758 C 663.466 935.203 665.393 903.984 666.834 894.938 C 674.571 846.723 691.121 800.346 715.657 758.127 L 724.99 742.711 C 739.103 720.524 749.634 705.696 767.047 686.05 z"/>
<path transform="translate(0,0)" fill="rgb(239,237,228)" d="M 1035.1 571.763 C 1134.05 569.842 1192.72 561.611 1286.92 535.33 C 1275.22 600.468 1232.4 665.563 1178.14 703.304 C 1122.37 742.735 1053.16 758.24 985.903 746.368 C 909.221 732.253 856.917 694.401 811.184 633.198 L 807.458 627.614 L 803.211 620.806 C 802.443 618.803 798.718 612.314 797.417 610.195 C 785.916 591.463 780.237 571.968 773.378 551.168 L 771.071 540.909 C 863.999 565.978 939.235 572.136 1035.1 571.763 z"/>
<path transform="translate(0,0)" fill="rgb(30,42,43)" d="M 1199.08 582.037 C 1208.35 581.839 1217.42 584.48 1220.21 593.977 C 1224.88 609.818 1223.7 625.152 1207.26 631.068 C 1195.28 631.255 1193.65 629.994 1185.86 620.763 C 1183.05 603.812 1181.8 590.42 1199.08 582.037 z"/>
<path transform="translate(0,0)" fill="rgb(30,42,43)" d="M 1083.06 605.079 C 1086.82 604.843 1090.44 604.385 1094.02 605.762 C 1098.82 607.647 1102.67 611.398 1104.66 616.161 C 1110.74 630.365 1107.3 645.869 1092.35 652.338 C 1089.22 652.78 1086.69 653.235 1083.56 652.483 C 1078.7 651.358 1074.51 648.294 1071.97 644.003 C 1068.4 637.996 1068.4 626.055 1070.33 619.589 C 1072.73 611.549 1076.39 608.926 1083.06 605.079 z"/>
<path transform="translate(0,0)" fill="rgb(232,115,90)" d="M 1291.17 532.898 C 1294.26 532.265 1304.56 528.746 1308.07 527.647 C 1310.5 533.016 1320.61 545.438 1324.69 551.654 C 1334.18 565.877 1352.33 595.294 1357.04 611.139 L 1359.55 616.222 C 1370.01 646.324 1379.2 675.478 1379.85 707.8 C 1380.25 727.371 1380.23 746.943 1380.23 766.519 C 1379.93 786.112 1382.5 806.531 1374.67 824.849 C 1368.27 838.586 1363.78 844.876 1352.86 855.766 C 1352 856.617 1343.86 864.117 1343.78 864.232 C 1339.28 866.951 1334.22 870.362 1329.35 872.061 C 1328.08 853.336 1331.12 725.244 1328.01 718.842 L 1325.5 718.396 C 1321.91 723.475 1327.58 827.934 1324.31 841.538 C 1323.37 842.501 1322.43 843.464 1321.49 844.427 C 1316.47 846.094 1312.52 848.153 1307.78 850.448 L 1305.73 840.984 L 1302.82 825.13 L 1299.47 808.707 C 1295.2 785.798 1286.39 755.627 1278.5 733.878 C 1270.31 705.394 1254.98 673.494 1242.49 646.667 C 1260.65 621.648 1290.85 564.583 1291.17 532.898 z"/>
<path transform="translate(0,0)" fill="rgb(232,115,90)" d="M 1189.26 701.494 C 1196.3 724.951 1204.2 753.32 1211.57 776.241 C 1188.13 789.593 1155.87 804.457 1130.97 816.733 C 1090.36 837.031 1049.62 857.082 1008.76 876.884 C 1001.11 849.718 992.692 820.224 981.738 794.18 C 978.382 784.094 970.661 767.503 966.113 757.729 L 960.921 745.868 C 1044.07 765.683 1119.74 752.745 1189.26 701.494 z"/>
<path transform="translate(0,0)" fill="rgb(247,245,238)" d="M 789.969 1754.7 L 791.681 1753.52 C 796.653 1755.4 830.849 1776.67 836.875 1780.33 L 938.101 1841.38 C 986.574 1870.53 1039.59 1916.45 1097.47 1888.93 C 1124.68 1875.99 1143.06 1854.94 1153.67 1826.92 C 1154.68 1824.22 1155.64 1821.5 1156.55 1818.76 C 1159.04 1828.03 1156.86 1833.69 1157.29 1841.7 C 1148.29 1899 1104.49 1942.51 1044.3 1936.28 C 1015.8 1930.64 992.342 1913.38 967.105 1898.81 C 961.145 1895.02 955.276 1891.72 949.127 1888.23 C 942.458 1883.13 915.791 1867.9 907.254 1862.76 C 881.765 1847.07 856.149 1831.59 830.41 1816.32 C 790.446 1792.4 792.114 1800.23 789.969 1754.7 z"/>
<path transform="translate(0,0)" fill="rgb(239,237,228)" d="M 1239.35 651.887 C 1253.33 679.298 1265.32 707.681 1275.21 736.817 C 1279.82 750.597 1283.95 764.538 1287.57 778.611 C 1289.01 784.096 1292.92 800.863 1294.76 805.35 C 1296.07 812.915 1297.56 819.657 1299.29 827.147 C 1300.32 833.117 1301.23 838.973 1302.69 844.857 L 1303.01 850.091 C 1300.16 855.658 1244.39 881.333 1234.91 885.153 C 1233.79 877.638 1232.92 869.463 1232.08 861.864 C 1228.93 833.599 1223.02 806.598 1216.3 778.989 C 1210.67 755.129 1201.17 721.711 1192.49 698.583 C 1211.13 683.589 1224.23 670.699 1239.35 651.887 z"/>
<path transform="translate(0,0)" fill="rgb(247,245,238)" d="M 1153.35 1754.02 L 1206.57 1786.41 C 1218.49 1793.65 1229.99 1801.03 1242.44 1807.21 C 1293.91 1832.79 1352.16 1804.65 1376.04 1755.1 C 1379.26 1748.41 1380.36 1741.31 1383.5 1734.7 L 1384.87 1735.7 C 1385.37 1770.73 1379.25 1796.75 1354.32 1823.03 C 1335.9 1842.47 1315.34 1851.19 1288.97 1854.31 C 1280.36 1854.25 1274.83 1854.07 1266.32 1853.13 L 1254 1850.07 C 1250.38 1848.84 1245.62 1846.71 1241.98 1845.22 C 1235.37 1841.93 1228.6 1838.02 1221.94 1834.59 C 1219.09 1832.52 1214.41 1829.99 1211.25 1828.15 C 1208.8 1825.95 1185.81 1812.65 1181.97 1810.52 C 1177.53 1807.57 1167.92 1801 1163.23 1799.78 C 1158.85 1795.09 1159.57 1788.35 1158.97 1781.89 C 1158.03 1771.88 1156.09 1763.65 1153.35 1754.02 z"/>
<path transform="translate(0,0)" fill="rgb(239,237,228)" d="M 812.519 643.426 C 814.588 646.195 816.681 648.945 818.799 651.676 C 809.188 656.042 801.474 660.57 792.498 664.829 C 789.08 666.841 786.978 667.901 783.428 669.63 C 786.242 665.798 787.339 664.988 790.851 661.68 C 792.501 660.28 794.161 658.981 795.816 657.584 C 797.788 655.784 799.8 654.03 801.852 652.322 C 805.323 649.691 809.205 646.282 812.519 643.426 z"/>
</svg>