<svg version="1.1" xmlns="http://www.w3.org/2000/svg" viewBox="0 0 2048 2048" width="1024" height="1024">

<path transform="translate(0,0)" fill="rgb(30,42,43)" d="M 1020.55 394.431 C 1054.19 391.448 1097.46 407.217 1122.54 429.382 C 1158.25 460.947 1172.21 493.354 1176.27 539.289 C 1202.82 577.327 1205.01 607.507 1170.11 641.45 C 1202.16 666.694 1221.73 702.789 1240.82 737.621 C 1245.78 745.11 1252.74 751.156 1258.53 758.001 C 1266.2 767.069 1273.51 776.625 1279.77 786.778 C 1334.38 875.277 1357.22 978.091 1379.05 1078.44 C 1386.73 1113.76 1386.88 1125.14 1369.36 1156.98 C 1383.13 1192.37 1369.72 1224.5 1338.01 1243.72 C 1341.31 1266.98 1345.29 1291.07 1347.4 1314.42 C 1351.75 1362.59 1312.79 1396.08 1275.57 1419.54 C 1273 1433.1 1264.4 1447.21 1263.35 1457.91 C 1258.18 1510.84 1273.7 1552.49 1232.77 1594.79 C 1193.01 1637.42 1132.94 1659.47 1075.11 1660.92 C 1033.31 1661.97 972.398 1649.51 971 1597.07 L 971.368 1584.77 C 929.019 1603.16 883.979 1614.43 837.972 1605.15 C 728.781 1583.11 772.927 1486.12 840.502 1443.88 C 838.757 1437.88 837.821 1430.38 836.847 1424.1 C 810.819 1410.33 789.28 1394.24 770.804 1371.1 C 744.656 1338.36 754.165 1308.49 759.317 1269.93 L 776.332 1149.99 C 763.466 1150.04 751.925 1149.52 739.866 1144.66 C 705.624 1130.84 684.346 1095.57 698.349 1059.73 C 695.418 1055.9 692.757 1051.87 690.385 1047.68 C 675.822 1021.84 679.304 1004.03 685.759 976.446 C 712.266 863.187 788.34 681.633 894.545 621.004 C 890.513 613.813 886.958 606.736 883.256 599.385 C 858.509 592.302 839.888 575.855 834.201 550.001 C 830.49 533.381 833.479 515.969 842.521 501.539 C 854.537 482.759 870.137 475.974 890.849 471.386 C 923.662 422.652 960.325 397.324 1020.55 394.431 z"/>
<path transform="translate(0,0)" fill="rgb(239,237,228)" d="M 1166.84 643.668 C 1170.31 645.086 1175.85 650.413 1178.66 653.113 C 1200.55 674.159 1223.09 707.177 1235.35 735.342 C 1234.67 734.885 1233.98 734.432 1233.29 733.983 C 1174.76 695.839 1144.91 760.637 1143.11 809.627 C 1141.31 858.704 1149.37 908.202 1157.99 956.371 C 1164.66 994.034 1172.06 1031.56 1180.19 1068.94 C 1185.29 1092.15 1189.97 1115.5 1195.53 1138.61 C 1201.78 1164.55 1215.33 1178.77 1238.05 1192.01 C 1238.93 1200.13 1239.85 1205.41 1243.02 1212.93 C 1249.66 1228.49 1262.24 1240.74 1277.97 1246.96 C 1297.82 1255.03 1316.17 1252.98 1335.43 1244.94 C 1337.91 1263.01 1347.51 1318.03 1343.99 1332.83 C 1316.45 1448.66 1118.78 1469.75 1031.44 1466.68 C 1004.4 1465.5 977.456 1462.66 950.763 1458.17 C 890.067 1445.14 827.765 1426.98 782.389 1380.75 C 768.636 1366.15 753.934 1343.21 755.974 1322.16 C 760.858 1271.76 769.163 1221.29 776.263 1171.23 C 788.757 1076.39 804.21 981.965 822.6 888.092 C 831.358 844.483 841.482 797.532 854.793 754.686 C 865.242 721.054 886.44 681.905 911.198 656.623 C 913.616 654.154 917.038 652.11 920.692 652.399 C 933.4 663.203 909.724 705.756 949.505 717.52 C 965.933 713.766 979.303 701.652 996.772 693.999 C 1003.66 704.63 1007.12 716.428 1015.11 726.438 C 1022.75 736.009 1036.77 737.009 1046.64 730.542 C 1080.18 708.569 1112.28 684.198 1145.42 661.581 C 1153.5 656.072 1159.85 650.396 1166.84 643.668 z"/>
<path transform="translate(0,0)" fill="rgb(239,237,228)" d="M 1191.42 726.23 C 1199.69 725.612 1206.32 725.455 1214.41 728.101 C 1249.02 739.423 1277.58 786.376 1293.65 817.196 C 1331.07 888.988 1352.94 971.341 1369.46 1050.24 C 1375.01 1076.79 1386.51 1106.65 1377.7 1132.4 C 1368.83 1158.34 1351.54 1176.65 1327.6 1189.04 C 1280.36 1211.01 1215.29 1196.98 1199.46 1141.66 C 1192.9 1118.72 1188.51 1092.9 1183.45 1069.31 C 1174.84 1030.09 1167.09 990.695 1160.19 951.142 C 1150.91 898.629 1121.94 748.026 1191.42 726.23 z"/>
<path transform="translate(0,0)" fill="rgb(239,237,228)" d="M 1013.61 397.375 C 1052.36 393.923 1093.38 407.679 1122.56 433.395 C 1154.51 461.554 1169.56 495.112 1172.8 537.084 C 1153.82 522.649 1146.02 519.735 1122.3 519.992 C 1121.74 546.835 1122.57 574.522 1122.13 601.476 C 1122.15 616.381 1121.97 631.301 1121.73 646.202 C 1121.67 650.163 1126.05 654.287 1124.28 656.906 C 1121.6 660.858 1116.48 663.448 1112.58 666.144 C 1094.3 678.781 1075.68 686.113 1054.19 691.313 C 1051.13 691.816 1048.06 692.244 1044.99 692.598 C 1004.29 696.641 963.638 684.528 931.792 658.87 C 900.258 633.648 880.172 596.82 876.043 556.652 C 870.542 501.77 899.364 446.095 946.727 418.051 C 968.413 405.211 988.852 399.826 1013.61 397.375 z"/>
<path transform="translate(0,0)" fill="rgb(30,42,43)" d="M 945.221 595.33 C 955.057 595.814 995.306 598.138 1003 602.89 C 1018.24 612.309 1017.13 635.368 995.186 639.774 L 975.498 638.087 C 965.781 637.167 955.871 636.221 945.99 635.171 C 928.909 633.355 921.025 618.367 929.396 603.305 C 932.67 597.416 939.056 596.379 945.221 595.33 z"/>
<path transform="translate(0,0)" fill="rgb(232,115,90)" d="M 939.763 599.233 C 955.719 598.498 977.004 600.885 993.012 602.804 C 1011.74 605.049 1017.83 626.138 998.547 636.476 C 985.066 637.938 955.768 633.542 941.715 631.688 C 927.883 629.864 922.382 607.11 939.763 599.233 z"/>
<path transform="translate(0,0)" fill="rgb(30,42,43)" d="M 978.647 563.756 C 982.248 552.99 989.891 551.27 1000.18 553.526 C 1003.08 554.629 1005.15 556.411 1006.95 558.897 C 1010.53 565.203 1010.62 568.236 1008.4 575.022 C 998.154 594.481 972.757 579.206 978.647 563.756 z"/>
<path transform="translate(0,0)" fill="rgb(30,42,43)" d="M 932.776 547.506 C 938.442 546.191 944.372 548.095 948.215 552.463 C 952.057 556.83 953.19 562.955 951.164 568.407 C 949.138 573.86 944.28 577.759 938.519 578.558 C 930.147 579.718 922.344 574.088 920.807 565.777 C 919.27 557.466 924.543 549.417 932.776 547.506 z"/>
<path transform="translate(0,0)" fill="rgb(239,237,228)" d="M 894.594 623.764 C 897.064 624.486 912.915 645.004 915.679 648.317 C 861.898 698.392 846.609 766.503 830.832 834.918 C 810.337 923.79 796.866 1013.53 782.778 1103.51 C 757.915 1098.76 747.21 1094.21 725.814 1080.89 C 668.193 1040.09 680.102 1001.27 697.602 942.508 C 732.681 824.707 790.78 696.194 894.594 623.764 z"/>
<path transform="translate(0,0)" fill="rgb(31,95,91)" d="M 1258.63 1457.71 C 1261.67 1460.54 1259.07 1493.26 1259.14 1499.49 C 1259.73 1536.15 1257.29 1565 1230.66 1592.79 C 1181.11 1644.51 1100.29 1668.55 1030.45 1653.22 C 1012.8 1649.35 1000.34 1643.56 987.171 1631.29 C 966.438 1608.47 972.089 1579.95 985.545 1555.22 C 999.297 1529.95 1020.74 1511.51 1042.96 1493.97 C 1112.23 1527.29 1205.86 1516.14 1258.63 1457.71 z"/>
<path transform="translate(0,0)" fill="rgb(31,95,91)" d="M 843.782 1444.9 C 880.442 1469.73 924.841 1480.47 968.798 1475.15 C 977.961 1474.09 991.403 1468.43 998.37 1468.42 C 1013.6 1468.4 1027.53 1470.08 1043.27 1469.89 L 1042.95 1490.88 C 1009.57 1512.58 983.486 1542.55 972.222 1581.06 C 969.262 1582.29 966.291 1583.48 963.307 1584.65 C 924.551 1601.33 881.587 1611.27 839.798 1602.63 C 729.585 1579.85 777.971 1486.56 843.782 1444.9 z"/>
<path transform="translate(0,0)" fill="rgb(232,115,90)" d="M 1270.05 1421.97 L 1271.01 1423.11 C 1271.16 1426.87 1270.72 1427.64 1269.59 1431.29 C 1261.3 1457.99 1236.95 1478.12 1212.51 1490.23 C 1166.04 1513.26 1108.66 1514.51 1059.75 1498.45 C 1054.82 1496.78 1049.86 1494.58 1045.03 1492.57 C 1045.1 1485.02 1045.25 1477.48 1045.49 1469.95 C 1118.87 1469.8 1205.55 1459.49 1270.05 1421.97 z"/>
<path transform="translate(0,0)" fill="rgb(232,115,90)" d="M 1125.12 522.992 C 1170.48 522.043 1203.88 564.733 1189.57 608.966 C 1186.5 618.449 1180.9 625.445 1174.49 632.956 C 1159.12 649.239 1146.44 652.059 1125.06 652.06 L 1125.12 522.992 z"/>
<path transform="translate(0,0)" fill="rgb(239,237,228)" d="M 1366.88 1159.96 C 1369.6 1164.08 1371.47 1172.41 1371.88 1177.41 C 1374.9 1214.88 1346.65 1245.84 1309.67 1249.01 C 1288.8 1250.79 1274.19 1244.3 1258.57 1231.07 C 1247.45 1218.99 1243.85 1209.27 1241.3 1193.41 C 1288.23 1212.7 1335.57 1199.45 1366.88 1159.96 z"/>
<path transform="translate(0,0)" fill="rgb(239,237,228)" d="M 700.234 1063.43 C 703.92 1065.72 710.78 1073.19 715.572 1076.88 C 731.08 1088.85 754.126 1101.26 773.507 1104.93 C 776.49 1105.51 779.489 1106 782.502 1106.39 C 780.797 1119.39 778.905 1132.81 776.746 1145.72 C 776.579 1145.92 776.022 1146.65 775.794 1146.68 C 744.842 1150.08 715.178 1134.1 702.012 1106 C 695.732 1092.62 695.092 1077.28 700.234 1063.43 z"/>
<path transform="translate(0,0)" fill="rgb(232,115,90)" d="M 886.883 475.244 C 887.113 475.834 887.343 476.425 887.574 477.015 C 883.916 486.427 877.107 503.279 875.155 512.745 C 868.764 543.729 873.059 567.041 882.142 595.887 C 871.338 592.638 868.469 591.469 859.457 584.813 C 848.318 576.194 840.392 564.087 836.947 550.43 C 833.081 535.077 835.54 518.815 843.773 505.292 C 853.845 488.464 868.36 479.891 886.883 475.244 z"/>
<path transform="translate(0,0)" fill="rgb(185,217,198)" d="M 1149.44 653.478 L 1150.2 653.381 L 1150.27 654.106 C 1120.59 677.149 1088.32 697.398 1057.72 719.193 C 1041.79 730.545 1027.63 739.832 1013.69 719.8 C 1009.28 711.053 1004.62 702.433 999.718 693.95 C 1050.08 702.351 1092.41 689.094 1130.22 655.114 C 1136.74 655.221 1142.97 654.269 1149.44 653.478 z"/>
<path transform="translate(0,0)" fill="rgb(232,115,90)" d="M 839.703 1425.15 C 876.628 1443.43 907.528 1453.13 947.927 1460.36 C 959.279 1462.39 978.985 1464.17 988.663 1466.72 L 988.663 1467.84 L 985.789 1469.06 C 935.88 1480.95 883.12 1469.91 841.489 1439.9 C 840.326 1434.46 840.131 1430.65 839.703 1425.15 z"/>
<path transform="translate(0,0)" fill="rgb(185,217,198)" d="M 926.953 658.797 C 930.765 661.194 934.856 664.862 938.615 667.642 C 955.328 680.003 973.234 685.944 992.558 692.675 C 988.91 694.505 983.702 696.942 980.493 699.118 C 967.053 706.687 951.238 721.066 936.443 708.084 C 926.876 699.69 927.441 671.349 926.953 658.797 z"/>
</svg>