<svg version="1.1" xmlns="http://www.w3.org/2000/svg" style="display: block;" viewBox="0 0 2048 2048" width="1024" height="1024" preserveAspectRatio="none" xmlns:c2pa="http://c2pa.org/manifest"><metadata><c2pa:manifest>AAAzs2p1bWIAAAAeanVtZGMycGEAEQAQgAAAqgA4m3EDYzJwYQAAADONanVtYgAAAEdqdW1kYzJtYQARABCAAACqADibcQN1cm46YzJwYTozZTc4ZmZmYi0zNmM5LTRiNGQtYWYzZC0yYjFhN2IzNjA5NjUAAAAB4mp1bWIAAAApanVtZGMyYXMAEQAQgAAAqgA4m3EDYzJwYS5hc3NlcnRpb25zAAAAAO1qdW1iAAAAQWp1bWRjYm9yABEAEIAAAKoAOJtxE2MycGEuYWN0aW9ucy52MgAAAAAYYzJzaC+GXgMCbxD4J4LRXGYFwMAAAACkY2JvcqFnYWN0aW9uc4GjZmFjdGlvbmxjMnBhLmNyZWF0ZWRxZGlnaXRhbFNvdXJjZVR5cGV4Rmh0dHA6Ly9jdi5pcHRjLm9yZy9uZXdzY29kZXMvZGlnaXRhbHNvdXJjZXR5cGUvdHJhaW5lZEFsZ29yaXRobWljTWVkaWFrZGVzY3JpcHRpb252Q3JlYXRlZCBieSBSZWNyYWZ0IEFJLgAAAMRqdW1iAAAAQGp1bWRjYm9yABEAEIAAAKoAOJtxE2MycGEuaGFzaC5kYXRhAAAAABhjMnNofkXXvJEMQfk+ilgFd7HtLwAAAHxjYm9ypWpleGNsdXNpb25zgaJlc3RhcnQY22ZsZW5ndGgZRPBkbmFtZW5qdW1iZiBtYW5pZmVzdGNhbGdmc2hhMjU2ZGhhc2hYIKHxFQfW3mmdHFrRF+oDY5Ht4Io0pC7lFRJE2f3KaCdQY3BhZEkAAAAAAAAAAAAAAAI0anVtYgAAACdqdW1kYzJjbAARABCAAACqADibcQNjMnBhLmNsYWltLnYyAAAAAgVjYm9ypmppbnN0YW5jZUlEeCx4bXA6aWlkOmY1ZDAyMjFjLTRhNDYtNDYxOS05YzgyLTM2ZGNiODkxMTRhM3RjbGFpbV9nZW5lcmF0b3JfaW5mb6NkbmFtZWpyZWNyYWZ0LmFpZ3ZlcnNpb254KDgxY2U4MmUyYzVjM2NiZmJlOGM2ZmJlMTc5ZDVmOGQ5MWM0MDljZTF3b3JnLmNvbnRlbnRhdXRoLmMycGFfcnNmMC45MC43aXNpZ25hdHVyZXhNc2VsZiNqdW1iZj0vYzJwYS91cm46YzJwYTozZTc4ZmZmYi0zNmM5LTRiNGQtYWYzZC0yYjFhN2IzNjA5NjUvYzJwYS5zaWduYXR1cmVyY3JlYXRlZF9hc3NlcnRpb25zgqJjdXJseCpzZWxmI2p1bWJmPWMycGEuYXNzZXJ0aW9ucy9jMnBhLmFjdGlvbnMudjJkaGFzaFgg6QLbubhwwzbPpItQp08lAcCeh+AYKjFMItvgqgBptCCiY3VybHgpc2VsZiNqdW1iZj1jMnBhLmFzc2VydGlvbnMvYzJwYS5oYXNoLmRhdGFkaGFzaFggJfntVxBKbW2gxd+F+m2SbqRxXpiJSqvlDMSvmRzYIbJoZGM6dGl0bGV4GlJlY3JhZnQgQUkgR2VuZXJhdGVkIEltYWdlY2FsZ2ZzaGEyNTYAAC8oanVtYgAAAChqdW1kYzJjcwARABCAAACqADibcQNjMnBhLnNpZ25hdHVyZQAAAC74Y2JvctKEWQPsogEmGCGCWQH0MIIB8DCCAZWgAwIBAgIUJcFH1Va4pZJDhzepwEtzPPNj2YMwCgYIKoZIzj0EAwIwQTELMAkGA1UEBhMCVVMxEzARBgNVBAoMClJlY3JhZnQgQUkxHTAbBgNVBAMMFFJlY3JhZnQgQzJQQSBSb290IENBMB4XDTI2MDkxMDE2NTIzNFoXDTI3MDkxMDE2NTIzNFowNzELMAkGA1UEBhMCVVMxEzARBgNVBAoMClJlY3JhZnQgQUkxEzARBgNVBAMMCnJlY3JhZnQuYWkwWTATBgcqhkjOPQIBBggqhkjOPQMBBwNCAASoOPdqG3YmNRdGd+dltfh1ikcE/nkLm8YK10H29taFa8iegusHYB1678yl5Bs18hLaV/Fhd+Ni32xAlnHdbimFo3UwczAMBgNVHRMBAf8EAjAAMA4GA1UdDwEB/wQEAwIGwDATBgNVHSUEDDAKBggrBgEFBQcDBDAdBgNVHQ4EFgQUgVwhvbEXPSSgCubOfUHxCtuoVAQwHwYDVR0jBBgwFoAUc9yF+sfWlRHeWv2Iucaec5jwdAgwCgYIKoZIzj0EAwIDSQAwRgIhAJltDpQN+vbXITLxb+8BNwSL6/5WktO4Sevkb0VXjtfWAiEAqhoz7z/sN32NxdnnZsQVTeu3P7CgGtJdXFx283fp08RZAewwggHoMIIBjaADAgECAhQAydo/NKOQWWu/4V5FktVQHX7jTDAKBggqhkjOPQQDAjBBMQswCQYDVQQGEwJVUzETMBEGA1UECgwKUmVjcmFmdCBBSTEdMBsGA1UEAwwUUmVjcmFmdCBDMlBBIFJvb3QgQ0EwHhcNMjYwOTEwMTY1MjM0WhcNMzYwOTA3MTY1MjM0WjBBMQswCQYDVQQGEwJVUzETMBEGA1UECgwKUmVjcmFmdCBBSTEdMBsGA1UEAwwUUmVjcmFmdCBDMlBBIFJvb3QgQ0EwWTATBgcqhkjOPQIBBggqhkjOPQMBBwNCAAQbQ+eF6fkpnHhTwrMxSBLh/JhROWkzsC8L8jN1r1Rlf8oECvzEFk3WujloPtNs3PLADriqR5rGtd+8giFuiTLno2MwYTAfBgNVHSMEGDAWgBRz3IX6x9aVEd5a/Yi5xp5zmPB0CDAPBgNVHRMBAf8EBTADAQH/MA4GA1UdDwEB/wQEAwIBhjAdBgNVHQ4EFgQUc9yF+sfWlRHeWv2Iucaec5jwdAgwCgYIKoZIzj0EAwIDSQAwRgIhAND2Z+xryBRnMbxk8eAzMcAq8bzl0rfA9Y2z7q5QoEUeAiEA6ZbI3e47h5clRZaARSOOotKXsK/YQMWC3vj91d3bmlOhY3BhZFkqtAAAAAAAAAAAAAAAAAAAAAAAAAAAAAAAAAAAAAAAAAAAAAAAAAAAAAAAAAAAAAAAAAAAAAAAAAAAAAAAAAAAAAAAAAAAAAAAAAAAAAAAAAAAAAAAAAAAAAAAAAAAAAAAAAAAAAAAAAAAAAAAAAAAAAAAAAAAAAAAAAAAAAAAAAAAAAAAAAAAAAAAAAAAAAAAAAAAAAAAAAAAAAAAAAAAAAAAAAAAAAAAAAAAAAAAAAAAAAAAAAAAAAAAAAAAAAAAAAAAAAAAAAAAAAAAAAAAAAAAAAAAAAAAAAAAAAAAAAAAAAAAAAAAAAAAAAAAAAAAAAAAAAAAAAAAAAAAAAAAAAAAAAAAAAAAAAAAAAAAAAAAAAAAAAAAAAAAAAAAAAAAAAAAAAAAAAAAAAAAAAAAAAAAAAAAAAAAAAAAAAAAAAAAAAAAAAAAAAAAAAAAAAAAAAAAAAAAAAAAAAAAAAAAAAAAAAAAAAAAAAAAAAAAAAAAAAAAAAAAAAAAAAAAAAAAAAAAAAAAAAAAAAAAAAAAAAAAAAAAAAAAAAAAAAAAAAAAAAAAAAAAAAAAAAAAAAAAAAAAAAAAAAAAAAAAAAAAAAAAAAAAAAAAAAAAAAAAAAAAAAAAAAAAAAAAAAAAAAAAAAAAAAAAAAAAAAAAAAAAAAAAAAAAAAAAAAAAAAAAAAAAAAAAAAAAAAAAAAAAAAAAAAAAAAAAAAAAAAAAAAAAAAAAAAAAAAAAAAAAAAAAAAAAAAAAAAAAAAAAAAAAAAAAAAAAAAAAAAAAAAAAAAAAAAAAAAAAAAAAAAAAAAAAAAAAAAAAAAAAAAAAAAAAAAAAAAAAAAAAAAAAAAAAAAAAAAAAAAAAAAAAAAAAAAAAAAAAAAAAAAAAAAAAAAAAAAAAAAAAAAAAAAAAAAAAAAAAAAAAAAAAAAAAAAAAAAAAAAAAAAAAAAAAAAAAAAAAAAAAAAAAAAAAAAAAAAAAAAAAAAAAAAAAAAAAAAAAAAAAAAAAAAAAAAAAAAAAAAAAAAAAAAAAAAAAAAAAAAAAAAAAAAAAAAAAAAAAAAAAAAAAAAAAAAAAAAAAAAAAAAAAAAAAAAAAAAAAAAAAAAAAAAAAAAAAAAAAAAAAAAAAAAAAAAAAAAAAAAAAAAAAAAAAAAAAAAAAAAAAAAAAAAAAAAAAAAAAAAAAAAAAAAAAAAAAAAAAAAAAAAAAAAAAAAAAAAAAAAAAAAAAAAAAAAAAAAAAAAAAAAAAAAAAAAAAAAAAAAAAAAAAAAAAAAAAAAAAAAAAAAAAAAAAAAAAAAAAAAAAAAAAAAAAAAAAAAAAAAAAAAAAAAAAAAAAAAAAAAAAAAAAAAAAAAAAAAAAAAAAAAAAAAAAAAAAAAAAAAAAAAAAAAAAAAAAAAAAAAAAAAAAAAAAAAAAAAAAAAAAAAAAAAAAAAAAAAAAAAAAAAAAAAAAAAAAAAAAAAAAAAAAAAAAAAAAAAAAAAAAAAAAAAAAAAAAAAAAAAAAAAAAAAAAAAAAAAAAAAAAAAAAAAAAAAAAAAAAAAAAAAAAAAAAAAAAAAAAAAAAAAAAAAAAAAAAAAAAAAAAAAAAAAAAAAAAAAAAAAAAAAAAAAAAAAAAAAAAAAAAAAAAAAAAAAAAAAAAAAAAAAAAAAAAAAAAAAAAAAAAAAAAAAAAAAAAAAAAAAAAAAAAAAAAAAAAAAAAAAAAAAAAAAAAAAAAAAAAAAAAAAAAAAAAAAAAAAAAAAAAAAAAAAAAAAAAAAAAAAAAAAAAAAAAAAAAAAAAAAAAAAAAAAAAAAAAAAAAAAAAAAAAAAAAAAAAAAAAAAAAAAAAAAAAAAAAAAAAAAAAAAAAAAAAAAAAAAAAAAAAAAAAAAAAAAAAAAAAAAAAAAAAAAAAAAAAAAAAAAAAAAAAAAAAAAAAAAAAAAAAAAAAAAAAAAAAAAAAAAAAAAAAAAAAAAAAAAAAAAAAAAAAAAAAAAAAAAAAAAAAAAAAAAAAAAAAAAAAAAAAAAAAAAAAAAAAAAAAAAAAAAAAAAAAAAAAAAAAAAAAAAAAAAAAAAAAAAAAAAAAAAAAAAAAAAAAAAAAAAAAAAAAAAAAAAAAAAAAAAAAAAAAAAAAAAAAAAAAAAAAAAAAAAAAAAAAAAAAAAAAAAAAAAAAAAAAAAAAAAAAAAAAAAAAAAAAAAAAAAAAAAAAAAAAAAAAAAAAAAAAAAAAAAAAAAAAAAAAAAAAAAAAAAAAAAAAAAAAAAAAAAAAAAAAAAAAAAAAAAAAAAAAAAAAAAAAAAAAAAAAAAAAAAAAAAAAAAAAAAAAAAAAAAAAAAAAAAAAAAAAAAAAAAAAAAAAAAAAAAAAAAAAAAAAAAAAAAAAAAAAAAAAAAAAAAAAAAAAAAAAAAAAAAAAAAAAAAAAAAAAAAAAAAAAAAAAAAAAAAAAAAAAAAAAAAAAAAAAAAAAAAAAAAAAAAAAAAAAAAAAAAAAAAAAAAAAAAAAAAAAAAAAAAAAAAAAAAAAAAAAAAAAAAAAAAAAAAAAAAAAAAAAAAAAAAAAAAAAAAAAAAAAAAAAAAAAAAAAAAAAAAAAAAAAAAAAAAAAAAAAAAAAAAAAAAAAAAAAAAAAAAAAAAAAAAAAAAAAAAAAAAAAAAAAAAAAAAAAAAAAAAAAAAAAAAAAAAAAAAAAAAAAAAAAAAAAAAAAAAAAAAAAAAAAAAAAAAAAAAAAAAAAAAAAAAAAAAAAAAAAAAAAAAAAAAAAAAAAAAAAAAAAAAAAAAAAAAAAAAAAAAAAAAAAAAAAAAAAAAAAAAAAAAAAAAAAAAAAAAAAAAAAAAAAAAAAAAAAAAAAAAAAAAAAAAAAAAAAAAAAAAAAAAAAAAAAAAAAAAAAAAAAAAAAAAAAAAAAAAAAAAAAAAAAAAAAAAAAAAAAAAAAAAAAAAAAAAAAAAAAAAAAAAAAAAAAAAAAAAAAAAAAAAAAAAAAAAAAAAAAAAAAAAAAAAAAAAAAAAAAAAAAAAAAAAAAAAAAAAAAAAAAAAAAAAAAAAAAAAAAAAAAAAAAAAAAAAAAAAAAAAAAAAAAAAAAAAAAAAAAAAAAAAAAAAAAAAAAAAAAAAAAAAAAAAAAAAAAAAAAAAAAAAAAAAAAAAAAAAAAAAAAAAAAAAAAAAAAAAAAAAAAAAAAAAAAAAAAAAAAAAAAAAAAAAAAAAAAAAAAAAAAAAAAAAAAAAAAAAAAAAAAAAAAAAAAAAAAAAAAAAAAAAAAAAAAAAAAAAAAAAAAAAAAAAAAAAAAAAAAAAAAAAAAAAAAAAAAAAAAAAAAAAAAAAAAAAAAAAAAAAAAAAAAAAAAAAAAAAAAAAAAAAAAAAAAAAAAAAAAAAAAAAAAAAAAAAAAAAAAAAAAAAAAAAAAAAAAAAAAAAAAAAAAAAAAAAAAAAAAAAAAAAAAAAAAAAAAAAAAAAAAAAAAAAAAAAAAAAAAAAAAAAAAAAAAAAAAAAAAAAAAAAAAAAAAAAAAAAAAAAAAAAAAAAAAAAAAAAAAAAAAAAAAAAAAAAAAAAAAAAAAAAAAAAAAAAAAAAAAAAAAAAAAAAAAAAAAAAAAAAAAAAAAAAAAAAAAAAAAAAAAAAAAAAAAAAAAAAAAAAAAAAAAAAAAAAAAAAAAAAAAAAAAAAAAAAAAAAAAAAAAAAAAAAAAAAAAAAAAAAAAAAAAAAAAAAAAAAAAAAAAAAAAAAAAAAAAAAAAAAAAAAAAAAAAAAAAAAAAAAAAAAAAAAAAAAAAAAAAAAAAAAAAAAAAAAAAAAAAAAAAAAAAAAAAAAAAAAAAAAAAAAAAAAAAAAAAAAAAAAAAAAAAAAAAAAAAAAAAAAAAAAAAAAAAAAAAAAAAAAAAAAAAAAAAAAAAAAAAAAAAAAAAAAAAAAAAAAAAAAAAAAAAAAAAAAAAAAAAAAAAAAAAAAAAAAAAAAAAAAAAAAAAAAAAAAAAAAAAAAAAAAAAAAAAAAAAAAAAAAAAAAAAAAAAAAAAAAAAAAAAAAAAAAAAAAAAAAAAAAAAAAAAAAAAAAAAAAAAAAAAAAAAAAAAAAAAAAAAAAAAAAAAAAAAAAAAAAAAAAAAAAAAAAAAAAAAAAAAAAAAAAAAAAAAAAAAAAAAAAAAAAAAAAAAAAAAAAAAAAAAAAAAAAAAAAAAAAAAAAAAAAAAAAAAAAAAAAAAAAAAAAAAAAAAAAAAAAAAAAAAAAAAAAAAAAAAAAAAAAAAAAAAAAAAAAAAAAAAAAAAAAAAAAAAAAAAAAAAAAAAAAAAAAAAAAAAAAAAAAAAAAAAAAAAAAAAAAAAAAAAAAAAAAAAAAAAAAAAAAAAAAAAAAAAAAAAAAAAAAAAAAAAAAAAAAAAAAAAAAAAAAAAAAAAAAAAAAAAAAAAAAAAAAAAAAAAAAAAAAAAAAAAAAAAAAAAAAAAAAAAAAAAAAAAAAAAAAAAAAAAAAAAAAAAAAAAAAAAAAAAAAAAAAAAAAAAAAAAAAAAAAAAAAAAAAAAAAAAAAAAAAAAAAAAAAAAAAAAAAAAAAAAAAAAAAAAAAAAAAAAAAAAAAAAAAAAAAAAAAAAAAAAAAAAAAAAAAAAAAAAAAAAAAAAAAAAAAAAAAAAAAAAAAAAAAAAAAAAAAAAAAAAAAAAAAAAAAAAAAAAAAAAAAAAAAAAAAAAAAAAAAAAAAAAAAAAAAAAAAAAAAAAAAAAAAAAAAAAAAAAAAAAAAAAAAAAAAAAAAAAAAAAAAAAAAAAAAAAAAAAAAAAAAAAAAAAAAAAAAAAAAAAAAAAAAAAAAAAAAAAAAAAAAAAAAAAAAAAAAAAAAAAAAAAAAAAAAAAAAAAAAAAAAAAAAAAAAAAAAAAAAAAAAAAAAAAAAAAAAAAAAAAAAAAAAAAAAAAAAAAAAAAAAAAAAAAAAAAAAAAAAAAAAAAAAAAAAAAAAAAAAAAAAAAAAAAAAAAAAAAAAAAAAAAAAAAAAAAAAAAAAAAAAAAAAAAAAAAAAAAAAAAAAAAAAAAAAAAAAAAAAAAAAAAAAAAAAAAAAAAAAAAAAAAAAAAAAAAAAAAAAAAAAAAAAAAAAAAAAAAAAAAAAAAAAAAAAAAAAAAAAAAAAAAAAAAAAAAAAAAAAAAAAAAAAAAAAAAAAAAAAAAAAAAAAAAAAAAAAAAAAAAAAAAAAAAAAAAAAAAAAAAAAAAAAAAAAAAAAAAAAAAAAAAAAAAAAAAAAAAAAAAAAAAAAAAAAAAAAAAAAAAAAAAAAAAAAAAAAAAAAAAAAAAAAAAAAAAAAAAAAAAAAAAAAAAAAAAAAAAAAAAAAAAAAAAAAAAAAAAAAAAAAAAAAAAAAAAAAAAAAAAAAAAAAAAAAAAAAAAAAAAAAAAAAAAAAAAAAAAAAAAAAAAAAAAAAAAAAAAAAAAAAAAAAAAAAAAAAAAAAAAAAAAAAAAAAAAAAAAAAAAAAAAAAAAAAAAAAAAAAAAAAAAAAAAAAAAAAAAAAAAAAAAAAAAAAAAAAAAAAAAAAAAAAAAAAAAAAAAAAAAAAAAAAAAAAAAAAAAAAAAAAAAAAAAAAAAAAAAAAAAAAAAAAAAAAAAAAAAAAAAAAAAAAAAAAAAAAAAAAAAAAAAAAAAAAAAAAAAAAAAAAAAAAAAAAAAAAAAAAAAAAAAAAAAAAAAAAAAAAAAAAAAAAAAAAAAAAAAAAAAAAAAAAAAAAAAAAAAAAAAAAAAAAAAAAAAAAAAAAAAAAAAAAAAAAAAAAAAAAAAAAAAAAAAAAAAAAAAAAAAAAAAAAAAAAAAAAAAAAAAAAAAAAAAAAAAAAAAAAAAAAAAAAAAAAAAAAAAAAAAAAAAAAAAAAAAAAAAAAAAAAAAAAAAAAAAAAAAAAAAAAAAAAAAAAAAAAAAAAAAAAAAAAAAAAAAAAAAAAAAAAAAAAAAAAAAAAAAAAAAAAAAAAAAAAAAAAAAAAAAAAAAAAAAAAAAAAAAAAAAAAAAAAAAAAAAAAAAAAAAAAAAAAAAAAAAAAAAAAAAAAAAAAAAAAAAAAAAAAAAAAAAAAAAAAAAAAAAAAAAAAAAAAAAAAAAAAAAAAAAAAAAAAAAAAAAAAAAAAAAAAAAAAAAAAAAAAAAAAAAAAAAAAAAAAAAAAAAAAAAAAAAAAAAAAAAAAAAAAAAAAAAAAAAAAAAAAAAAAAAAAAAAAAAAAAAAAAAAAAAAAAAAAAAAAAAAAAAAAAAAAAAAAAAAAAAAAAAAAAAAAAAAAAAAAAAAAAAAAAAAAAAAAAAAAAAAAAAAAAAAAAAAAAAAAAAAAAAAAAAAAAAAAAAAAAAAAAAAAAAAAAAAAAAAAAAAAAAAAAAAAAAAAAAAAAAAAAAAAAAAAAAAAAAAAAAAAAAAAAAAAAAAAAAAAAAAAAAAAAAAAAAAAAAAAAAAAAAAAAAAAAAAAAAAAAAAAAAAAAAAAAAAAAAAAAAAAAAAAAAAAAAAAAAAAAAAAAAAAAAAAAAAAAAAAAAAAAAAAAAAAAAAAAAAAAAAAAAAAAAAAAAAAAAAAAAAAAAAAAAAAAAAAAAAAAAAAAAAAAAAAAAAAAAAAAAAAAAAAAAAAAAAAAAAAAAAAAAAAAAAAAAAAAAAAAAAAAAAAAAAAAAAAAAAAAAAAAAAAAAAAAAAAAAAAAAAAAAAAAAAAAAAAAAAAAAAAAAAAAAAAAAAAAAAAAAAAAAAAAAAAAAAAAAAAAAAAAAAAAAAAAAAAAAAAAAAAAAAAAAAAAAAAAAAAAAAAAAAAAAAAAAAAAAAAAAAAAAAAAAAAAAAAAAAAAAAAAAAAAAAAAAAAAAAAAAAAAAAAAAAAAAAAAAAAAAAAAAAAAAAAAAAAAAAAAAAAAAAAAAAAAAAAAAAAAAAAAAAAAAAAAAAAAAAAAAAAAAAAAAAAAAAAAAAAAAAAAAAAAAAAAAAAAAAAAAAAAAAAAAAAAAAAAAAAAAAAAAAAAAAAAAAAAAAAAAAAAAAAAAAAAAAAAAAAAAAAAAAAAAAAAAAAAAAAAAAAAAAAAAAAAAAAAAAAAAAAAAAAAAAAAAAAAAAAAAAAAAAAAAAAAAAAAAAAAAAAAAAAAAAAAAAAAAAAAAAAAAAAAAAAAAAAAAAAAAAAAAAAAAAAAAAAAAAAAAAAAAAAAAAAAAAAAAAAAAAAAAAAAAAAAAAAAAAAAAAAAAAAAAAAAAAAAAAAAAAAAAAAAAAAAAAAAAAAAAAAAAAAAAAAAAAAAAAAAAAAAAAAAAAAAAAAAAAAAAAAAAAAAAAAAAAAAAAAAAAAAAAAAAAAAAAAAAAAAAAAAAAAAAAAAAAAAAAAAAAAAAAAAAAAAAAAAAAAAAAAAAAAAAAAAAAAAAAAAAAAAAAAAAAAAAAAAAAAAAAAAAAAAAAAAAAAAAAAAAAAAAAAAAAAAAAAAAAAAAAAAAAAAAAAAAAAAAAAAAAAAAAAAAAAAAAAAAAAAAAAAAAAAAAAAAAAAAAAAAAAAAAAAAAAAAAAAAAAAAAAAAAAAAAAAAAAAAAAAAAAAAAAAAAAAAAAAAAAAAAAAAAAAAAAAAAAAAAAAAAAAAAAAAAAAAAAAAAAAAAAAAAAAAAAAAAAAAAAAAAAAAAAAAAAAAAAAAAAAAAAAAAAAAAAAAAAAAAAAAAAAAAAAAAAAAAAAAAAAAAAAAAAAAAAAAAAAAAAAAAAAAAAAAAAAAAAAAAAAAAAAAAAAAAAAAAAAAAAAAAAAAAAAAAAAAAAAAAAAAAAAAAAAAAAAAAAAAAAAAAAAAAAAAAAAAAAAAAAAAAAAAAAAAAAAAAAAAAAAAAAAAAAAAAAAAAAAAAAAAAAAAAAAAAAAAAAAAAAAAAAAAAAAAAAAAAAAAAAAAAAAAAAAAAAAAAAAAAAAAAAAAAAAAAAAAAAAAAAAAAAAAAAAAAAAAAAAAAAAAAAAAAAAAAAAAAAAAAAAAAAAAAAAAAAAAAAAAAAAAAAAAAAAAAAAAAAAAAAAAAAAAAAAAAAAAAAAAAAAAAAAAAAAAAAAAAAAAAAAAAAAAAAAAAAAAAAAAAAAAAAAAAAAAAAAAAAAAAAAAAAAAAAAAAAAAAAAAAAAAAAAAAAAAAAAAAAAAAAAAAAAAAAAAAAAAAAAAAAAAAAAAAAAAAAAAAAAAAAAAAAAAAAAAAAAAAAAAAAAAAAAAAAAAAAAAAAAAAAAAAAAAAAAAAAAAAAAAAAAAAAAAAAAAAAAAAAAAAAAAAAAAAAAAAAAAAAAAAAAAAAAAAAAAAAAAAAAAAAAAAAAAAAAAAAAAAAAAAAAAAAAAAAAAAAAAAAAAAAAAAAAAAAAAAAAAAAAAAAAAAAAAAAAAAAAAAAAAAAAAAAAAAAAAAAAAAAAAAAAAAAAAAAAAAAAAAAAAAAAAAAAAAAAAAAAAAAAAAAAAAAAAAAAAAAAAAAAAAAAAAAAAAAAAAAAAAAAAAAAAAAAAAAAAAAAAAAAAAAAAAAAAAAAAAAAAAAAAAAAAAAAAAAAAAAAAAAAAAAAAAAAAAAAAAAAAAAAAAAAAAAAAAAAAAAAAAAAAAAAAAAAAAAAAAAAAAAAAAAAAAAAAAAAAAAAAAAAAAAAAAAAAAAAAAAAAAAAAAAAAAAAAAAAAAAAAAAAAAAAAAAAAAAAAAAAAAAAAAAAAAAAAAAAAAAAAAAAAAAAAAAAAAAAAAAAAAAAAAAAAAAAAAAAAAAAAAAAAAAAAAAAAAAAAAAAAAAAAAAAAAAAAAAAAAAAAAAAAAAAAAAAAAAAAAAAAAAAAAAAAAAAAAAAAAAAAAAAAAAAAAAAAAAAAAAAAAAAAAAAAAAAAAAAAAAAAAAAAAAAAAAAAAAAAAAAAAAAAAAAAAAAAAAAAAAAAAAAAAAAAAAAAAAAAAAAAAAAAAAAAAAAAAAAAAAAAAAAAAAAAAAAAAAAAAAAAAAAAAAAAAAAAAAAAAAAAAAAAAAAAAAAAAAAAAAAAAAAAAAAAAAAAAAAAAAAAAAAAAAAAAAAAAAAAAAAAAAAAAAAAAAAAAAAAAAAAAAAAAAAAAAAAAAAAAAAAAAAAAAAAAAAAAAAAAAAAAAAAAAAAAAAAAAAAAAAAAAAAAAAAAAAAAAAAAAAAAAAAAAAAAAAAAAAAAAAAAAAAAAAAAAAAAAAAAAAAAAAAAAAAAAAAAAAAAAAAAAAAAAAAAAAAAAAAAAAAAAAAAAAAAAAAAAAAAAAAAAAAAAAAAAAAAAAAAAAAAAAAAAAAAAAAAAAAAAAAAAAAAAAAAAAAAAAAAAAAAAAAAAAAAAAAAAAAAAAAAAAAAAAAAAAAAAAAAAAAAAAAAAAAAAAAAAAAAAAAAAAAAAAAAAAAAAAAAAAAAAAAAAAAAAAAAAAAAAAAAAAAAAAAAAAAAAAAAAAAAAAAAAAAAAAAAAAAAAAAAAAAAAAAAAAAAAAAAAAAAAAAAAAAAAAAAAAAAAAAAAAAAAAAAAAAAAAAAAAAAAAAAAAAAAAAAAAAAAAAAAAAAAAAAAAAAAAAAAAAAAAAAAAAAAAAAAAAAAAAAAAAAAAAAAAAAAAAAAAAAAAAAAAAAAAAAAAAAAAAAAAAAAAAAAAAAAAAAAAAAAAAAAAAAAAAAAAAAAAAAAAAAAAAAAAAAAAAAAAAAAAAAAAAAAAAAAAAAAAAAAAAAAAAAAAAAAAAAAAAAAAAAAAAAAAAAAAAAAAAAAAAAAAAAAAAAAAAAAAAAAAAAAAAAAAAAAAAAAAAAAAAAAAAAAAAAAAAAAAAAAAAAAAAAAAAAAAAAAAAAAAAAAAAAAAAAAAAAAAAAAAAAAAAAAAAAAAAAAAAAAAAAAAAAAAAAAAAAAAAAAAAAAAAAAAAAAAAAAAAAAAAAAAAAAAAAAAAAAAAAAAAAAAAAAAAAAAAAAAAAAAAAAAAAAAAAAAAAAAAAAAAAAAAAAAAAAAAAAAAAAAAAAAAAAAAAAAAAAAAAAAAAAAAAAAAAAAAAAAAAAAAAAAAAAAAAAAAAAAAAAAAAAAAAAAAAAAAAAAAAAAAAAAAAAAAAAAAAAAAAAAAAAAAAAAAAAAAAAAAAAAAAAAAAAAAAAAAAAAAAAAAAAAAAAAAAAAAAAAAAAAAAAAAAAAAAAAAAAAAAAAAAAAAAAAAAAAAAAAAAAAAAAAAAAAAAAAAAAAAAAAAAAAAAAAAAAAAAAAAAAAAAAAAAAAAAAAAAAAAAAAAAAAAAAAAAAAAAAAAAAAAAAAAAAAAAAAAAAAAAAAAAAAAAAAAAAAAAAAAAAAAAAAAAAAAAAAAAAAAAAAAAAAAAAAAAAAAAAAAAAAAAAAAAAAAAAAAAAAAAAAAAAAAAAAAAAAAAAAAAAAAAAAAAAAAAAAAAAAAAAAAAAAAAAAAAAAAAAAAAAAAAAAAAAAAAAAAAAAAAAAAAAAAAAAAAAAAAAAAAAAAAAAAAAAAAAAAAAAAAAAAAAAAAAAAAAAAAAAAAAAAAAAAAAAAAAAAAAAAAAAAAAAAAAAAAAAAAAAAAAAAAAAAAAAAAAAAAAAAAAAAAAAAAAAAAAAAAAAAAAAAAAAAAAAAAAAAAAAAAAAAAAAAAAAAAAAAAAAAAAAAAAAAAAAAAAAAAAAAAAAAAAAAAAAAAAAAAAAAAAAAAAAAAAAAAAAAAAAAAAAAAAAAAAAAAAAAAAAAAAAAAAAAAAAAAAAAAAAAAAAAAAAAAAAAAAAAAAAAAAAAAAAAAAAAAAAAAAAAAAAAAAAAAAAAAAAAAAAAAAAAAAAAAAAAAAAAAAAAAAAAAAAAAAAAAAAAAAAAAAAAAAAAAAAAAAAAAAAAAAAAAAAAAAAAAAAAAAAAAAAAAAAAAAAAAAAAAAAAAAAAAAAAAAAAAAAAAAAAAAAAAAAAAAAAAAAAAAAAAAAAAAAAAAAAAAAAAAAAAAAAAAAAAAAAAAAAAAAAAAAAAAAAAAAAAAAAAAAAAAAAAAAAAAAAAAAAAAAAAAAAAAAAAAAAAAAAAAAAAAAAAAAAAAAAAAAAAAAAAAAAAAAAAAAAAAAAAAAAAAAAAAAAAAAAAAAAAAAAAAAAAAAAAAAAAAAAAAAAAAAAAAAAAAAAAAAAAAAAAAAAAAAAAAAAAAAAAAAAAAAAAAAAAAAAAAAAAAAAAAAAAAAAAAAAAAAAAAAAAAAAAAAAAAAAAAAAAAAAAAAAAAAAAAAAAAAAAAAAAAAAAAAAAAAAAAAAAAAAAAAAAAAAAAAAAAAAAAAAAAAAAAAAAAAAAAAAAAAAAAAAAAAAAAAAAAAAAAAAAAAAAAAAAAAAAAAAAAAAAAAAAAAAAAAAAAAAAAAAAAAAAAAAAAAAAAAAAAAAAAAAAAAAAAAAAAAAAAAAAAAAAAAAAAAAAAAAAAAAAAAAAAAAAAAAAAAAAAAAAAAAAAAAAAAAAAAAAAAAAAAAAAAAAAAAAAAAAAAAAAAAAAAAAAAAAAAAAAAAAAAAAAAAAAAAAAAAAAAAAAAAAAAAAAAAAAAAAAAAAAAAAAAAAAAAAAAAAAAAAAAAAAAAAAAAAAAAAAAAAAAAAAAAAAAAAAAAAAAAAAAAAAAAAAAAAAAAAAAAAAAAAAAAAAAAAAAAAAAAAAAAAAAAAAAAAAAAAAAAAAAAAAAAAAAAAAAAAAAAAAAAAAAAAAAAAAAAAAAAAAAAAAAAAAAAAAAAAAAAAAAAAAAAAAAAAAAAAAAAAAAAAAAAAAAAAAAAAAAAAAAAAAAAAAAAAAAAAAAAAAAAAAAAAAAAAAAAAAAAAAAAAAAAAAAAAAAAAAAAAAAAAAAAAAAAAAAAAAAAAAAAAAAAAAAAAAAAAAAAAAAAAAAAAAAAAAAAAAAAAAAAAAAAAAAAAAAAAAAAAAAAAAAAAAAAAAAAAAAAAAAAAAAAAAAAAAAAAAAAAAAAAAAAAAAAAAAAAAAAAAAAAAAAAAAAAAAAAAAAAAAAAAAAAAAAAAAAAAAAAAAAAAAAAAAAAAAAAAAAAAAAAAAAAAAAAAAAAAAAAAAAAAAAAAAAAAAAAAAAAAAAAAAAAAAAAAAAAAAAAAAAAAAAAAAAAAAAAAAAAAAAAAAAAAAAAAAAAAAAAAAAAAAAAAAAAAAAAAAAAAAAAAAAAAAAAAAAAAAAAAAAAAAAAAAAAAAAAAAAAAAAAAAAAAAAAAAAAAAAAAAAAAAAAAAAAAAAAAAAAAAAAAAAAAAAAAAAAAAAAAAAAAAAAAAAAAAAAAAAAAAAAAAAAAAAAAAAAAAAAAAAAAAAAAAAAAAAAAAAAAAAAAAAAAAAAAAAAAAAAAAAAAAAAAAAAAAAAAAAAAAAAAAAAAAAAAAAAAAAAAAAAAAAAAAAAAAAAAAAAAAAAAAAAAAAAAAAAAAAAAAAAAAAAAAAAAAAAAAAAAAAAAAAAAAAAAAAAAAAAAAAAAAAAAAAAAAAAAAAAAAAAAAAAAAAAAAAAAAAAAAAAAAAAAAAAAAAAAAAAAAAAAAAAAAAAAAAAAAAAAAAAAAAAAAAAAAAAAAAAAAAAAAAAAAAAAAAAAAAAAAAAAAAAAAAAAAAAAAAAAAAAAAAAAAAAAAAAAAAAAAAAAAAAAAAAAAAAAAAAAAAAAAAAAAAAAAAAAAAAAAAAAAAAAAAAAAAAAAAAAAAAAAAAAAAAAAAAAAAAAAAAAAAAAAAAAAAAAAAAAAAAAAAAAAAAAAAAAAAAAAAAAAAAAAAAAAAAAAAAAAAAAAAAAAAAAAAAAAAAAAAAAAAAAAAAAAAAAAAAAAAAAAAAAAAAAAAAAAAAAAAAAAAAAAAAAAAAAAAAAAAAAAAAAAAAAAAAAAAAAAAAAAAAAAAAAAAAAAAAAAAAAAAAAAAAAAAAAAAAAAAAAAAAAAAAAAAAAAAAAAAAAAAAAAAAAAAAAAAAAAAAAAAAAAAAAAAAAAAAAAAAAAAAAAAAAAAAAAAAAAAAAAAAAAAAAAAAAAAAAAAAAAAAAAAAAAAAAAAAAAAAAAAAAAAAAAAAAAAAAAAAAAAAAAAAAAAAAAAAAAAAAAAAAAAAAAAAAAAAAAAAAAAAAAAAAAAAAAAAAAAAAAAAAAAAAAAAAAAAAAAAAAAAAAAAAAAAAAAAAAAAAAAAAAAAAAAAAAAAAAAAAAAAAAAAAAAAAAAAAAAAAAAAAAAAAAAAAAAAAAAAAAAAAAAAAAAAAAAAAAAAAAAAAAAAAAAAAAAAAAAAAAAAAAAAAAAAAAAAAAAAAAAAAAAAAAAAAAAAAAAAAAAAAAAAAAAAAAAAAAAAAAAAAAAAAAAAAAAAAAAAAAAAAAAAAAAAAAAAAAAAAAAAAAAAAAAAAAAAAAAAAAAAAAAAAAAAAAAAAAAAAAAAAAAAAAAAAAAAAAAAAAAAAAAAAAAAAAAAAAAAAAAAAAAAAAAAAAAAAAAAAAAAAAAAAAAAAAAAAAAAAAAAAAAAAAAAAAAAAAAAAAAAAAAAAAAAAAAAAAAAAAAAAAAAAAAAAAAAAAAAAAAAAAAAAAAAAAAAAAAAAAAAAAAAAAAAAAAAAAAAAAAAAAAAAAAAAAAAAAAAAAAAAAAAAAAAAAAAAAAAAAAAAAAAAAAAAAAAAAAAAAAAAAAAAAAAAAAAAAAAAAAAAAAAAAAAAAAAAAAAAAAAAAAAAAAAAAAAAAAAAAAAAAAAAAAAAAAAAAAAAAAAAAAAAAAAAAAAAAAAAAAAAAAAAAAAAAAAAAAAAAAAAAAAAAAAAAAAAAAAAAAAAAAAAAAAAAAAAAAAAAAAAAAAAAAAAAAAAAAAAAAAAAAAAAAAAAAAAAAAAAAAAAAAAAAAAAAAAAAAAAAAAAAAAAAAAAAAAAAAAAAAAAAAAAAAAAAAAAAAAAAAAAAAAAAAAAAAAAAAAAAAAAAAAAAAAAAAAAAAAAAAAAAAAAAAAAAAAAAAAAAAAAAAAAAAAAAAAAAAAAAAAAAAAAAAAAAAAAAAAAAAAAAAAAAAAAAAAAAAAAAAAAAAAAAAAAAAAAAAAAAAAAAAAAAAAAAAAAAAAAAAAAAAAAAAAAAAAAAAAAAAAAAAAAAAAAAAAAAAAAAAAAAAAAAAAAAAAAAAAAAAAAAAAAAAAAAAAAAAAAAAAAAAAAAAAAAAAAAAAAAAAAAAAAAAAAAAAAAAAAAAAAAAAAAAAAAAAAAAAAAAAAAAAAAAAAAAAAAAAAAAAAAAAAAAAAAAAAAAAAAAAAAAAAAAAAAAAAAAAAAAAAAAAAAAAAAAAAAAAAAAAAAAAAAAAAAAAAAAAAAAAAAAAAAAAAAAAAAAAAAAAAAAAAAAAAAAAAAAAAAAAAAAAAAAAAAAAAAAAAAAAAAAAAAAAAAAAAAAAAAAAAAAAAAAAAAAAAAAAAAAAAAAAAAAAAAAAAAAAAAAAAAAAAAAAAAAAAAAAAAAAAAAAAAAAAAAAAAAAAAAAAAAAAAAAAAAAAAAAAAAAAAAAAAAAAAAAAAAAAAAAAAAAAAAAAAAAAAAAAAAAAAAAAAAAAAAAAAAAAAAAAAAAAAAAAAAAAAAAAAAAAAAAAAAAAAAAAAAAAAAAAAAAAAAAAAAAAAAAAAAAAAAAAAAAAAAAAAAAAAAAAAAAAAAAAAAAAAAAAAAAAAAAAAAAAAAAAAAAAAAAAAAAAAAAAAAAAAAAAAAAAAAAAAAAAAAAAAAAAAAAAAAAAAAAAAAAAAAAAAAAAAAAAAAAAAAAAAAAAAAAAAAAAAAAAAAAAAAPZYQD47G69QiWEz4/5yZRwjjLFHKPjq6OPWO3q083khmiiPmd6O7c9OMBGbuDhd0IdQC8EgYz6A9qUo9R0eqA9Gad8=</c2pa:manifest></metadata>

<path transform="translate(0,0)" fill="rgb(30,42,43)" d="M 754.433 702.003 C 785.246 654.93 804.566 597.414 828.585 546.555 C 833.662 535.803 837.43 527.038 848.809 521.864 C 890.777 502.78 943.928 503.915 979.737 472.439 C 983.209 469.389 987.374 466.239 991.112 463.459 C 1065.07 419.147 1140.56 419.563 1216.11 458.845 C 1259.05 481.17 1322.27 483.759 1369.16 497.563 C 1396.58 505.636 1420.21 521.587 1445.49 534.406 C 1470.21 545.285 1494.95 555.333 1519.24 567.169 C 1543.03 578.766 1544.04 591.456 1551.2 615.157 C 1557.71 639.273 1556.99 685.43 1554.19 711.059 C 1554.23 711.641 1554.27 712.222 1554.32 712.804 C 1554.17 734.114 1555.82 753.728 1559.47 774.717 C 1566.66 809.24 1575.99 827.921 1577.5 866.244 C 1579.35 913.576 1573.67 961.32 1578.96 1008.17 C 1580.74 1023.94 1590.08 1046.54 1593.63 1062.88 C 1599.28 1088.87 1601.51 1114.85 1606.56 1140.96 C 1613.11 1174.84 1625.35 1205.03 1627.83 1239.69 C 1612.69 1247.51 1605.64 1274.81 1613.19 1290.13 C 1615.53 1294.86 1619.79 1296.76 1624.42 1298.93 C 1606.48 1334.46 1586.17 1353.98 1549.02 1364.98 C 1492.22 1381.79 1439.12 1405.12 1404.24 1454.89 C 1399.38 1461.82 1385.43 1467.61 1383.5 1476.3 C 1378.39 1496.23 1357.24 1498.28 1342.73 1506.45 C 1311.05 1524.3 1283.81 1519.01 1250.23 1525.38 C 1238.01 1527.71 1215.93 1540.56 1203.09 1546.47 C 1210.62 1564.84 1214.43 1583.38 1190.57 1591.75 C 1165.04 1600.71 1140.02 1615.42 1113.53 1620.36 C 1110.29 1620.97 1097.68 1616.54 1094.12 1615.25 C 1060.05 1599.65 1019.6 1586.45 987.192 1568.49 C 969.889 1558.89 985.616 1511.97 991.384 1499.11 C 996.45 1487.8 1002.73 1482.01 1014.51 1477.55 C 1002.7 1472.58 990.004 1465.14 978.926 1460.65 C 955.201 1451.03 920.361 1458.56 894.045 1459.5 C 855.833 1460.87 835.829 1443.58 802.419 1427.74 C 795.102 1424.27 785.396 1418.59 777.561 1416.52 C 753.498 1410.18 727.017 1407.85 702.325 1404 C 691.186 1402.26 680.105 1401.3 669.537 1397.22 C 652.955 1390.82 635.619 1370.94 618.945 1366.61 C 609.537 1364.17 589.071 1365.52 578.815 1365.88 L 517.933 1368.11 C 470.472 1369.8 452.59 1367.25 416.761 1333.33 C 405.813 1322.97 404.027 1316.44 403.48 1301.73 C 378.105 1313.1 378.981 1313.62 353.175 1302.99 C 323.523 1290.78 317.206 1286.34 323.743 1253.38 C 325.668 1243.68 327.639 1229.29 329.395 1218.7 C 349.752 1211.14 372.518 1201.42 393.107 1195.02 C 404.806 1191.39 419.891 1202.43 429.37 1208.89 C 436.508 1185.93 442.229 1162.1 449.751 1139.27 C 453.767 1127.86 457.757 1102.28 467.525 1095.03 C 483.919 1082.85 511.124 1073.15 529.814 1064.92 L 527.707 1057.3 C 526.546 1052.47 526.88 1049.48 527.934 1044.76 C 528.687 1036.9 538.874 1002.25 541.558 992.492 L 570.011 888.016 C 574.709 870.785 592.83 864.418 607.663 857.754 C 623.281 850.737 638.392 844.471 653.371 835.963 C 660.584 817.856 678.552 741.304 691.754 727.83 C 695.548 723.958 745.45 705.612 754.433 702.003 z"/>
<path transform="translate(0,0)" fill="rgb(31,95,91)" d="M 1559.47 774.717 C 1566.66 809.24 1575.99 827.921 1577.5 866.244 C 1579.35 913.576 1573.67 961.32 1578.96 1008.17 C 1580.74 1023.94 1590.08 1046.54 1593.63 1062.88 C 1599.28 1088.87 1601.51 1114.85 1606.56 1140.96 C 1613.11 1174.84 1625.35 1205.03 1627.83 1239.69 C 1612.69 1247.51 1605.64 1274.81 1613.19 1290.13 C 1615.53 1294.86 1619.79 1296.76 1624.42 1298.93 C 1606.48 1334.46 1586.17 1353.98 1549.02 1364.98 C 1492.22 1381.79 1439.12 1405.12 1404.24 1454.89 C 1399.38 1461.82 1385.43 1467.61 1383.5 1476.3 L 1381.4 1475.18 C 1380.3 1458.62 1375.2 1446.87 1370.49 1431.18 C 1361.59 1401.53 1351.07 1375.9 1347.3 1344.85 L 1348.61 1344.56 C 1349.74 1332.64 1347.7 1297.23 1346.45 1285.01 C 1344.73 1268.12 1346.51 1209.41 1339.62 1198.52 C 1326.26 1177.39 1283.63 1163.6 1263.43 1145.06 L 1262.34 1144.05 C 1295.18 1131.76 1330.82 1114.76 1364.59 1101.45 L 1363.18 1099.33 C 1377.8 1089.98 1390.88 1084.82 1392.65 1062.26 C 1394.17 1042.95 1409.02 1043.14 1415.89 1028.49 C 1420.85 1017.92 1418.7 1001.48 1428.28 991.863 C 1451.83 968.299 1487.23 964.508 1496.13 926.373 C 1503.72 895.506 1470.18 856.231 1490.29 821.9 C 1505.43 796.067 1530.73 789.197 1556.89 781.923 C 1558.09 779.761 1557.44 778.666 1557.18 775.659 L 1559.47 774.717 z"/>
<path transform="translate(0,0)" fill="rgb(239,237,228)" d="M 1364.59 1101.45 L 1512.76 1039.82 C 1533.45 1031.38 1557.26 1020.34 1577.9 1013.48 C 1581.97 1032.97 1588.18 1050.05 1592.55 1068.73 L 1591.48 1069.55 C 1575.23 1081.74 1553.45 1081.73 1535.53 1090.02 C 1521.87 1096.34 1510.29 1108.7 1508.55 1123.93 C 1506.78 1139.38 1509.56 1157.49 1495 1168.22 C 1474.15 1182.32 1458.74 1183.2 1453.03 1213 C 1449.91 1229.33 1459.05 1248.46 1443.27 1260.82 C 1434.86 1267.41 1424.99 1269.39 1418.81 1278.24 C 1414.82 1283.94 1412.67 1292.46 1411.37 1299.29 C 1407.44 1320.06 1394.22 1335 1374.03 1341.16 C 1368.41 1342.88 1353.7 1347.42 1348.61 1344.56 C 1349.74 1332.64 1347.7 1297.23 1346.45 1285.01 C 1344.73 1268.12 1346.51 1209.41 1339.62 1198.52 C 1326.26 1177.39 1283.63 1163.6 1263.43 1145.06 L 1262.34 1144.05 C 1295.18 1131.76 1330.82 1114.76 1364.59 1101.45 z"/>
<path transform="translate(0,0)" fill="rgb(239,237,228)" d="M 1338.63 681.572 C 1362.64 681.984 1401.13 679.565 1421.12 667.05 C 1452.27 647.551 1480.09 639.606 1514.58 628.794 C 1529.88 624.001 1537.95 617.882 1544.83 602.919 L 1549.55 617.246 L 1551.2 615.157 C 1557.71 639.273 1556.99 685.43 1554.19 711.059 C 1554.23 711.641 1554.27 712.222 1554.32 712.804 C 1554.17 734.114 1555.82 753.728 1559.47 774.717 L 1557.18 775.659 C 1557.44 778.666 1558.09 779.761 1556.89 781.923 C 1530.73 789.197 1505.43 796.067 1490.29 821.9 C 1470.18 856.231 1503.72 895.506 1496.13 926.373 C 1487.23 964.508 1451.83 968.299 1428.28 991.863 C 1418.7 1001.48 1420.85 1017.92 1415.89 1028.49 C 1409.02 1043.14 1394.17 1042.95 1392.65 1062.26 C 1390.88 1084.82 1377.8 1089.98 1363.18 1099.33 C 1329.03 1113 1294.22 1129.36 1260.62 1142.24 C 1245.56 1134.74 1210.59 1118.35 1194.01 1118.31 C 1190.61 1118.3 1183.77 1120.52 1180.24 1121.63 C 1178.46 1102.12 1175.83 1076.74 1172.71 1057.57 C 1190.75 1050.93 1219.4 1041.04 1234.58 1029.45 C 1241.08 1024.49 1247.88 1011.72 1257.2 1006.64 C 1273.51 997.864 1290.15 992.619 1307.41 985.68 C 1319.3 980.903 1340.38 972.233 1339.9 956.337 C 1339.69 949.216 1333.17 942.685 1327.93 938.348 C 1328.35 906.454 1338.26 870.469 1338.43 837.15 C 1338.57 809.463 1333.93 790.918 1330.47 763.995 C 1327 737.103 1333.29 707.9 1338.63 681.572 z"/>
<path transform="translate(0,0)" fill="rgb(31,95,91)" d="M 1551.2 615.157 C 1557.71 639.273 1556.99 685.43 1554.19 711.059 C 1553.95 708.946 1554.37 702.558 1552.62 702.451 C 1551.84 698.718 1552.77 699.98 1550.61 697.535 C 1533.6 702.231 1467.7 740.131 1456.01 726.019 C 1453.39 718.175 1459.17 711.96 1461.91 705.598 C 1471.87 682.416 1495.11 681.651 1511.93 667.019 C 1518.63 661.188 1517.99 646.136 1524.99 638.396 C 1531.39 631.325 1547.96 625.717 1549.55 617.246 L 1551.2 615.157 z"/>
<path transform="translate(0,0)" fill="rgb(30,42,43)" d="M 1552.62 702.451 C 1554.37 702.558 1553.95 708.946 1554.19 711.059 C 1554.23 711.641 1554.27 712.222 1554.32 712.804 C 1554.17 734.114 1555.82 753.728 1559.47 774.717 L 1557.18 775.659 C 1554.22 758.997 1549.86 718.709 1552.62 702.451 z"/>
<path transform="translate(0,0)" fill="rgb(30,42,43)" d="M 1262.24 1047.86 C 1273.58 1052.65 1273.48 1074.84 1272.55 1085.08 C 1266.92 1075.55 1273.01 1061.37 1264.63 1052.37 C 1262.79 1050.39 1262.69 1050.21 1262.24 1047.86 z"/>
<path transform="translate(0,0)" fill="rgb(239,237,228)" d="M 1338.55 1225.91 L 1341.89 1226.71 C 1341.33 1237.22 1342.71 1257.79 1343.21 1268.84 C 1344.34 1294.19 1345.7 1319.53 1347.3 1344.85 C 1351.07 1375.9 1361.59 1401.53 1370.49 1431.18 C 1375.2 1446.87 1380.3 1458.62 1381.4 1475.18 C 1381.06 1476.42 1380.24 1478.93 1379.75 1480.13 C 1373.62 1495.06 1317.29 1514.68 1302.84 1517.64 C 1290.07 1520.25 1263.71 1518.45 1248.68 1523.19 C 1231.63 1528.57 1218.85 1537.27 1202.31 1544.09 C 1196.88 1531.14 1191.69 1518.09 1186.72 1504.96 C 1173.85 1471.36 1176.89 1471.07 1141.89 1458.56 C 1129.34 1454.07 1120.21 1449.05 1105.83 1445.46 C 1094.9 1395.94 1101.88 1341.74 1111.98 1292.45 C 1126.7 1287.36 1162.62 1274.11 1176.13 1273.08 C 1202 1271.48 1227.88 1273.1 1253.72 1270.47 C 1272.61 1268.55 1282.46 1260.64 1298.39 1251.86 C 1313.65 1243.45 1327.24 1240.5 1338.55 1225.91 z"/>
<path transform="translate(0,0)" fill="rgb(30,42,43)" d="M 1250.11 1327.5 C 1254.42 1328.53 1257.02 1334.3 1259.48 1338.03 C 1278.7 1367.1 1271.73 1398.79 1257.48 1428.21 C 1257.2 1427.85 1256.07 1426.63 1256.3 1426.02 C 1261.5 1412.31 1267.4 1398.25 1268.83 1383.48 C 1270.78 1363.2 1261.99 1344.93 1250.37 1329.11 C 1250.28 1328.57 1250.19 1328.04 1250.11 1327.5 z"/>
<path transform="translate(0,0)" fill="rgb(185,217,198)" d="M 1338.55 1225.91 C 1340.78 1220.19 1341.27 1222.34 1341.89 1226.71 L 1338.55 1225.91 z"/>
<path transform="translate(0,0)" fill="rgb(247,245,238)" d="M 968.88 586.579 C 1010.67 583.235 1028.53 599.055 1066.84 609.039 C 1104.38 618.826 1159.03 617.162 1194.4 630.449 C 1248.59 650.802 1274.22 677.287 1335.8 681.307 C 1331.64 707.12 1325.23 732.159 1327.4 758.513 C 1329.62 783.063 1335.94 807.251 1335.87 832.01 C 1335.82 851.069 1333.6 869.84 1330.74 888.655 C 1328.34 904.494 1326.46 920.397 1324.86 936.356 C 1313.04 929.793 1297.78 925.099 1284.88 920.346 C 1261.9 911.794 1238.86 903.404 1215.75 895.178 C 1207.46 892.185 1188.93 885.979 1182.11 882.039 L 1194.57 875.919 C 1194.9 870.362 1195.42 835.752 1193.76 833.196 C 1167.93 821.588 1134.51 814.992 1107.63 804.554 C 1095.08 799.679 1080.29 794.746 1067.45 790.982 C 1023.35 817.191 979.339 846.688 935.169 872.441 C 919.764 871.808 904.338 871.913 888.943 872.756 C 839.968 874.983 833.265 872.875 786.209 858.825 C 790.209 839.487 796.439 820.628 800.706 801.602 C 808.311 767.69 819.425 737.384 833.271 705.513 C 838.576 693.302 847.065 683.951 853.14 672.3 C 863.224 646.939 873.923 617.672 880.955 591.493 C 905.773 594.492 942.539 588.542 968.88 586.579 z"/>
<path transform="translate(0,0)" fill="rgb(30,42,43)" d="M 1279.16 794.689 C 1283.42 797.782 1266.16 823.472 1265.02 828.013 C 1262.13 839.49 1266.5 852.74 1265.62 864.8 C 1265.02 864.288 1263.22 862.923 1263.26 861.974 C 1263.82 848.179 1257.07 834.16 1265.07 821.941 C 1270.59 813.516 1274.38 803.073 1279.16 794.689 z"/>
<path transform="translate(0,0)" fill="rgb(30,42,43)" d="M 936.447 658.74 C 939.614 663.23 923.634 686.136 922.082 692.505 C 919.081 704.826 923.898 717.602 921.57 730.105 C 918.253 724.355 916.875 694.961 920.93 688.265 C 926.435 679.172 931.154 667.955 936.447 658.74 z"/>
<path transform="translate(0,0)" fill="rgb(30,42,43)" d="M 1235.37 694.904 C 1246.22 696.741 1247.34 725.333 1244.93 733.358 C 1240.81 729.927 1245 708.807 1239.62 702.297 C 1238.41 700.837 1235.83 696.812 1235.37 694.904 z"/>
<path transform="translate(0,0)" fill="rgb(30,42,43)" d="M 1109.35 645.754 C 1119.22 652.028 1121.5 674.72 1117.8 684.405 C 1115.94 680.226 1116.96 668.89 1115.57 661.866 C 1113.82 653.059 1110.06 651.404 1109.35 645.754 z"/>
<path transform="translate(0,0)" fill="rgb(247,245,238)" d="M 1099.25 432.433 C 1144.73 429.833 1175.59 442.2 1215.48 460.957 C 1261.45 482.57 1313.86 485.761 1362.84 497.891 C 1393.92 505.588 1418.14 523.984 1446.38 537.409 C 1468.09 549.458 1510.28 560.45 1528.98 575.075 C 1565.22 603.427 1522.59 627.399 1495.42 632.355 C 1484.69 634.312 1467.63 641.301 1457.57 644.82 C 1445.15 649.167 1431.46 659.925 1419.01 665.035 C 1378.69 684.18 1324.08 682.511 1283.08 668.591 C 1253.53 656.863 1226.48 638.719 1196.46 628.463 C 1157.5 615.156 1108.99 615.107 1067.96 606.626 C 1042.28 601.317 1019.62 586.393 993.271 583.907 C 968.467 581.567 942.16 586.576 917.45 588.889 C 892.369 591.236 884.647 590.977 863.411 576.723 C 857.069 572.466 850.197 568.31 844.402 563.331 C 839.234 558.891 834.251 552.934 833.916 545.815 C 833.663 540.416 836.209 535.53 839.837 531.681 C 854.804 515.801 928.838 502.634 954.959 491.135 C 970.097 484.47 979.784 474.008 993.105 464.907 C 1006.8 455.549 1025.11 448.868 1040.67 443.192 C 1059.59 436.291 1079.21 433.422 1099.25 432.433 z"/>
<path transform="translate(0,0)" fill="rgb(247,245,238)" d="M 700.764 1182.44 C 727.72 1179.53 741.513 1188.23 765.679 1197.35 C 803.021 1211.45 841.775 1232.87 880.432 1241.88 C 911.943 1249.95 960.797 1235.12 990.413 1244.66 C 1031.42 1257.87 1063.91 1286.33 1109.15 1292.36 C 1099.45 1341.92 1092.02 1395.98 1103.39 1445.63 C 1086.76 1448.26 1047.02 1464.57 1030.25 1471.51 C 1026.24 1473.13 1021 1474.74 1016.83 1476.17 C 976.469 1453.69 955.119 1448.73 910.28 1456.18 C 856.764 1465.07 824.463 1430.75 778.805 1414.47 C 765.495 1409.72 719.372 1403.52 703.102 1401.67 C 661.805 1396.97 656.579 1384.94 623.083 1364.4 C 632.294 1305.7 647.82 1244.5 657.442 1184.37 C 670.779 1184.24 687.051 1182.96 700.764 1182.44 z"/>
<path transform="translate(0,0)" fill="rgb(30,42,43)" d="M 862.514 1297.75 C 865.918 1303.25 849.177 1324.86 847.278 1332.56 C 844.899 1342.21 850.305 1362.48 846.559 1370.01 C 843.948 1362.02 844.59 1344.68 842.989 1334.67 C 848.551 1323.59 856.35 1308.57 862.514 1297.75 z"/>
<path transform="translate(0,0)" fill="rgb(30,42,43)" d="M 1022.46 1334.65 C 1024.03 1339.65 1009.14 1364.35 1006.01 1369.95 C 1006.1 1379.48 1006.53 1389.01 1007.29 1398.51 C 1007.59 1402.12 1007.85 1402.53 1006.57 1405.75 C 1003.68 1400.33 1003.85 1377.01 1003.42 1369.24 C 1007.51 1361.6 1018.15 1341.33 1022.46 1334.65 z"/>
<path transform="translate(0,0)" fill="rgb(30,42,43)" d="M 747.525 1334.77 C 748.76 1335.98 749.065 1336.47 747.464 1337.77 C 736.541 1346.64 736.818 1360.63 737.388 1373.61 C 732.806 1370.32 735.058 1358.88 735.59 1353.67 C 736.356 1346.18 741.182 1339.01 747.525 1334.77 z"/>
<path transform="translate(0,0)" fill="rgb(247,245,238)" d="M 569.521 899.79 C 572.208 903.244 572.054 908.567 579.323 913.921 C 595.541 925.863 641.783 959.828 658.929 964.75 C 700.318 976.631 751.952 974.372 795.285 982.613 C 825.157 988.294 847.005 1009.69 871.224 1015.45 C 902.666 1022.92 949.932 1019.72 982.902 1024.27 C 1002.78 1027.02 1030.16 1036.73 1049.51 1043.71 C 1087.89 1057.55 1130.02 1061.31 1170.69 1057.74 C 1171.95 1077.54 1175.56 1102.33 1177.92 1122.39 C 1131.77 1141.88 1100.87 1138.17 1102.68 1196.98 C 1103.04 1202.51 1103.98 1205.84 1106.32 1210.77 C 1100.47 1212.85 1090.34 1216.81 1084.64 1217.61 C 1088.02 1188.99 1075.09 1183.36 1050.41 1177.36 C 1045.06 1179.13 1040.59 1182.01 1035.74 1184.85 C 1017.76 1180.63 991.729 1173.66 974.172 1172.95 C 946.916 1171.85 916.244 1177.87 889.148 1171.16 C 844.279 1160.06 789.891 1127.52 744.976 1120.53 C 711.883 1115.39 654.925 1130.73 620.864 1123.37 C 613.458 1121.77 606.322 1119.1 599.68 1115.46 C 581.108 1105.45 560.822 1087.08 542.064 1075.8 C 535.851 1072.07 528.286 1058.95 529.741 1051.14 C 539.22 1000.33 557.4 950.032 569.521 899.79 z"/>
<path transform="translate(0,0)" fill="rgb(30,42,43)" d="M 1063.13 1076.54 C 1074.61 1081.04 1074.55 1104.33 1073.66 1114.5 C 1068.26 1111.16 1073.65 1090.2 1066.93 1083.73 C 1066.04 1082.87 1063.76 1078.05 1063.13 1076.54 z"/>
<path transform="translate(0,0)" fill="rgb(30,42,43)" d="M 672.661 1046.87 C 675.243 1050.38 668.76 1050.77 665.629 1059.37 C 661.434 1070.88 663.67 1076.39 662.559 1087.8 C 656.761 1074.21 661.234 1056.46 672.661 1046.87 z"/>
<path transform="translate(0,0)" fill="rgb(247,245,238)" d="M 653.056 839.209 C 673.515 849.559 693.364 862.334 713.8 873.174 C 739.702 886.912 755.619 870.063 782.593 861.317 L 784.39 860.743 C 799.447 865.253 831.442 875.689 845.127 876.433 C 874.166 878.011 900.371 872.642 930.55 875.651 C 922.337 880.985 914.38 885.795 905.537 890.041 C 891.306 913.839 882.442 954.978 922.798 960.19 C 935.017 961.768 938.098 957.819 946.685 950.558 C 955.887 952.362 970.314 957.395 979.689 960.374 L 1029.39 975.967 L 1030.04 976.176 C 1036.47 979.472 1033.5 998.008 1052.3 1003.81 C 1093.52 1016.55 1109.24 964.655 1092.49 936.24 L 1103.91 929.049 C 1139.2 973.942 1179.52 937.149 1168.55 890.413 L 1180.82 884.373 C 1189.95 888.861 1208.85 895.179 1219 898.889 L 1285.57 923.383 C 1295.52 926.995 1306.03 929.985 1315.57 934.6 C 1322.06 937.743 1329.76 941.925 1333.99 947.883 C 1336.54 951.484 1337.56 955.868 1336.5 960.195 C 1335.14 965.747 1330.75 970.795 1326.21 974.071 C 1320.87 977.925 1314.01 980.121 1307.91 982.55 C 1290.93 989.315 1270.74 995.203 1255.25 1004.95 C 1243.54 1012.33 1237.79 1025.66 1225.54 1032.71 C 1210.67 1041.27 1186.21 1052.03 1169.45 1055.06 C 1137.83 1060.79 1086.82 1053.25 1056.81 1043.62 C 1032.65 1035.86 1008.71 1025.62 983.497 1021.85 C 949.898 1016.82 901.687 1021.39 871.044 1012.78 C 844.834 1005.42 823.937 986.134 796.835 980.195 C 752.996 970.589 705.895 975.501 662.548 963.31 C 657.325 961.841 652.717 959.971 647.924 957.396 C 634.179 950.013 580.868 915.924 574.701 904.132 C 571.834 898.65 570.922 892.014 572.883 886.071 C 579.027 867.459 634.576 848.585 653.056 839.209 z"/>
<path transform="translate(0,0)" fill="rgb(247,245,238)" d="M 530.587 1067.1 C 537.579 1078.91 556.984 1088.44 568.239 1096.64 C 576.913 1102.97 587.713 1111.74 596.899 1116.83 C 603.48 1120.48 610.504 1123.27 617.797 1125.13 C 653.336 1134.23 708.409 1117.92 746.338 1123.43 C 765.364 1126.2 777.158 1131.75 794.53 1138.12 C 824.866 1149.24 857.677 1165.33 888.566 1173.55 C 915.762 1180.79 946.863 1174.31 974.209 1175.17 C 990.672 1175.68 1012.67 1183.05 1029.48 1186.06 C 1020.97 1192.35 1019.23 1194.93 1017.16 1205.53 C 1013.66 1223.47 1038.96 1226.7 1051.12 1231.77 C 1056.33 1230.38 1070.68 1225.57 1074.12 1224.96 C 1074.32 1226.71 1074.92 1233.91 1075.39 1235.18 C 1078.38 1256.8 1091.39 1257.57 1109.87 1264.45 C 1120.82 1259.35 1133.44 1254.87 1143.59 1248.39 C 1148.68 1245.15 1148.45 1240.8 1149.29 1234.93 C 1147.15 1235.78 1202.09 1248.73 1208.65 1249.5 C 1224.04 1242.85 1267.19 1230.4 1275.38 1218.32 C 1278.14 1214.25 1279.26 1209.55 1279.43 1204.68 C 1279.82 1192.97 1274.1 1167.81 1271.96 1155.29 C 1290.13 1166.25 1311.96 1177.69 1329.02 1188.84 C 1330.02 1189.26 1330.02 1189.17 1330.49 1190.1 C 1358.75 1220.96 1322.05 1238.1 1297.97 1249.83 C 1289.46 1253.97 1279.92 1260.44 1271.11 1263.46 C 1239.32 1274.35 1203.2 1266.33 1170.54 1271.05 C 1149.61 1274.08 1124.87 1290.74 1103.1 1288.84 C 1065.5 1283.75 1021.32 1249.31 986.497 1240.92 C 960.374 1234.63 911.268 1245.64 882.482 1239.64 C 859.946 1234.94 840.506 1226.19 819.534 1217.34 C 800.245 1209.1 780.887 1201.02 761.462 1193.11 C 751.568 1189.07 740.812 1184.3 730.502 1181.41 C 709.17 1175.44 683.361 1183.42 662.439 1181.53 C 639.937 1179.5 615.617 1165.33 592.36 1162.46 C 557.651 1158.17 521.326 1172.67 488.823 1155.05 C 463.156 1141.64 444.917 1110.42 476.107 1091.62 C 491.891 1082.11 513.459 1074.69 530.587 1067.1 z"/>
<path transform="translate(0,0)" fill="rgb(239,237,228)" d="M 457.149 1121.63 C 462.052 1137.5 468.298 1144.42 481.586 1153.65 C 514.46 1176.5 552.56 1161.41 588.274 1164.74 C 607.223 1166.51 636.645 1177.65 655.547 1183.91 C 651.165 1201.33 647.734 1225.16 644.236 1243.36 L 620.615 1363.63 C 616.533 1363.31 611.417 1363.27 607.239 1363.13 C 563.123 1362.48 514.089 1368.97 470.579 1363.63 C 451.78 1360.3 420.388 1336.62 410.785 1321.79 C 399.66 1304.62 419.001 1254.64 424.552 1235.55 L 457.149 1121.63 z"/>
<path transform="translate(0,0)" fill="rgb(30,42,43)" d="M 492.32 1209.65 C 496.667 1214.07 480.446 1235.21 478.496 1241.08 C 474.344 1253.58 479.69 1266.65 478.586 1279.63 C 474.685 1275.79 474.618 1251.58 473.854 1243.99 C 482.695 1229.69 485.011 1224.5 492.32 1209.65 z"/>
<path transform="translate(0,0)" fill="rgb(232,115,90)" d="M 1066.88 794.858 C 1071.77 795.381 1101.62 805.845 1108.78 808.238 C 1136.43 817.609 1164.23 826.547 1192.16 835.048 C 1180.11 840.55 1165.22 850.04 1153.59 857.11 L 1074.03 906.364 C 1062.06 913.758 1045.4 924.787 1033.15 930.819 C 1017.44 932.452 932.539 897.614 905.915 892.792 C 918.912 886.965 951.042 866.491 964.58 858.146 L 1066.88 794.858 z"/>
<path transform="translate(0,0)" fill="rgb(30,42,43)" d="M 1068.88 800.156 C 1095.84 814.146 1148.96 824.076 1174.35 837 C 1168.4 841.734 1160.1 846.347 1153.48 850.346 C 1111.89 875.482 1070.72 901.948 1028.43 925.86 C 1001.73 919.528 972.207 905.616 945.413 898.242 C 939.633 896.651 927.739 894.758 924.262 890.335 C 933.317 884.081 945.046 877.911 954.717 871.927 L 1024.05 828.929 C 1036.33 821.469 1057.08 809.395 1067.74 801.062 L 1068.88 800.156 z"/>
<path transform="translate(0,0)" fill="rgb(232,115,90)" d="M 1069.46 819.004 C 1099.48 827.816 1124.52 835.875 1154.19 846.208 C 1113.37 868.29 1070.43 899.793 1029.46 921.718 C 1024.73 923.045 957.158 898.07 945.48 895.04 C 986.622 871.519 1028.34 841.196 1069.46 819.004 z"/>
<path transform="translate(0,0)" fill="rgb(232,115,90)" d="M 1068.02 805.246 C 1069.49 809.65 1068.23 815.516 1063.98 818.083 C 1023.13 842.726 983.266 869.33 941.9 893.028 C 940.676 893.729 934.814 892.734 933.22 892.486 L 931.271 891.121 C 931.496 890.518 931.722 889.914 931.947 889.311 C 971.008 865.535 1031.45 828.062 1068.02 805.246 z"/>
<path transform="translate(0,0)" fill="rgb(232,115,90)" d="M 1072.13 804.662 C 1082.08 809.585 1098.2 813.819 1108.97 817.688 C 1127.33 824.202 1145.87 830.178 1164.53 835.772 C 1165.27 835.993 1168.19 836.518 1168.41 837.435 C 1167.7 838.125 1164.45 839.662 1163.48 840.151 C 1161.12 841.379 1159.49 842.42 1157.28 843.803 C 1133.69 835.309 1094.39 822.037 1070.93 816.036 C 1071.29 812.23 1071.75 808.466 1072.13 804.662 z"/>
<path transform="translate(0,0)" fill="rgb(239,237,228)" d="M 830.597 548.68 C 831.472 549.526 831.497 549.395 831.99 550.593 C 838.436 566.276 863.581 579.539 878.665 589.229 C 874.68 609.751 865.242 630.038 858.838 649.991 C 857.135 653.349 853.028 668.487 851.297 670.883 C 837.677 689.742 828.035 709.52 820.228 731.199 C 817.66 738.328 811.869 754.142 808.233 757.293 C 803.949 753.5 795.865 744.239 791.643 739.635 C 780.229 727.189 768.904 714.662 757.667 702.057 C 764.428 689.594 774.074 675.392 779.698 662.57 C 796.252 624.831 814.733 586.58 830.597 548.68 z"/>
<path transform="translate(0,0)" fill="rgb(239,237,228)" d="M 997.288 1494.39 C 1012.24 1501.09 1026.95 1508.55 1041.89 1515.3 C 1058.99 1523.02 1074.12 1532.85 1093.63 1528.15 C 1097 1559.82 1103.19 1543.33 1113.33 1567.8 C 1117.15 1577.01 1109.56 1592.98 1108.96 1602.59 C 1108.72 1606.4 1112.53 1614.48 1111.41 1616.54 L 1106.1 1615.85 C 1093.2 1612.91 1062.44 1598.05 1048.59 1592.57 C 1032.05 1586.02 1012.84 1577.75 996.46 1570.53 C 990.51 1567.27 985.522 1564.62 983.93 1557.52 C 979.994 1539.95 988.862 1509.41 997.288 1494.39 z"/>
<path transform="translate(0,0)" fill="rgb(239,237,228)" d="M 1175 1484.91 C 1178.8 1489.44 1187.79 1516.54 1190.32 1523.52 C 1196.34 1539.41 1219.12 1576.18 1194.02 1586.88 C 1171.88 1596.33 1146.19 1606.91 1123.55 1615.72 C 1101.9 1618.83 1119.15 1581.05 1117.33 1570.54 C 1113.92 1550.91 1083.84 1542.76 1102.31 1521.18 C 1121.28 1499.03 1157.35 1505.61 1175 1484.91 z"/>
<path transform="translate(0,0)" fill="rgb(247,245,238)" d="M 1193.46 1121.13 C 1210.26 1120.03 1313.1 1156.74 1249.29 1179.59 C 1220.41 1189.94 1234.71 1204.88 1193.12 1196.17 C 1190.24 1195.24 1187.4 1194.2 1184.57 1193.14 C 1175.51 1189.74 1114.82 1167.53 1112.94 1162.24 C 1112.07 1159.79 1112.46 1157.53 1113.6 1155.23 C 1115.04 1152.33 1118.53 1150.06 1121.3 1148.64 C 1127.3 1145.57 1134.13 1143.86 1140.39 1141.31 C 1157.61 1134.32 1175.38 1125.3 1193.46 1121.13 z"/>
<path transform="translate(0,0)" fill="rgb(239,237,228)" d="M 684.73 744.243 C 693.495 753.42 735.991 776.653 748.399 781.992 C 744.168 803.83 742.095 827.101 738.58 849.124 C 737.36 856.772 736.113 870.21 734.04 876.977 C 732.502 877.054 732.444 877.232 731.308 876.567 C 710.748 872.199 676.124 847.221 655.256 837.539 C 665.373 806.333 674.295 775.386 684.73 744.243 z"/>
<path transform="translate(0,0)" fill="rgb(31,95,91)" d="M 731.308 876.567 C 732.122 876.479 733.321 876.83 734.04 876.977 C 732.502 877.054 732.444 877.232 731.308 876.567 z"/>
<path transform="translate(0,0)" fill="rgb(247,245,238)" d="M 1093.74 1450.12 C 1121.06 1447.89 1138.58 1462.18 1163.87 1470.45 C 1167.57 1471.66 1171.24 1475.26 1172.48 1479.07 C 1171.9 1496.37 1125.1 1500.43 1114.06 1507.42 C 1096.79 1518.35 1102.37 1526.53 1079.38 1526.1 C 1064.07 1524.33 1016.41 1500 998.868 1492.14 C 1009.2 1478.99 1041.28 1471.1 1056.78 1464.41 C 1067.53 1459.78 1082.6 1453.72 1093.74 1450.12 z"/>
<path transform="translate(0,0)" fill="rgb(247,245,238)" d="M 753.576 704.818 C 754.34 704.858 755.104 704.898 755.869 704.938 C 770.978 718.872 793.321 746.855 806.716 759.951 C 788.853 764.579 759.139 783.776 742.552 776.563 C 656.166 729.307 677.474 738.123 753.576 704.818 z"/>
<path transform="translate(0,0)" fill="rgb(239,237,228)" d="M 804.237 762.871 C 805.59 762.868 805.962 763.08 807.3 763.403 C 806.395 772.671 800.377 793.484 797.783 803.03 C 792.671 821.417 787.876 839.889 783.398 858.44 C 768.761 863.002 755.685 869.829 741.25 875.33 L 738.641 875.567 C 736.815 871.503 749.034 793.164 750.641 782.29 C 768.99 777.801 786.738 770.033 804.237 762.871 z"/>
<path transform="translate(0,0)" fill="rgb(232,115,90)" d="M 909.775 896.976 C 922.13 899.878 940.745 906.593 953.298 910.758 C 978.241 919.285 1003.37 927.261 1028.66 934.679 C 1028.8 945.192 1028.98 955.705 1029.23 966.217 L 1029 972.343 C 1023.6 971.57 998.034 963.096 991.387 961.041 C 964.616 952.764 937.718 944.539 911.163 935.612 C 909.519 924.079 909.689 908.794 909.775 896.976 z"/>
<path transform="translate(0,0)" fill="rgb(239,237,228)" d="M 1109.83 1165.49 L 1110.76 1166.15 C 1117.63 1171.15 1187.56 1198.65 1200 1200.97 C 1199.6 1200.9 1207.18 1202.26 1207.26 1202.28 C 1202.88 1221.06 1200.64 1226.76 1204.72 1246.34 C 1186.46 1243.17 1164.7 1237.35 1147.51 1230.16 L 1147.08 1228.62 C 1146 1224.89 1145.35 1222.61 1143.9 1218.98 C 1129.37 1210.01 1123.69 1207.66 1107.59 1207.03 C 1104.25 1188.39 1105.33 1183.28 1109.83 1165.49 z"/>
<path transform="translate(0,0)" fill="rgb(232,115,90)" d="M 1054.23 923.68 C 1057.89 918.876 1179.95 845.078 1191.79 838.319 L 1191.98 872.179 C 1178.18 881.894 1160.45 891.078 1145.77 900.188 C 1141.33 902.423 1138.15 903.924 1134 906.742 C 1117.76 916.278 1107.18 923.272 1091.6 933.627 C 1077.11 924.082 1071.41 923.077 1054.13 924.953 C 1044.77 932.936 1039.63 938.725 1034.88 950.492 L 1032.08 951.338 C 1031.81 946.339 1031.97 940.445 1031.99 935.371 C 1040.01 931.509 1045.33 926.531 1054.23 923.68 z"/>
<path transform="translate(0,0)" fill="rgb(239,237,228)" d="M 1270.22 1171.1 C 1272.35 1173.14 1271.69 1178.73 1272.75 1181.52 C 1290.02 1227.21 1252.25 1228.59 1211.81 1245.05 C 1199.34 1248.3 1209 1208.37 1210.57 1202.32 C 1211.41 1202.14 1212.15 1202.02 1213.01 1202 C 1228.98 1201.74 1234.97 1190.03 1245 1183.91 C 1255.25 1177.66 1258.58 1182.21 1270.22 1171.1 z"/>
<path transform="translate(0,0)" fill="rgb(239,237,228)" d="M 331.795 1223.28 C 343.809 1229.93 360.998 1240.48 373.815 1243.55 C 371.197 1254.91 369.235 1262.68 368.487 1274.4 L 368.977 1275.3 C 375.815 1288.17 379.762 1292.13 372.765 1306.78 C 365.894 1305.28 360.842 1302.05 354.465 1299.66 C 338.437 1293.65 332.627 1293.75 324.107 1278.52 C 324.559 1261.9 328.905 1240.06 331.795 1223.28 z"/>
<path transform="translate(0,0)" fill="rgb(247,245,238)" d="M 391.805 1198.16 C 408.149 1196.97 415.208 1203.38 428.97 1211.81 C 427.497 1216.27 426.167 1220.29 424.45 1224.7 C 403.05 1232.1 396.871 1241.56 373.104 1240.96 C 361.762 1237.48 343.568 1226.83 332.922 1220.78 C 353.164 1213.36 371.828 1205.82 391.805 1198.16 z"/>
<path transform="translate(0,0)" fill="rgb(239,237,228)" d="M 421.255 1228.87 C 421.625 1228.95 422.947 1229.22 422.888 1229.55 C 419.716 1247.31 412.145 1267.37 407.85 1284.99 C 406.077 1292.26 405.026 1294.95 403.704 1298.81 C 401.634 1299.58 374.843 1311.49 377.627 1304.78 L 377.908 1303.63 L 378.354 1301.9 C 381.553 1289.18 377.517 1284.13 371.275 1273.67 C 372.091 1262.26 373.54 1255.34 376.485 1244.25 C 380.237 1244.05 385.602 1244.55 389.004 1243.29 C 399.776 1239.33 410.733 1233.47 421.255 1228.87 z"/>
<path transform="translate(0,0)" fill="rgb(247,245,238)" d="M 1050.6 1180.95 C 1056.77 1181.5 1075.66 1187.52 1078.21 1194.05 C 1082.01 1203.76 1060.04 1208.39 1053.95 1210.02 C 1012.44 1197.03 1017.22 1195.79 1050.6 1180.95 z"/>
<path transform="translate(0,0)" fill="rgb(247,245,238)" d="M 1113.9 1211.07 C 1119.71 1210.33 1143.14 1218.81 1140.53 1224.05 C 1139.11 1226.91 1117.98 1236.36 1114.02 1237.09 C 1105.99 1234.3 1091.62 1228.56 1084.83 1223.28 C 1082.54 1221.5 1091.82 1218.43 1092.55 1218.24 C 1099.8 1216.27 1106.8 1213.51 1113.9 1211.07 z"/>
<path transform="translate(0,0)" fill="rgb(247,245,238)" d="M 1082.09 1226.53 C 1090.02 1230.59 1104.44 1236.88 1112.56 1239.99 C 1111.13 1246.86 1110.22 1252.85 1109.15 1259.77 C 1103.25 1259.62 1083.53 1251.9 1081 1245.98 C 1078.4 1239.9 1079.74 1232.43 1082.09 1226.53 z"/>
<path transform="translate(0,0)" fill="rgb(239,237,228)" d="M 1142.77 1227.15 C 1145.4 1230.42 1147.1 1240.18 1143.96 1243.45 C 1137.88 1249.78 1122.41 1255.32 1114.48 1258.93 C 1110.16 1258.35 1114.4 1247.31 1114.97 1244 L 1115.57 1240.33 C 1124.01 1236.65 1134.74 1231.59 1142.77 1227.15 z"/>
<path transform="translate(0,0)" fill="rgb(239,237,228)" d="M 1021.69 1200.2 C 1032.28 1204.24 1040.57 1209.14 1052.08 1212.99 C 1051.73 1219.49 1051.6 1221.15 1050.4 1227.63 C 1046.02 1226.02 1041.36 1224.55 1037.01 1222.89 C 1020.11 1216.44 1018.78 1217.06 1021.69 1200.2 z"/>
<path transform="translate(0,0)" fill="rgb(239,237,228)" d="M 1079.94 1201.94 C 1080.67 1202.55 1081.1 1202.84 1081.41 1203.77 C 1086.59 1219.35 1065.07 1224.02 1055.45 1226.76 C 1053.28 1226.62 1055.1 1215.78 1055.27 1213.15 C 1065.72 1210.2 1071.16 1208.83 1079.94 1201.94 z"/>
<path transform="translate(0,0)" fill="rgb(90,50,79)" d="M 911.373 939.485 C 917.717 940.791 925.513 943.09 931.502 945.511 C 937.005 947.736 944.041 946.763 940.359 952.542 L 938.918 953.205 C 931.402 956.75 930.329 956.086 921.776 956.376 C 915.917 949.978 914.686 947.409 911.373 939.485 z"/>
<path transform="translate(0,0)" fill="rgb(31,95,91)" d="M 1069.98 961.195 C 1077.5 962.473 1077.75 965.289 1075.48 972.377 C 1065.84 972.391 1066.5 969.841 1069.98 961.195 z"/>
<path transform="translate(0,0)" fill="rgb(31,95,91)" d="M 1144.7 905.419 C 1148.99 907.399 1147.33 910.829 1145.86 915.6 C 1136.68 914.544 1139.68 910.42 1144.7 905.419 z"/>
<path transform="translate(0,0)" fill="rgb(239,237,228)" d="M 1074.12 1224.96 C 1074.87 1223.81 1082.63 1216.39 1084 1215.1 C 1079.74 1222.84 1076.83 1226.57 1075.39 1235.18 C 1074.92 1233.91 1074.32 1226.71 1074.12 1224.96 z"/>
<path transform="translate(0,0)" fill="rgb(173,103,64)" d="M 1032.08 951.338 L 1034.88 950.492 C 1033.74 953.96 1033.86 954.08 1031.88 956.891 C 1032.01 954.905 1032.13 953.338 1032.08 951.338 z"/>
<path transform="translate(0,0)" fill="rgb(30,42,43)" d="M 1627.83 1239.69 C 1648.75 1230.99 1670.21 1220.74 1691.75 1214.24 C 1698.63 1212.85 1712.33 1219.55 1714.64 1226.25 C 1717.76 1235.32 1717.44 1248.1 1719.66 1257.29 C 1731.53 1306.48 1719.64 1300.93 1679.34 1317.49 C 1671.4 1320.74 1636.22 1303.13 1624.42 1298.93 C 1619.79 1296.76 1615.53 1294.86 1613.19 1290.13 C 1605.64 1274.81 1612.69 1247.51 1627.83 1239.69 z"/>
<path transform="translate(0,0)" fill="rgb(239,237,228)" d="M 1712.68 1240.84 C 1714.64 1242.59 1718.87 1271.32 1719.82 1276.52 L 1720.72 1281.52 C 1723.61 1298.27 1713.61 1301.33 1699.57 1305.9 C 1688.72 1309.44 1676.65 1322.09 1676.61 1308.47 C 1678.94 1299.14 1682.49 1288.34 1673.01 1281.94 C 1668.28 1278.74 1661.72 1272.5 1661.66 1266.4 C 1661.64 1263.65 1676.24 1265.05 1678.82 1262.61 C 1689.74 1255.95 1702.84 1248.87 1712.68 1240.84 z"/>
<path transform="translate(0,0)" fill="rgb(247,245,238)" d="M 1688.61 1217.05 C 1696.94 1216.47 1704.63 1218.34 1710.24 1224.8 C 1720.83 1236.98 1698.69 1246.66 1690.71 1251.46 C 1685.99 1254.29 1680.31 1259.05 1675.81 1260.44 C 1668.39 1262.72 1658.35 1261.42 1650.95 1260.79 C 1649.34 1260.48 1647.69 1260.22 1646.1 1259.8 C 1641.29 1258.53 1625.41 1252.86 1623.12 1248.21 C 1622.85 1247.67 1622.76 1247.09 1623.04 1246.54 C 1625.05 1242.55 1680.35 1220.63 1688.61 1217.05 z"/>
<path transform="translate(0,0)" fill="rgb(239,237,228)" d="M 1620.69 1249.83 C 1632.83 1260.51 1643.26 1262.72 1658.64 1264.7 C 1659.41 1268.21 1659.9 1271.59 1660.73 1275.14 C 1677.82 1291.68 1678 1285.87 1673.78 1310 C 1673.29 1312.78 1674.44 1315.54 1670.74 1314.42 C 1655.26 1308.61 1636.37 1300.21 1621 1294.04 C 1607.23 1288.52 1614.57 1260.84 1620.69 1249.83 z"/>
<path transform="translate(0,0)" fill="rgb(30,42,43)" d="M 368.628 1357.09 C 373.032 1356.83 377.382 1356.54 381.513 1358.26 C 390.641 1362.04 412.386 1369.2 416.324 1378.38 C 419.385 1385.46 425.85 1401.72 422.527 1409.32 C 419.13 1417.07 392.165 1426.46 384.617 1429.24 C 381.194 1430.43 377.572 1431.96 374.018 1430.18 C 362.111 1423.87 350.251 1417.74 338.239 1411.67 C 327.887 1406.44 332.04 1391.32 334.998 1383.5 C 341.289 1366.86 353.271 1363.11 368.628 1357.09 z"/>
<path transform="translate(0,0)" fill="rgb(247,245,238)" d="M 369.737 1360.16 C 373.558 1359.8 380.848 1359.67 384.006 1361.9 C 391.232 1366.98 418.326 1372.61 412.3 1385.06 C 405.474 1399.15 399.158 1399.37 385.696 1404.05 C 383.46 1405.67 383.464 1406.67 381.158 1405.95 C 373.027 1403.73 367.141 1400 359.51 1396.93 C 346.521 1391.71 340.033 1389.56 345.497 1373.98 C 347.73 1367.61 363.253 1362.69 369.737 1360.16 z"/>
<path transform="translate(0,0)" fill="rgb(239,237,228)" d="M 340.32 1381.64 C 341.027 1383.88 341.859 1389.82 343.407 1391.11 C 352.16 1398.38 368.513 1403.87 379.058 1408.95 C 379.426 1409.13 379.059 1410.63 378.757 1411.22 C 376.116 1416.37 377.232 1421.6 375.642 1427.18 C 363.891 1421.84 352.925 1414.98 341.205 1409.45 C 330.22 1404.27 335.826 1389.69 340.32 1381.64 z"/>
<path transform="translate(0,0)" fill="rgb(239,237,228)" d="M 414.537 1385.64 C 418.547 1389.27 422.043 1404.33 419.516 1408.32 C 414.951 1415.53 391.11 1423.58 383.213 1426.18 C 374.688 1428.13 381.26 1412.98 382.615 1409.55 C 400.687 1399.39 405.532 1406.22 414.537 1385.64 z"/>
<path transform="translate(0,0)" fill="rgb(30,42,43)" d="M 930.821 1502.99 C 937.44 1503.2 957.718 1511.82 960.715 1518.15 C 962.869 1522.7 969.448 1537.97 965.671 1542.45 C 956.928 1552.82 936.219 1560.97 923.259 1564 C 914.261 1562.14 891.717 1554.23 888.099 1544.5 C 885.769 1538.24 888.445 1519.54 894.995 1516.97 C 906.267 1512.56 919.333 1506.83 930.821 1502.99 z"/>
<path transform="translate(0,0)" fill="rgb(247,245,238)" d="M 931.606 1506 C 938.109 1506.04 953.026 1514.87 958.393 1519.74 C 957.225 1520.63 956.039 1521.5 954.836 1522.34 C 949.278 1526.21 933.458 1534.68 926.749 1533.4 C 912.926 1529.95 878.206 1521.22 909.616 1514.52 C 913.557 1513.68 927.49 1507.73 931.606 1506 z"/>
<path transform="translate(0,0)" fill="rgb(247,245,238)" d="M 893.967 1523.33 C 905.863 1529.95 913.379 1533.85 927.107 1536.54 C 925.863 1544.77 924.741 1552.45 922.885 1560.6 C 903.029 1554.39 882.484 1549.94 893.177 1525.22 L 893.967 1523.33 z"/>
<path transform="translate(0,0)" fill="rgb(239,237,228)" d="M 958.213 1523.91 C 961.411 1524.76 965.435 1538.15 963.974 1540.02 C 957.11 1548.83 941.468 1554.67 931.252 1558.34 C 931.258 1558.34 929.492 1558.88 929.502 1558.87 C 929.421 1559.16 926.552 1559.4 926.595 1558.87 C 927.062 1553.09 928.962 1542.78 929.976 1537.17 C 944.287 1531.87 944.778 1532.53 958.213 1523.91 z"/>
<path transform="translate(0,0)" fill="rgb(30,42,43)" d="M 1466.4 1457.18 C 1471.91 1457.62 1478.48 1458.51 1483.81 1459.94 L 1485.55 1460.39 C 1487.55 1465.32 1489.49 1471.08 1490.54 1476.33 C 1491.41 1480.56 1490.47 1484.96 1487.95 1488.46 C 1480.57 1498.73 1459.15 1494.74 1447.76 1497.52 C 1436.94 1498.67 1428.58 1500.71 1423.06 1485.98 C 1419.04 1475.28 1429.11 1469.41 1438.42 1467.69 C 1447.5 1466.02 1456.82 1459.56 1466.4 1457.18 z"/>
<path transform="translate(0,0)" fill="rgb(239,237,228)" d="M 1484.29 1467.2 C 1489.24 1471.36 1490.5 1489.62 1478.52 1491.01 C 1466.56 1492.39 1453.91 1493.29 1442.12 1495.05 C 1435.24 1495.11 1438.3 1491.22 1438.29 1484.51 C 1438.29 1483.39 1443.88 1482.33 1444.51 1482.21 C 1459.05 1479.45 1471.46 1474.37 1484.29 1467.2 z"/>
<path transform="translate(0,0)" fill="rgb(247,245,238)" d="M 1467.14 1460.29 C 1504.42 1463.17 1455.15 1476.04 1446.76 1478.55 C 1435.4 1480.61 1438.21 1481.65 1429.76 1474.06 C 1435.71 1471.96 1441.78 1470.25 1447.43 1468.2 C 1454.73 1465.55 1459.01 1462.47 1467.14 1460.29 z"/>
<path transform="translate(0,0)" fill="rgb(247,245,238)" d="M 1427.19 1476.45 C 1436.75 1479.91 1435.18 1487.54 1434.85 1496.12 C 1426.91 1489.35 1424.14 1486.12 1427.19 1476.45 z"/>
</svg>